<ttFont>
    <TTGlyph name="A" xMin="72" yMin="-33" xMax="872" yMax="1477">
      <contour>
        <pt x="94" y="119" on="1"/>
        <pt x="94" y="196" on="0"/>
        <pt x="87" y="350" on="0"/>
        <pt x="79" y="505" on="0"/>
        <pt x="72" y="662" on="0"/>
        <pt x="72" y="743" on="1"/>
        <pt x="72" y="828" on="0"/>
        <pt x="83" y="1003" on="0"/>
        <pt x="115" y="1166" on="0"/>
        <pt x="171" y="1309" on="0"/>
        <pt x="261" y="1415" on="0"/>
        <pt x="391" y="1477" on="0"/>
        <pt x="479" y="1477" on="1"/>
        <pt x="563" y="1477" on="0"/>
        <pt x="687" y="1424" on="0"/>
        <pt x="774" y="1332" on="0"/>
        <pt x="829" y="1208" on="0"/>
        <pt x="860" y="1064" on="0"/>
        <pt x="872" y="908" on="0"/>
        <pt x="872" y="831" on="1"/>
        <pt x="872" y="811" on="0"/>
        <pt x="871" y="781" on="0"/>
        <pt x="870" y="746" on="0"/>
        <pt x="867" y="698" on="0"/>
        <pt x="863" y="621" on="0"/>
        <pt x="858" y="509" on="0"/>
        <pt x="852" y="345" on="0"/>
        <pt x="844" y="122" on="0"/>
        <pt x="840" y="-27" on="1"/>
        <pt x="541" y="-16" on="1"/>
        <pt x="558" y="98" on="0"/>
        <pt x="585" y="327" on="0"/>
        <pt x="594" y="426" on="1"/>
        <pt x="517" y="432" on="0"/>
        <pt x="451" y="432" on="1"/>
        <pt x="417" y="432" on="0"/>
        <pt x="357" y="430" on="0"/>
        <pt x="334" y="428" on="1"/>
        <pt x="337" y="376" on="0"/>
        <pt x="345" y="260" on="0"/>
        <pt x="355" y="142" on="0"/>
        <pt x="367" y="27" on="0"/>
        <pt x="375" y="-25" on="1"/>
        <pt x="92" y="-33" on="1"/>
        <pt x="94" y="4" on="0"/>
        <pt x="94" y="81" on="0"/>
      </contour>
      <contour>
        <pt x="322" y="639" on="1"/>
        <pt x="352" y="637" on="0"/>
        <pt x="410" y="637" on="0"/>
        <pt x="438" y="637" on="1"/>
        <pt x="545" y="637" on="0"/>
        <pt x="610" y="643" on="1"/>
        <pt x="616" y="714" on="0"/>
        <pt x="629" y="858" on="0"/>
        <pt x="629" y="940" on="1"/>
        <pt x="629" y="1113" on="0"/>
        <pt x="558" y="1294" on="0"/>
        <pt x="489" y="1294" on="1"/>
        <pt x="451" y="1294" on="0"/>
        <pt x="387" y="1240" on="0"/>
        <pt x="340" y="1127" on="0"/>
        <pt x="313" y="955" on="0"/>
        <pt x="313" y="838" on="1"/>
        <pt x="313" y="797" on="0"/>
        <pt x="318" y="704" on="0"/>
      </contour>
    </TTGlyph>
    <TTGlyph name="AE" xMin="72" yMin="-33" xMax="1323" yMax="1477">
      <contour>
        <pt x="1323" y="-23" on="1"/>
        <pt x="1137" y="-19" on="0"/>
        <pt x="862" y="-16" on="0"/>
        <pt x="766" y="-16" on="1"/>
        <pt x="708" y="-16" on="0"/>
        <pt x="624" y="-17" on="0"/>
        <pt x="596" y="-17" on="1"/>
        <pt x="563" y="-18" on="0"/>
        <pt x="541" y="-18" on="1"/>
        <pt x="541" y="-16" on="1"/>
        <pt x="541" y="-10" on="1"/>
        <pt x="553" y="98" on="0"/>
        <pt x="583" y="313" on="0"/>
        <pt x="594" y="426" on="1"/>
        <pt x="517" y="432" on="0"/>
        <pt x="451" y="432" on="1"/>
        <pt x="417" y="432" on="0"/>
        <pt x="357" y="430" on="0"/>
        <pt x="334" y="428" on="1"/>
        <pt x="337" y="376" on="0"/>
        <pt x="345" y="260" on="0"/>
        <pt x="355" y="142" on="0"/>
        <pt x="367" y="27" on="0"/>
        <pt x="375" y="-25" on="1"/>
        <pt x="92" y="-33" on="1"/>
        <pt x="94" y="4" on="0"/>
        <pt x="94" y="81" on="0"/>
        <pt x="94" y="119" on="1"/>
        <pt x="94" y="196" on="0"/>
        <pt x="87" y="350" on="0"/>
        <pt x="79" y="505" on="0"/>
        <pt x="72" y="662" on="0"/>
        <pt x="72" y="743" on="1"/>
        <pt x="72" y="828" on="0"/>
        <pt x="83" y="1003" on="0"/>
        <pt x="115" y="1166" on="0"/>
        <pt x="171" y="1309" on="0"/>
        <pt x="261" y="1415" on="0"/>
        <pt x="391" y="1477" on="0"/>
        <pt x="479" y="1477" on="1"/>
        <pt x="526" y="1477" on="0"/>
        <pt x="603" y="1459" on="0"/>
        <pt x="637" y="1444" on="1"/>
        <pt x="753" y="1441" on="0"/>
        <pt x="935" y="1436" on="0"/>
        <pt x="1010" y="1436" on="1"/>
        <pt x="1086" y="1436" on="0"/>
        <pt x="1195" y="1439" on="0"/>
        <pt x="1230" y="1441" on="1"/>
        <pt x="1271" y="1443" on="0"/>
        <pt x="1298" y="1446" on="1"/>
        <pt x="1298" y="1447" on="0"/>
        <pt x="1298" y="1409" on="0"/>
        <pt x="1300" y="1347" on="0"/>
        <pt x="1305" y="1269" on="0"/>
        <pt x="1311" y="1229" on="1"/>
        <pt x="1195" y="1240" on="0"/>
        <pt x="1020" y="1247" on="0"/>
        <pt x="958" y="1247" on="1"/>
        <pt x="932" y="1247" on="0"/>
        <pt x="891" y="1247" on="0"/>
        <pt x="874" y="1245" on="1"/>
        <pt x="872" y="1142" on="0"/>
        <pt x="872" y="960" on="0"/>
        <pt x="872" y="877" on="1"/>
        <pt x="872" y="852" on="1"/>
        <pt x="942" y="854" on="0"/>
        <pt x="1054" y="861" on="0"/>
        <pt x="1092" y="866" on="1"/>
        <pt x="1137" y="871" on="0"/>
        <pt x="1171" y="877" on="1"/>
        <pt x="1170" y="870" on="0"/>
        <pt x="1170" y="861" on="1"/>
        <pt x="1169" y="853" on="0"/>
        <pt x="1169" y="831" on="0"/>
        <pt x="1169" y="817" on="1"/>
        <pt x="1169" y="785" on="0"/>
        <pt x="1173" y="696" on="0"/>
        <pt x="1180" y="645" on="1"/>
        <pt x="1071" y="659" on="0"/>
        <pt x="916" y="666" on="0"/>
        <pt x="872" y="666" on="1"/>
        <pt x="872" y="463" on="0"/>
        <pt x="880" y="218" on="0"/>
        <pt x="883" y="158" on="1"/>
        <pt x="986" y="160" on="0"/>
        <pt x="1146" y="176" on="0"/>
        <pt x="1256" y="193" on="0"/>
        <pt x="1313" y="207" on="0"/>
        <pt x="1313" y="209" on="1"/>
        <pt x="1312" y="204" on="0"/>
        <pt x="1312" y="198" on="1"/>
        <pt x="1311" y="193" on="0"/>
        <pt x="1311" y="177" on="0"/>
        <pt x="1311" y="166" on="1"/>
        <pt x="1311" y="138" on="0"/>
        <pt x="1315" y="44" on="0"/>
      </contour>
      <contour>
        <pt x="322" y="639" on="1"/>
        <pt x="352" y="637" on="0"/>
        <pt x="410" y="637" on="0"/>
        <pt x="438" y="637" on="1"/>
        <pt x="545" y="637" on="0"/>
        <pt x="610" y="643" on="1"/>
        <pt x="616" y="715" on="0"/>
        <pt x="629" y="865" on="0"/>
        <pt x="629" y="950" on="1"/>
        <pt x="629" y="1119" on="0"/>
        <pt x="559" y="1294" on="0"/>
        <pt x="489" y="1294" on="1"/>
        <pt x="402" y="1294" on="0"/>
        <pt x="313" y="1089" on="0"/>
        <pt x="313" y="872" on="1"/>
        <pt x="313" y="824" on="0"/>
        <pt x="317" y="713" on="0"/>
      </contour>
    </TTGlyph>
    <TTGlyph name="AEacute" xMin="72" yMin="-33" xMax="1323" yMax="1923">
      <component glyphName="AE" x="0" y="0" flags="0x204"/>
      <component glyphName="acute" x="573" y="41" flags="0x4"/>
    </TTGlyph>
    <TTGlyph name="Aacute" xMin="72" yMin="-33" xMax="872" yMax="1933">
      <component glyphName="A" x="0" y="0" flags="0x204"/>
      <component glyphName="acute" x="461" y="51" flags="0x4"/>
    </TTGlyph>
    <TTGlyph name="Abreve" xMin="72" yMin="-33" xMax="872" yMax="1937">
      <component glyphName="A" x="0" y="0" flags="0x204"/>
      <component glyphName="breve" x="250" y="59" flags="0x4"/>
    </TTGlyph>
    <TTGlyph name="Acircumflex" xMin="72" yMin="-33" xMax="872" yMax="1915">
      <component glyphName="A" x="0" y="0" flags="0x204"/>
      <component glyphName="circumflex" x="221" y="27" flags="0x4"/>
    </TTGlyph>
    <TTGlyph name="Adieresis" xMin="72" yMin="-33" xMax="872" yMax="1758">
      <component glyphName="A" x="0" y="0" flags="0x204"/>
      <component glyphName="dieresis" x="231" y="70" flags="0x4"/>
    </TTGlyph>
    <TTGlyph name="Agrave" xMin="72" yMin="-33" xMax="872" yMax="1943">
      <component glyphName="A" x="0" y="0" flags="0x204"/>
      <component glyphName="grave" x="162" y="61" flags="0x4"/>
    </TTGlyph>
    <TTGlyph name="Amacron" xMin="72" yMin="-33" xMax="872" yMax="1730">
      <component glyphName="A" x="0" y="0" flags="0x204"/>
      <component glyphName="macron" x="238" y="12" flags="0x4"/>
    </TTGlyph>
    <TTGlyph name="Aogonek" xMin="72" yMin="-354" xMax="872" yMax="1477">
      <contour>
        <pt x="872" y="-260" on="1"/>
        <pt x="824" y="-307" on="0"/>
        <pt x="739" y="-354" on="0"/>
        <pt x="686" y="-354" on="1"/>
        <pt x="656" y="-354" on="0"/>
        <pt x="606" y="-330" on="0"/>
        <pt x="571" y="-290" on="0"/>
        <pt x="551" y="-238" on="0"/>
        <pt x="551" y="-209" on="1"/>
        <pt x="551" y="-193" on="0"/>
        <pt x="558" y="-151" on="0"/>
        <pt x="577" y="-102" on="0"/>
        <pt x="609" y="-47" on="0"/>
        <pt x="635" y="-18" on="1"/>
        <pt x="541" y="-16" on="1"/>
        <pt x="558" y="98" on="0"/>
        <pt x="585" y="327" on="0"/>
        <pt x="594" y="426" on="1"/>
        <pt x="517" y="432" on="0"/>
        <pt x="451" y="432" on="1"/>
        <pt x="417" y="432" on="0"/>
        <pt x="357" y="430" on="0"/>
        <pt x="334" y="428" on="1"/>
        <pt x="337" y="376" on="0"/>
        <pt x="345" y="260" on="0"/>
        <pt x="355" y="142" on="0"/>
        <pt x="367" y="27" on="0"/>
        <pt x="375" y="-25" on="1"/>
        <pt x="92" y="-33" on="1"/>
        <pt x="94" y="4" on="0"/>
        <pt x="94" y="81" on="0"/>
        <pt x="94" y="119" on="1"/>
        <pt x="94" y="196" on="0"/>
        <pt x="87" y="350" on="0"/>
        <pt x="79" y="505" on="0"/>
        <pt x="72" y="662" on="0"/>
        <pt x="72" y="743" on="1"/>
        <pt x="72" y="828" on="0"/>
        <pt x="83" y="1003" on="0"/>
        <pt x="115" y="1166" on="0"/>
        <pt x="171" y="1309" on="0"/>
        <pt x="261" y="1415" on="0"/>
        <pt x="391" y="1477" on="0"/>
        <pt x="479" y="1477" on="1"/>
        <pt x="563" y="1477" on="0"/>
        <pt x="687" y="1424" on="0"/>
        <pt x="774" y="1332" on="0"/>
        <pt x="829" y="1208" on="0"/>
        <pt x="860" y="1064" on="0"/>
        <pt x="872" y="908" on="0"/>
        <pt x="872" y="831" on="1"/>
        <pt x="872" y="811" on="0"/>
        <pt x="871" y="781" on="0"/>
        <pt x="870" y="746" on="0"/>
        <pt x="867" y="698" on="0"/>
        <pt x="863" y="621" on="0"/>
        <pt x="858" y="509" on="0"/>
        <pt x="852" y="345" on="0"/>
        <pt x="844" y="122" on="0"/>
        <pt x="840" y="-27" on="1"/>
        <pt x="739" y="-23" on="1"/>
        <pt x="726" y="-39" on="0"/>
        <pt x="700" y="-77" on="0"/>
        <pt x="679" y="-118" on="0"/>
        <pt x="666" y="-161" on="0"/>
        <pt x="666" y="-182" on="1"/>
        <pt x="666" y="-199" on="0"/>
        <pt x="687" y="-217" on="0"/>
        <pt x="702" y="-217" on="1"/>
        <pt x="731" y="-217" on="0"/>
        <pt x="774" y="-177" on="0"/>
        <pt x="793" y="-156" on="1"/>
      </contour>
      <contour>
        <pt x="322" y="639" on="1"/>
        <pt x="352" y="637" on="0"/>
        <pt x="410" y="637" on="0"/>
        <pt x="438" y="637" on="1"/>
        <pt x="545" y="637" on="0"/>
        <pt x="610" y="643" on="1"/>
        <pt x="616" y="714" on="0"/>
        <pt x="629" y="858" on="0"/>
        <pt x="629" y="940" on="1"/>
        <pt x="629" y="1113" on="0"/>
        <pt x="558" y="1294" on="0"/>
        <pt x="489" y="1294" on="1"/>
        <pt x="451" y="1294" on="0"/>
        <pt x="387" y="1240" on="0"/>
        <pt x="340" y="1127" on="0"/>
        <pt x="313" y="955" on="0"/>
        <pt x="313" y="838" on="1"/>
        <pt x="313" y="797" on="0"/>
        <pt x="318" y="704" on="0"/>
      </contour>
    </TTGlyph>
    <TTGlyph name="Aring" xMin="72" yMin="-33" xMax="872" yMax="1931">
      <component glyphName="A" x="0" y="0" flags="0x204"/>
      <component glyphName="ring" x="281" y="80" flags="0x4"/>
    </TTGlyph>
    <TTGlyph name="Atilde" xMin="72" yMin="-33" xMax="872" yMax="1821">
      <component glyphName="A" x="0" y="0" flags="0x204"/>
      <component glyphName="tilde" x="178" y="27" flags="0x4"/>
    </TTGlyph>
    <TTGlyph name="B" xMin="78" yMin="-59" xMax="936" yMax="1448">
      <contour>
        <pt x="936" y="395" on="1"/>
        <pt x="931" y="297" on="0"/>
        <pt x="871" y="154" on="0"/>
        <pt x="778" y="53" on="0"/>
        <pt x="661" y="-10" on="0"/>
        <pt x="542" y="-46" on="0"/>
        <pt x="427" y="-59" on="0"/>
        <pt x="383" y="-59" on="1"/>
        <pt x="298" y="-59" on="0"/>
        <pt x="149" y="-49" on="0"/>
        <pt x="78" y="-37" on="1"/>
        <pt x="84" y="26" on="0"/>
        <pt x="92" y="177" on="0"/>
        <pt x="98" y="334" on="0"/>
        <pt x="100" y="486" on="0"/>
        <pt x="102" y="615" on="0"/>
        <pt x="102" y="710" on="0"/>
        <pt x="102" y="731" on="1"/>
        <pt x="101" y="874" on="0"/>
        <pt x="98" y="1007" on="1"/>
        <pt x="97" y="1064" on="0"/>
        <pt x="94" y="1183" on="0"/>
        <pt x="91" y="1296" on="0"/>
        <pt x="87" y="1397" on="0"/>
        <pt x="84" y="1436" on="1"/>
        <pt x="112" y="1440" on="0"/>
        <pt x="179" y="1444" on="0"/>
        <pt x="246" y="1447" on="0"/>
        <pt x="311" y="1448" on="0"/>
        <pt x="338" y="1448" on="1"/>
        <pt x="459" y="1448" on="0"/>
        <pt x="674" y="1412" on="0"/>
        <pt x="835" y="1325" on="0"/>
        <pt x="928" y="1182" on="0"/>
        <pt x="928" y="1075" on="1"/>
        <pt x="923" y="1010" on="0"/>
        <pt x="896" y="953" on="1"/>
        <pt x="884" y="928" on="0"/>
        <pt x="849" y="877" on="0"/>
        <pt x="797" y="831" on="0"/>
        <pt x="727" y="791" on="0"/>
        <pt x="682" y="778" on="1"/>
        <pt x="747" y="761" on="0"/>
        <pt x="835" y="693" on="0"/>
        <pt x="892" y="610" on="0"/>
        <pt x="921" y="522" on="0"/>
        <pt x="934" y="448" on="0"/>
        <pt x="936" y="398" on="0"/>
      </contour>
      <contour>
        <pt x="655" y="385" on="1"/>
        <pt x="652" y="469" on="0"/>
        <pt x="627" y="536" on="1"/>
        <pt x="616" y="564" on="0"/>
        <pt x="583" y="619" on="0"/>
        <pt x="535" y="662" on="0"/>
        <pt x="469" y="688" on="0"/>
        <pt x="426" y="688" on="1"/>
        <pt x="415" y="688" on="0"/>
        <pt x="391" y="686" on="0"/>
        <pt x="377" y="684" on="1"/>
        <pt x="369" y="119" on="1"/>
        <pt x="399" y="113" on="0"/>
        <pt x="428" y="113" on="1"/>
        <pt x="470" y="113" on="0"/>
        <pt x="533" y="136" on="0"/>
        <pt x="581" y="175" on="0"/>
        <pt x="614" y="223" on="0"/>
        <pt x="625" y="249" on="1"/>
        <pt x="651" y="309" on="0"/>
      </contour>
      <contour>
        <pt x="651" y="1081" on="1"/>
        <pt x="647" y="1137" on="0"/>
        <pt x="623" y="1181" on="1"/>
        <pt x="613" y="1200" on="0"/>
        <pt x="582" y="1236" on="0"/>
        <pt x="537" y="1264" on="0"/>
        <pt x="476" y="1282" on="0"/>
        <pt x="436" y="1282" on="1"/>
        <pt x="404" y="1282" on="0"/>
        <pt x="365" y="1276" on="1"/>
        <pt x="377" y="852" on="1"/>
        <pt x="399" y="852" on="1"/>
        <pt x="461" y="852" on="0"/>
        <pt x="547" y="885" on="0"/>
        <pt x="603" y="934" on="0"/>
        <pt x="634" y="992" on="0"/>
        <pt x="648" y="1043" on="0"/>
        <pt x="651" y="1078" on="0"/>
      </contour>
    </TTGlyph>
    <TTGlyph name="C" xMin="47" yMin="-68" xMax="928" yMax="1462">
      <contour>
        <pt x="928" y="301" on="1"/>
        <pt x="928" y="207" on="0"/>
        <pt x="860" y="68" on="0"/>
        <pt x="754" y="-23" on="0"/>
        <pt x="626" y="-68" on="0"/>
        <pt x="567" y="-68" on="1"/>
        <pt x="469" y="-68" on="0"/>
        <pt x="283" y="21" on="0"/>
        <pt x="136" y="210" on="0"/>
        <pt x="47" y="507" on="0"/>
        <pt x="47" y="715" on="1"/>
        <pt x="47" y="854" on="0"/>
        <pt x="90" y="1072" on="0"/>
        <pt x="163" y="1238" on="0"/>
        <pt x="262" y="1355" on="0"/>
        <pt x="376" y="1428" on="0"/>
        <pt x="498" y="1462" on="0"/>
        <pt x="557" y="1462" on="1"/>
        <pt x="646" y="1462" on="0"/>
        <pt x="775" y="1412" on="0"/>
        <pt x="859" y="1334" on="0"/>
        <pt x="899" y="1238" on="0"/>
        <pt x="899" y="1192" on="1"/>
        <pt x="899" y="1146" on="0"/>
        <pt x="874" y="1073" on="0"/>
        <pt x="832" y="1023" on="0"/>
        <pt x="774" y="997" on="0"/>
        <pt x="741" y="997" on="1"/>
        <pt x="713" y="997" on="0"/>
        <pt x="657" y="1017" on="0"/>
        <pt x="613" y="1055" on="0"/>
        <pt x="586" y="1110" on="0"/>
        <pt x="586" y="1145" on="1"/>
        <pt x="587" y="1165" on="0"/>
        <pt x="591" y="1187" on="1"/>
        <pt x="595" y="1206" on="0"/>
        <pt x="612" y="1251" on="0"/>
        <pt x="629" y="1274" on="1"/>
        <pt x="614" y="1288" on="0"/>
        <pt x="580" y="1305" on="0"/>
        <pt x="566" y="1309" on="1"/>
        <pt x="549" y="1313" on="0"/>
        <pt x="532" y="1315" on="1"/>
        <pt x="493" y="1315" on="0"/>
        <pt x="433" y="1267" on="0"/>
        <pt x="389" y="1182" on="0"/>
        <pt x="359" y="1066" on="0"/>
        <pt x="342" y="930" on="0"/>
        <pt x="334" y="781" on="0"/>
        <pt x="334" y="705" on="1"/>
        <pt x="334" y="591" on="0"/>
        <pt x="359" y="370" on="0"/>
        <pt x="416" y="195" on="0"/>
        <pt x="511" y="88" on="0"/>
        <pt x="580" y="88" on="1"/>
        <pt x="622" y="91" on="0"/>
        <pt x="656" y="112" on="1"/>
        <pt x="671" y="121" on="0"/>
        <pt x="699" y="148" on="0"/>
        <pt x="722" y="189" on="0"/>
        <pt x="737" y="243" on="0"/>
        <pt x="739" y="279" on="1"/>
        <pt x="722" y="272" on="0"/>
        <pt x="700" y="272" on="1"/>
        <pt x="676" y="272" on="0"/>
        <pt x="631" y="293" on="0"/>
        <pt x="595" y="330" on="0"/>
        <pt x="573" y="381" on="0"/>
        <pt x="573" y="412" on="1"/>
        <pt x="573" y="459" on="0"/>
        <pt x="616" y="520" on="0"/>
        <pt x="672" y="556" on="0"/>
        <pt x="726" y="571" on="0"/>
        <pt x="737" y="571" on="1"/>
        <pt x="745" y="571" on="0"/>
        <pt x="779" y="566" on="0"/>
        <pt x="822" y="548" on="0"/>
        <pt x="867" y="513" on="0"/>
        <pt x="904" y="453" on="0"/>
        <pt x="928" y="364" on="0"/>
      </contour>
    </TTGlyph>
    <TTGlyph name="Cacute" xMin="47" yMin="-68" xMax="928" yMax="1923">
      <component glyphName="C" x="0" y="0" flags="0x204"/>
      <component glyphName="acute" x="471" y="41" flags="0x4"/>
    </TTGlyph>
    <TTGlyph name="Ccaron" xMin="47" yMin="-68" xMax="928" yMax="1919">
      <component glyphName="C" x="0" y="0" flags="0x204"/>
      <component glyphName="caron" x="223" y="31" flags="0x4"/>
    </TTGlyph>
    <TTGlyph name="Ccedilla" xMin="47" yMin="-401" xMax="928" yMax="1462">
      <contour>
        <pt x="680" y="-254" on="1"/>
        <pt x="680" y="-290" on="0"/>
        <pt x="650" y="-345" on="0"/>
        <pt x="600" y="-382" on="0"/>
        <pt x="536" y="-401" on="0"/>
        <pt x="502" y="-401" on="1"/>
        <pt x="481" y="-401" on="0"/>
        <pt x="448" y="-395" on="0"/>
        <pt x="437" y="-391" on="1"/>
        <pt x="424" y="-387" on="0"/>
        <pt x="414" y="-381" on="1"/>
        <pt x="414" y="-270" on="1"/>
        <pt x="418" y="-275" on="0"/>
        <pt x="439" y="-283" on="0"/>
        <pt x="463" y="-288" on="0"/>
        <pt x="487" y="-291" on="0"/>
        <pt x="494" y="-291" on="1"/>
        <pt x="517" y="-291" on="0"/>
        <pt x="551" y="-274" on="0"/>
        <pt x="551" y="-246" on="1"/>
        <pt x="551" y="-233" on="0"/>
        <pt x="538" y="-215" on="0"/>
        <pt x="518" y="-204" on="0"/>
        <pt x="494" y="-199" on="0"/>
        <pt x="483" y="-199" on="1"/>
        <pt x="469" y="-199" on="0"/>
        <pt x="440" y="-202" on="0"/>
        <pt x="426" y="-207" on="1"/>
        <pt x="481" y="-57" on="1"/>
        <pt x="395" y="-40" on="0"/>
        <pt x="238" y="66" on="0"/>
        <pt x="118" y="254" on="0"/>
        <pt x="47" y="529" on="0"/>
        <pt x="47" y="715" on="1"/>
        <pt x="47" y="854" on="0"/>
        <pt x="90" y="1072" on="0"/>
        <pt x="163" y="1238" on="0"/>
        <pt x="262" y="1355" on="0"/>
        <pt x="376" y="1428" on="0"/>
        <pt x="498" y="1462" on="0"/>
        <pt x="557" y="1462" on="1"/>
        <pt x="646" y="1462" on="0"/>
        <pt x="775" y="1412" on="0"/>
        <pt x="859" y="1334" on="0"/>
        <pt x="899" y="1238" on="0"/>
        <pt x="899" y="1192" on="1"/>
        <pt x="899" y="1146" on="0"/>
        <pt x="874" y="1073" on="0"/>
        <pt x="832" y="1023" on="0"/>
        <pt x="774" y="997" on="0"/>
        <pt x="741" y="997" on="1"/>
        <pt x="713" y="997" on="0"/>
        <pt x="657" y="1017" on="0"/>
        <pt x="613" y="1055" on="0"/>
        <pt x="586" y="1110" on="0"/>
        <pt x="586" y="1145" on="1"/>
        <pt x="587" y="1165" on="0"/>
        <pt x="591" y="1187" on="1"/>
        <pt x="595" y="1206" on="0"/>
        <pt x="612" y="1251" on="0"/>
        <pt x="629" y="1274" on="1"/>
        <pt x="614" y="1288" on="0"/>
        <pt x="580" y="1305" on="0"/>
        <pt x="566" y="1309" on="1"/>
        <pt x="549" y="1313" on="0"/>
        <pt x="532" y="1315" on="1"/>
        <pt x="493" y="1315" on="0"/>
        <pt x="433" y="1267" on="0"/>
        <pt x="389" y="1182" on="0"/>
        <pt x="359" y="1066" on="0"/>
        <pt x="342" y="930" on="0"/>
        <pt x="334" y="781" on="0"/>
        <pt x="334" y="705" on="1"/>
        <pt x="334" y="591" on="0"/>
        <pt x="359" y="370" on="0"/>
        <pt x="416" y="195" on="0"/>
        <pt x="511" y="88" on="0"/>
        <pt x="580" y="88" on="1"/>
        <pt x="622" y="91" on="0"/>
        <pt x="656" y="112" on="1"/>
        <pt x="671" y="121" on="0"/>
        <pt x="699" y="148" on="0"/>
        <pt x="722" y="189" on="0"/>
        <pt x="737" y="243" on="0"/>
        <pt x="739" y="279" on="1"/>
        <pt x="722" y="272" on="0"/>
        <pt x="700" y="272" on="1"/>
        <pt x="676" y="272" on="0"/>
        <pt x="631" y="293" on="0"/>
        <pt x="595" y="330" on="0"/>
        <pt x="573" y="381" on="0"/>
        <pt x="573" y="412" on="1"/>
        <pt x="573" y="459" on="0"/>
        <pt x="616" y="520" on="0"/>
        <pt x="672" y="556" on="0"/>
        <pt x="726" y="571" on="0"/>
        <pt x="737" y="571" on="1"/>
        <pt x="745" y="571" on="0"/>
        <pt x="779" y="566" on="0"/>
        <pt x="822" y="548" on="0"/>
        <pt x="867" y="513" on="0"/>
        <pt x="904" y="453" on="0"/>
        <pt x="928" y="364" on="0"/>
        <pt x="928" y="301" on="1"/>
        <pt x="928" y="207" on="0"/>
        <pt x="860" y="68" on="0"/>
        <pt x="754" y="-23" on="0"/>
        <pt x="626" y="-68" on="0"/>
        <pt x="567" y="-68" on="1"/>
        <pt x="561" y="-68" on="1"/>
        <pt x="549" y="-123" on="1"/>
        <pt x="608" y="-123" on="0"/>
        <pt x="680" y="-194" on="0"/>
      </contour>
    </TTGlyph>
    <TTGlyph name="Ccircumflex" xMin="47" yMin="-68" xMax="928" yMax="1913">
      <component glyphName="C" x="0" y="0" flags="0x204"/>
      <component glyphName="circumflex" x="262" y="25" flags="0x4"/>
    </TTGlyph>
    <TTGlyph name="Cdotaccent" xMin="47" yMin="-68" xMax="928" yMax="1729">
      <component glyphName="C" x="0" y="0" flags="0x204"/>
      <component glyphName="dotaccent" x="387" y="41" flags="0x4"/>
    </TTGlyph>
    <TTGlyph name="D" xMin="76" yMin="-63" xMax="928" yMax="1444">
      <contour>
        <pt x="928" y="686" on="1"/>
        <pt x="928" y="523" on="0"/>
        <pt x="867" y="286" on="0"/>
        <pt x="771" y="119" on="0"/>
        <pt x="651" y="15" on="0"/>
        <pt x="531" y="-42" on="0"/>
        <pt x="425" y="-63" on="0"/>
        <pt x="391" y="-63" on="1"/>
        <pt x="383" y="-63" on="0"/>
        <pt x="328" y="-61" on="0"/>
        <pt x="248" y="-54" on="0"/>
        <pt x="147" y="-40" on="0"/>
        <pt x="92" y="-27" on="1"/>
        <pt x="93" y="171" on="0"/>
        <pt x="96" y="462" on="0"/>
        <pt x="98" y="672" on="0"/>
        <pt x="100" y="814" on="0"/>
        <pt x="101" y="916" on="0"/>
        <pt x="102" y="989" on="0"/>
        <pt x="102" y="1024" on="1"/>
        <pt x="102" y="1079" on="0"/>
        <pt x="100" y="1196" on="0"/>
        <pt x="94" y="1306" on="0"/>
        <pt x="84" y="1402" on="0"/>
        <pt x="76" y="1436" on="1"/>
        <pt x="154" y="1441" on="0"/>
        <pt x="283" y="1444" on="0"/>
        <pt x="330" y="1444" on="1"/>
        <pt x="448" y="1444" on="0"/>
        <pt x="628" y="1387" on="0"/>
        <pt x="761" y="1286" on="0"/>
        <pt x="850" y="1145" on="0"/>
        <pt x="905" y="977" on="0"/>
        <pt x="928" y="786" on="0"/>
      </contour>
      <contour>
        <pt x="668" y="717" on="1"/>
        <pt x="668" y="894" on="0"/>
        <pt x="635" y="1117" on="0"/>
        <pt x="562" y="1241" on="0"/>
        <pt x="445" y="1286" on="0"/>
        <pt x="362" y="1286" on="1"/>
        <pt x="332" y="1286" on="1"/>
        <pt x="344" y="111" on="1"/>
        <pt x="364" y="103" on="0"/>
        <pt x="399" y="98" on="0"/>
        <pt x="416" y="98" on="1"/>
        <pt x="483" y="98" on="0"/>
        <pt x="578" y="161" on="0"/>
        <pt x="639" y="306" on="0"/>
        <pt x="668" y="543" on="0"/>
      </contour>
    </TTGlyph>
    <TTGlyph name="Dcaron" xMin="76" yMin="-63" xMax="928" yMax="1904">
      <component glyphName="D" x="0" y="0" flags="0x204"/>
      <component glyphName="caron" x="197" y="16" flags="0x4"/>
    </TTGlyph>
    <TTGlyph name="Dcroat" xMin="-2" yMin="-63" xMax="938" yMax="1444">
      <component glyphName="Eth" x="0" y="0" flags="0x204"/>
    </TTGlyph>
    <TTGlyph name="Delta" xMin="45" yMin="-49" xMax="967" yMax="1475">
      <contour>
        <pt x="709" y="-49" on="1"/>
        <pt x="681" y="-6" on="0"/>
        <pt x="648" y="107" on="0"/>
        <pt x="639" y="166" on="1"/>
        <pt x="616" y="121" on="0"/>
        <pt x="562" y="45" on="0"/>
        <pt x="498" y="-9" on="0"/>
        <pt x="421" y="-39" on="0"/>
        <pt x="375" y="-39" on="1"/>
        <pt x="316" y="-39" on="0"/>
        <pt x="199" y="14" on="0"/>
        <pt x="104" y="112" on="0"/>
        <pt x="45" y="248" on="0"/>
        <pt x="45" y="332" on="1"/>
        <pt x="45" y="421" on="0"/>
        <pt x="95" y="553" on="0"/>
        <pt x="178" y="654" on="0"/>
        <pt x="286" y="733" on="0"/>
        <pt x="401" y="808" on="0"/>
        <pt x="515" y="887" on="0"/>
        <pt x="563" y="938" on="1"/>
        <pt x="577" y="954" on="0"/>
        <pt x="589" y="977" on="1"/>
        <pt x="600" y="997" on="0"/>
        <pt x="621" y="1055" on="0"/>
        <pt x="629" y="1096" on="1"/>
        <pt x="623" y="1153" on="0"/>
        <pt x="603" y="1234" on="0"/>
        <pt x="570" y="1286" on="0"/>
        <pt x="522" y="1311" on="0"/>
        <pt x="489" y="1311" on="1"/>
        <pt x="438" y="1311" on="0"/>
        <pt x="393" y="1274" on="1"/>
        <pt x="422" y="1255" on="0"/>
        <pt x="452" y="1207" on="0"/>
        <pt x="460" y="1185" on="1"/>
        <pt x="469" y="1159" on="0"/>
        <pt x="471" y="1133" on="1"/>
        <pt x="471" y="1085" on="0"/>
        <pt x="438" y="1022" on="0"/>
        <pt x="387" y="983" on="0"/>
        <pt x="322" y="967" on="0"/>
        <pt x="291" y="967" on="1"/>
        <pt x="260" y="967" on="0"/>
        <pt x="196" y="997" on="0"/>
        <pt x="144" y="1054" on="0"/>
        <pt x="111" y="1137" on="0"/>
        <pt x="111" y="1190" on="1"/>
        <pt x="111" y="1244" on="0"/>
        <pt x="162" y="1346" on="0"/>
        <pt x="261" y="1426" on="0"/>
        <pt x="405" y="1475" on="0"/>
        <pt x="498" y="1475" on="1"/>
        <pt x="588" y="1475" on="0"/>
        <pt x="734" y="1439" on="0"/>
        <pt x="837" y="1344" on="0"/>
        <pt x="893" y="1177" on="0"/>
        <pt x="893" y="1047" on="1"/>
        <pt x="893" y="953" on="0"/>
        <pt x="887" y="735" on="0"/>
        <pt x="887" y="623" on="1"/>
        <pt x="887" y="514" on="0"/>
        <pt x="893" y="303" on="0"/>
        <pt x="911" y="125" on="0"/>
        <pt x="942" y="-10" on="0"/>
        <pt x="967" y="-43" on="1"/>
      </contour>
      <contour>
        <pt x="625" y="412" on="1"/>
        <pt x="633" y="786" on="1"/>
        <pt x="557" y="709" on="0"/>
        <pt x="444" y="592" on="0"/>
        <pt x="369" y="493" on="0"/>
        <pt x="332" y="405" on="0"/>
        <pt x="332" y="358" on="1"/>
        <pt x="332" y="331" on="0"/>
        <pt x="348" y="283" on="0"/>
        <pt x="377" y="247" on="0"/>
        <pt x="418" y="225" on="0"/>
        <pt x="442" y="225" on="1"/>
        <pt x="480" y="225" on="0"/>
        <pt x="539" y="261" on="0"/>
        <pt x="584" y="316" on="0"/>
        <pt x="616" y="381" on="0"/>
        <pt x="625" y="410" on="1"/>
      </contour>
    </TTGlyph>
    <TTGlyph name="E" xMin="72" yMin="-33" xMax="784" yMax="1447">
      <contour>
        <pt x="784" y="-23" on="1"/>
        <pt x="703" y="-21" on="0"/>
        <pt x="564" y="-20" on="0"/>
        <pt x="502" y="-20" on="1"/>
        <pt x="381" y="-20" on="0"/>
        <pt x="218" y="-25" on="0"/>
        <pt x="167" y="-27" on="1"/>
        <pt x="107" y="-30" on="0"/>
        <pt x="72" y="-33" on="1"/>
        <pt x="79" y="34" on="0"/>
        <pt x="90" y="170" on="0"/>
        <pt x="98" y="302" on="0"/>
        <pt x="104" y="424" on="0"/>
        <pt x="106" y="478" on="1"/>
        <pt x="110" y="604" on="0"/>
        <pt x="111" y="719" on="1"/>
        <pt x="110" y="839" on="0"/>
        <pt x="106" y="965" on="1"/>
        <pt x="104" y="1019" on="0"/>
        <pt x="98" y="1138" on="0"/>
        <pt x="90" y="1262" on="0"/>
        <pt x="79" y="1387" on="0"/>
        <pt x="72" y="1446" on="1"/>
        <pt x="197" y="1441" on="0"/>
        <pt x="394" y="1436" on="0"/>
        <pt x="471" y="1436" on="1"/>
        <pt x="547" y="1436" on="0"/>
        <pt x="657" y="1439" on="0"/>
        <pt x="692" y="1441" on="1"/>
        <pt x="733" y="1443" on="0"/>
        <pt x="760" y="1446" on="1"/>
        <pt x="760" y="1447" on="0"/>
        <pt x="760" y="1409" on="0"/>
        <pt x="762" y="1347" on="0"/>
        <pt x="767" y="1269" on="0"/>
        <pt x="772" y="1229" on="1"/>
        <pt x="656" y="1240" on="0"/>
        <pt x="482" y="1247" on="0"/>
        <pt x="420" y="1247" on="1"/>
        <pt x="394" y="1247" on="0"/>
        <pt x="355" y="1247" on="0"/>
        <pt x="338" y="1245" on="1"/>
        <pt x="336" y="1134" on="0"/>
        <pt x="334" y="939" on="0"/>
        <pt x="334" y="852" on="1"/>
        <pt x="404" y="854" on="0"/>
        <pt x="514" y="861" on="0"/>
        <pt x="553" y="866" on="1"/>
        <pt x="598" y="871" on="0"/>
        <pt x="633" y="877" on="1"/>
        <pt x="632" y="870" on="0"/>
        <pt x="632" y="861" on="1"/>
        <pt x="631" y="853" on="0"/>
        <pt x="631" y="831" on="0"/>
        <pt x="631" y="817" on="1"/>
        <pt x="631" y="785" on="0"/>
        <pt x="635" y="696" on="0"/>
        <pt x="641" y="645" on="1"/>
        <pt x="533" y="659" on="0"/>
        <pt x="377" y="666" on="0"/>
        <pt x="334" y="666" on="1"/>
        <pt x="334" y="562" on="0"/>
        <pt x="336" y="399" on="0"/>
        <pt x="339" y="275" on="0"/>
        <pt x="342" y="187" on="0"/>
        <pt x="344" y="158" on="1"/>
        <pt x="446" y="160" on="0"/>
        <pt x="606" y="176" on="0"/>
        <pt x="716" y="193" on="0"/>
        <pt x="774" y="207" on="0"/>
        <pt x="774" y="209" on="1"/>
        <pt x="773" y="204" on="0"/>
        <pt x="773" y="198" on="1"/>
        <pt x="772" y="193" on="0"/>
        <pt x="772" y="177" on="0"/>
        <pt x="772" y="166" on="1"/>
        <pt x="772" y="138" on="0"/>
        <pt x="776" y="44" on="0"/>
      </contour>
    </TTGlyph>
    <TTGlyph name="Eacute" xMin="72" yMin="-33" xMax="784" yMax="1915">
      <component glyphName="E" x="0" y="0" flags="0x204"/>
      <component glyphName="acute" x="367" y="33" flags="0x4"/>
    </TTGlyph>
    <TTGlyph name="Ebreve" xMin="72" yMin="-33" xMax="784" yMax="1894">
      <component glyphName="E" x="0" y="0" flags="0x204"/>
      <component glyphName="breve" x="184" y="16" flags="0x4"/>
    </TTGlyph>
    <TTGlyph name="Ecaron" xMin="72" yMin="-33" xMax="784" yMax="1890">
      <component glyphName="E" x="0" y="0" flags="0x204"/>
      <component glyphName="caron" x="154" y="2" flags="0x4"/>
    </TTGlyph>
    <TTGlyph name="Ecircumflex" xMin="72" yMin="-33" xMax="784" yMax="1894">
      <component glyphName="E" x="0" y="0" flags="0x204"/>
      <component glyphName="circumflex" x="176" y="6" flags="0x4"/>
    </TTGlyph>
    <TTGlyph name="Edieresis" xMin="72" yMin="-33" xMax="784" yMax="1719">
      <component glyphName="E" x="0" y="0" flags="0x204"/>
      <component glyphName="dieresis" x="186" y="31" flags="0x4"/>
    </TTGlyph>
    <TTGlyph name="Edotaccent" xMin="72" yMin="-33" xMax="784" yMax="1711">
      <component glyphName="E" x="0" y="0" flags="0x204"/>
      <component glyphName="dotaccent" x="299" y="23" flags="0x4"/>
    </TTGlyph>
    <TTGlyph name="Egrave" xMin="72" yMin="-33" xMax="784" yMax="1905">
      <component glyphName="E" x="0" y="0" flags="0x204"/>
      <component glyphName="grave" x="133" y="23" flags="0x4"/>
    </TTGlyph>
    <TTGlyph name="Emacron" xMin="72" yMin="-33" xMax="784" yMax="1701">
      <component glyphName="E" x="0" y="0" flags="0x204"/>
      <component glyphName="macron" x="172" y="-17" flags="0x4"/>
    </TTGlyph>
    <TTGlyph name="Eng" xMin="78" yMin="-629" xMax="950" yMax="1468">
      <contour>
        <pt x="938" y="-115" on="1"/>
        <pt x="938" y="-215" on="0"/>
        <pt x="898" y="-400" on="0"/>
        <pt x="802" y="-543" on="0"/>
        <pt x="640" y="-629" on="0"/>
        <pt x="518" y="-629" on="1"/>
        <pt x="410" y="-629" on="0"/>
        <pt x="267" y="-555" on="0"/>
        <pt x="181" y="-441" on="0"/>
        <pt x="145" y="-304" on="0"/>
        <pt x="145" y="-240" on="1"/>
        <pt x="145" y="-184" on="0"/>
        <pt x="182" y="-109" on="0"/>
        <pt x="235" y="-65" on="0"/>
        <pt x="292" y="-47" on="0"/>
        <pt x="313" y="-47" on="1"/>
        <pt x="335" y="-47" on="0"/>
        <pt x="394" y="-64" on="0"/>
        <pt x="448" y="-105" on="0"/>
        <pt x="485" y="-171" on="0"/>
        <pt x="485" y="-219" on="1"/>
        <pt x="483" y="-256" on="0"/>
        <pt x="469" y="-288" on="1"/>
        <pt x="457" y="-315" on="0"/>
        <pt x="406" y="-368" on="0"/>
        <pt x="358" y="-379" on="1"/>
        <pt x="376" y="-408" on="0"/>
        <pt x="422" y="-443" on="0"/>
        <pt x="468" y="-461" on="0"/>
        <pt x="510" y="-467" on="0"/>
        <pt x="524" y="-467" on="1"/>
        <pt x="577" y="-467" on="0"/>
        <pt x="641" y="-423" on="0"/>
        <pt x="675" y="-343" on="0"/>
        <pt x="686" y="-232" on="0"/>
        <pt x="686" y="-164" on="1"/>
        <pt x="669" y="-98" on="0"/>
        <pt x="615" y="100" on="0"/>
        <pt x="550" y="328" on="0"/>
        <pt x="480" y="572" on="0"/>
        <pt x="412" y="799" on="0"/>
        <pt x="353" y="993" on="0"/>
        <pt x="332" y="1057" on="1"/>
        <pt x="324" y="929" on="0"/>
        <pt x="316" y="712" on="0"/>
        <pt x="314" y="631" on="1"/>
        <pt x="311" y="537" on="0"/>
        <pt x="311" y="459" on="1"/>
        <pt x="311" y="392" on="0"/>
        <pt x="314" y="317" on="1"/>
        <pt x="316" y="253" on="0"/>
        <pt x="327" y="89" on="0"/>
        <pt x="338" y="4" on="1"/>
        <pt x="261" y="7" on="0"/>
        <pt x="162" y="8" on="0"/>
        <pt x="133" y="8" on="1"/>
        <pt x="84" y="8" on="1"/>
        <pt x="89" y="187" on="0"/>
        <pt x="95" y="437" on="0"/>
        <pt x="98" y="606" on="0"/>
        <pt x="99" y="708" on="0"/>
        <pt x="99" y="771" on="0"/>
        <pt x="98" y="809" on="0"/>
        <pt x="98" y="829" on="1"/>
        <pt x="98" y="879" on="0"/>
        <pt x="97" y="1017" on="0"/>
        <pt x="93" y="1176" on="0"/>
        <pt x="85" y="1348" on="0"/>
        <pt x="78" y="1432" on="1"/>
        <pt x="180" y="1432" on="0"/>
        <pt x="312" y="1436" on="0"/>
        <pt x="351" y="1438" on="1"/>
        <pt x="397" y="1441" on="0"/>
        <pt x="422" y="1444" on="1"/>
        <pt x="427" y="1412" on="0"/>
        <pt x="458" y="1276" on="0"/>
        <pt x="501" y="1097" on="0"/>
        <pt x="555" y="889" on="0"/>
        <pt x="612" y="678" on="0"/>
        <pt x="670" y="479" on="0"/>
        <pt x="696" y="399" on="1"/>
        <pt x="701" y="484" on="0"/>
        <pt x="706" y="661" on="0"/>
        <pt x="709" y="815" on="0"/>
        <pt x="709" y="930" on="0"/>
        <pt x="709" y="952" on="1"/>
        <pt x="708" y="1043" on="0"/>
        <pt x="705" y="1134" on="1"/>
        <pt x="704" y="1173" on="0"/>
        <pt x="700" y="1257" on="0"/>
        <pt x="695" y="1342" on="0"/>
        <pt x="688" y="1424" on="0"/>
        <pt x="684" y="1460" on="1"/>
        <pt x="950" y="1468" on="1"/>
        <pt x="945" y="1387" on="0"/>
        <pt x="938" y="1212" on="0"/>
        <pt x="933" y="1036" on="0"/>
        <pt x="930" y="866" on="0"/>
        <pt x="928" y="716" on="0"/>
        <pt x="928" y="592" on="0"/>
        <pt x="928" y="549" on="1"/>
        <pt x="928" y="454" on="0"/>
        <pt x="931" y="280" on="0"/>
        <pt x="935" y="117" on="0"/>
        <pt x="938" y="-38" on="0"/>
      </contour>
    </TTGlyph>
    <TTGlyph name="Eogonek" xMin="72" yMin="-354" xMax="784" yMax="1447">
      <contour>
        <pt x="784" y="-260" on="1"/>
        <pt x="736" y="-307" on="0"/>
        <pt x="651" y="-354" on="0"/>
        <pt x="598" y="-354" on="1"/>
        <pt x="568" y="-354" on="0"/>
        <pt x="518" y="-330" on="0"/>
        <pt x="483" y="-290" on="0"/>
        <pt x="463" y="-238" on="0"/>
        <pt x="463" y="-209" on="1"/>
        <pt x="463" y="-193" on="0"/>
        <pt x="470" y="-151" on="0"/>
        <pt x="488" y="-103" on="0"/>
        <pt x="520" y="-49" on="0"/>
        <pt x="545" y="-20" on="1"/>
        <pt x="502" y="-20" on="1"/>
        <pt x="381" y="-20" on="0"/>
        <pt x="218" y="-25" on="0"/>
        <pt x="167" y="-27" on="1"/>
        <pt x="107" y="-30" on="0"/>
        <pt x="72" y="-33" on="1"/>
        <pt x="79" y="34" on="0"/>
        <pt x="90" y="170" on="0"/>
        <pt x="98" y="302" on="0"/>
        <pt x="104" y="424" on="0"/>
        <pt x="106" y="478" on="1"/>
        <pt x="110" y="604" on="0"/>
        <pt x="111" y="719" on="1"/>
        <pt x="110" y="839" on="0"/>
        <pt x="106" y="965" on="1"/>
        <pt x="104" y="1019" on="0"/>
        <pt x="98" y="1138" on="0"/>
        <pt x="90" y="1262" on="0"/>
        <pt x="79" y="1387" on="0"/>
        <pt x="72" y="1446" on="1"/>
        <pt x="197" y="1441" on="0"/>
        <pt x="394" y="1436" on="0"/>
        <pt x="471" y="1436" on="1"/>
        <pt x="547" y="1436" on="0"/>
        <pt x="657" y="1439" on="0"/>
        <pt x="692" y="1441" on="1"/>
        <pt x="733" y="1443" on="0"/>
        <pt x="760" y="1446" on="1"/>
        <pt x="760" y="1447" on="0"/>
        <pt x="760" y="1409" on="0"/>
        <pt x="762" y="1347" on="0"/>
        <pt x="767" y="1269" on="0"/>
        <pt x="772" y="1229" on="1"/>
        <pt x="656" y="1240" on="0"/>
        <pt x="482" y="1247" on="0"/>
        <pt x="420" y="1247" on="1"/>
        <pt x="394" y="1247" on="0"/>
        <pt x="355" y="1247" on="0"/>
        <pt x="338" y="1245" on="1"/>
        <pt x="336" y="1134" on="0"/>
        <pt x="334" y="939" on="0"/>
        <pt x="334" y="852" on="1"/>
        <pt x="404" y="854" on="0"/>
        <pt x="514" y="861" on="0"/>
        <pt x="553" y="866" on="1"/>
        <pt x="598" y="871" on="0"/>
        <pt x="633" y="877" on="1"/>
        <pt x="632" y="870" on="0"/>
        <pt x="632" y="861" on="1"/>
        <pt x="631" y="853" on="0"/>
        <pt x="631" y="831" on="0"/>
        <pt x="631" y="817" on="1"/>
        <pt x="631" y="785" on="0"/>
        <pt x="635" y="696" on="0"/>
        <pt x="641" y="645" on="1"/>
        <pt x="533" y="659" on="0"/>
        <pt x="377" y="666" on="0"/>
        <pt x="334" y="666" on="1"/>
        <pt x="334" y="562" on="0"/>
        <pt x="336" y="399" on="0"/>
        <pt x="339" y="275" on="0"/>
        <pt x="342" y="187" on="0"/>
        <pt x="344" y="158" on="1"/>
        <pt x="446" y="160" on="0"/>
        <pt x="606" y="176" on="0"/>
        <pt x="716" y="193" on="0"/>
        <pt x="774" y="207" on="0"/>
        <pt x="774" y="209" on="1"/>
        <pt x="773" y="204" on="0"/>
        <pt x="773" y="198" on="1"/>
        <pt x="772" y="193" on="0"/>
        <pt x="772" y="177" on="0"/>
        <pt x="772" y="166" on="1"/>
        <pt x="772" y="138" on="0"/>
        <pt x="776" y="44" on="0"/>
        <pt x="784" y="-23" on="1"/>
        <pt x="749" y="-21" on="0"/>
        <pt x="684" y="-20" on="0"/>
        <pt x="653" y="-20" on="1"/>
        <pt x="639" y="-36" on="0"/>
        <pt x="612" y="-75" on="0"/>
        <pt x="591" y="-117" on="0"/>
        <pt x="578" y="-161" on="0"/>
        <pt x="578" y="-182" on="1"/>
        <pt x="578" y="-199" on="0"/>
        <pt x="599" y="-217" on="0"/>
        <pt x="614" y="-217" on="1"/>
        <pt x="643" y="-217" on="0"/>
        <pt x="686" y="-177" on="0"/>
        <pt x="705" y="-156" on="1"/>
      </contour>
    </TTGlyph>
    <TTGlyph name="Eth" xMin="-2" yMin="-63" xMax="938" yMax="1444">
      <contour>
        <pt x="938" y="686" on="1"/>
        <pt x="938" y="523" on="0"/>
        <pt x="878" y="286" on="0"/>
        <pt x="781" y="119" on="0"/>
        <pt x="661" y="15" on="0"/>
        <pt x="542" y="-42" on="0"/>
        <pt x="435" y="-63" on="0"/>
        <pt x="401" y="-63" on="1"/>
        <pt x="393" y="-63" on="0"/>
        <pt x="338" y="-61" on="0"/>
        <pt x="258" y="-54" on="0"/>
        <pt x="157" y="-40" on="0"/>
        <pt x="102" y="-27" on="1"/>
        <pt x="106" y="588" on="1"/>
        <pt x="104" y="588" on="1"/>
        <pt x="-2" y="588" on="1"/>
        <pt x="0" y="614" on="0"/>
        <pt x="4" y="673" on="0"/>
        <pt x="4" y="705" on="1"/>
        <pt x="4" y="726" on="0"/>
        <pt x="1" y="774" on="0"/>
        <pt x="-2" y="797" on="1"/>
        <pt x="24" y="794" on="0"/>
        <pt x="80" y="788" on="0"/>
        <pt x="109" y="786" on="1"/>
        <pt x="108" y="810" on="0"/>
        <pt x="106" y="909" on="0"/>
        <pt x="103" y="1035" on="0"/>
        <pt x="99" y="1175" on="0"/>
        <pt x="94" y="1304" on="0"/>
        <pt x="89" y="1408" on="0"/>
        <pt x="86" y="1436" on="1"/>
        <pt x="164" y="1441" on="0"/>
        <pt x="294" y="1444" on="0"/>
        <pt x="340" y="1444" on="1"/>
        <pt x="458" y="1444" on="0"/>
        <pt x="638" y="1387" on="0"/>
        <pt x="771" y="1286" on="0"/>
        <pt x="860" y="1145" on="0"/>
        <pt x="915" y="977" on="0"/>
        <pt x="938" y="786" on="0"/>
      </contour>
      <contour>
        <pt x="496" y="797" on="1"/>
        <pt x="493" y="792" on="0"/>
        <pt x="492" y="733" on="0"/>
        <pt x="492" y="696" on="1"/>
        <pt x="492" y="659" on="0"/>
        <pt x="493" y="592" on="0"/>
        <pt x="496" y="578" on="1"/>
        <pt x="348" y="584" on="1"/>
        <pt x="354" y="111" on="1"/>
        <pt x="374" y="103" on="0"/>
        <pt x="409" y="98" on="0"/>
        <pt x="426" y="98" on="1"/>
        <pt x="493" y="98" on="0"/>
        <pt x="588" y="161" on="0"/>
        <pt x="649" y="306" on="0"/>
        <pt x="678" y="543" on="0"/>
        <pt x="678" y="717" on="1"/>
        <pt x="678" y="894" on="0"/>
        <pt x="645" y="1117" on="0"/>
        <pt x="572" y="1241" on="0"/>
        <pt x="456" y="1286" on="0"/>
        <pt x="373" y="1286" on="1"/>
        <pt x="342" y="1286" on="1"/>
        <pt x="346" y="786" on="1"/>
        <pt x="378" y="788" on="0"/>
        <pt x="433" y="791" on="0"/>
        <pt x="453" y="793" on="1"/>
        <pt x="477" y="795" on="0"/>
      </contour>
    </TTGlyph>
    <TTGlyph name="Euro" xMin="35" yMin="-68" xMax="928" yMax="1157">
      <contour>
        <pt x="680" y="756" on="1"/>
        <pt x="677" y="752" on="0"/>
        <pt x="663" y="704" on="0"/>
        <pt x="649" y="646" on="0"/>
        <pt x="638" y="591" on="0"/>
        <pt x="637" y="580" on="1"/>
        <pt x="594" y="582" on="0"/>
        <pt x="502" y="584" on="0"/>
        <pt x="453" y="584" on="1"/>
        <pt x="453" y="551" on="1"/>
        <pt x="453" y="506" on="1"/>
        <pt x="507" y="508" on="0"/>
        <pt x="597" y="514" on="0"/>
        <pt x="623" y="520" on="1"/>
        <pt x="620" y="516" on="0"/>
        <pt x="606" y="470" on="0"/>
        <pt x="592" y="412" on="0"/>
        <pt x="581" y="358" on="0"/>
        <pt x="580" y="346" on="1"/>
        <pt x="552" y="346" on="0"/>
        <pt x="494" y="348" on="0"/>
        <pt x="465" y="350" on="1"/>
        <pt x="473" y="288" on="0"/>
        <pt x="503" y="182" on="0"/>
        <pt x="548" y="102" on="0"/>
        <pt x="609" y="57" on="0"/>
        <pt x="649" y="57" on="1"/>
        <pt x="683" y="59" on="0"/>
        <pt x="710" y="76" on="1"/>
        <pt x="733" y="90" on="0"/>
        <pt x="775" y="152" on="0"/>
        <pt x="778" y="209" on="1"/>
        <pt x="763" y="203" on="0"/>
        <pt x="748" y="203" on="1"/>
        <pt x="728" y="203" on="0"/>
        <pt x="691" y="220" on="0"/>
        <pt x="663" y="250" on="0"/>
        <pt x="645" y="291" on="0"/>
        <pt x="645" y="315" on="1"/>
        <pt x="645" y="353" on="0"/>
        <pt x="679" y="403" on="0"/>
        <pt x="724" y="432" on="0"/>
        <pt x="767" y="444" on="0"/>
        <pt x="776" y="444" on="1"/>
        <pt x="785" y="444" on="0"/>
        <pt x="835" y="433" on="0"/>
        <pt x="888" y="389" on="0"/>
        <pt x="928" y="302" on="0"/>
        <pt x="928" y="227" on="1"/>
        <pt x="928" y="152" on="0"/>
        <pt x="873" y="41" on="0"/>
        <pt x="789" y="-32" on="0"/>
        <pt x="687" y="-68" on="0"/>
        <pt x="639" y="-68" on="1"/>
        <pt x="574" y="-68" on="0"/>
        <pt x="449" y="-20" on="0"/>
        <pt x="342" y="83" on="0"/>
        <pt x="261" y="243" on="0"/>
        <pt x="240" y="354" on="1"/>
        <pt x="135" y="354" on="1"/>
        <pt x="35" y="354" on="1"/>
        <pt x="46" y="388" on="0"/>
        <pt x="72" y="474" on="0"/>
        <pt x="78" y="520" on="1"/>
        <pt x="109" y="515" on="0"/>
        <pt x="183" y="510" on="0"/>
        <pt x="223" y="508" on="1"/>
        <pt x="223" y="559" on="1"/>
        <pt x="223" y="588" on="1"/>
        <pt x="195" y="588" on="1"/>
        <pt x="94" y="588" on="1"/>
        <pt x="105" y="622" on="0"/>
        <pt x="129" y="708" on="0"/>
        <pt x="135" y="756" on="1"/>
        <pt x="157" y="751" on="0"/>
        <pt x="209" y="745" on="0"/>
        <pt x="238" y="743" on="1"/>
        <pt x="257" y="856" on="0"/>
        <pt x="339" y="1013" on="0"/>
        <pt x="447" y="1112" on="0"/>
        <pt x="570" y="1157" on="0"/>
        <pt x="631" y="1157" on="1"/>
        <pt x="702" y="1157" on="0"/>
        <pt x="806" y="1117" on="0"/>
        <pt x="873" y="1054" on="0"/>
        <pt x="905" y="977" on="0"/>
        <pt x="905" y="940" on="1"/>
        <pt x="905" y="866" on="0"/>
        <pt x="832" y="784" on="0"/>
        <pt x="778" y="784" on="1"/>
        <pt x="756" y="784" on="0"/>
        <pt x="711" y="800" on="0"/>
        <pt x="675" y="830" on="0"/>
        <pt x="653" y="874" on="0"/>
        <pt x="653" y="903" on="1"/>
        <pt x="653" y="918" on="0"/>
        <pt x="657" y="936" on="1"/>
        <pt x="660" y="951" on="0"/>
        <pt x="673" y="988" on="0"/>
        <pt x="686" y="1006" on="1"/>
        <pt x="674" y="1017" on="0"/>
        <pt x="648" y="1030" on="0"/>
        <pt x="637" y="1033" on="1"/>
        <pt x="624" y="1037" on="0"/>
        <pt x="612" y="1038" on="1"/>
        <pt x="577" y="1038" on="0"/>
        <pt x="525" y="991" on="0"/>
        <pt x="489" y="910" on="0"/>
        <pt x="467" y="801" on="0"/>
        <pt x="461" y="739" on="1"/>
        <pt x="530" y="739" on="0"/>
        <pt x="648" y="746" on="0"/>
      </contour>
    </TTGlyph>
    <TTGlyph name="F" xMin="72" yMin="-33" xMax="772" yMax="1447">
      <contour>
        <pt x="772" y="1229" on="1"/>
        <pt x="656" y="1240" on="0"/>
        <pt x="482" y="1247" on="0"/>
        <pt x="420" y="1247" on="1"/>
        <pt x="392" y="1247" on="0"/>
        <pt x="353" y="1247" on="0"/>
        <pt x="336" y="1245" on="1"/>
        <pt x="336" y="852" on="1"/>
        <pt x="405" y="854" on="0"/>
        <pt x="515" y="861" on="0"/>
        <pt x="553" y="866" on="1"/>
        <pt x="598" y="871" on="0"/>
        <pt x="633" y="877" on="1"/>
        <pt x="632" y="870" on="0"/>
        <pt x="632" y="861" on="1"/>
        <pt x="631" y="853" on="0"/>
        <pt x="631" y="831" on="0"/>
        <pt x="631" y="817" on="1"/>
        <pt x="631" y="785" on="0"/>
        <pt x="635" y="696" on="0"/>
        <pt x="641" y="645" on="1"/>
        <pt x="535" y="659" on="0"/>
        <pt x="381" y="666" on="0"/>
        <pt x="338" y="666" on="1"/>
        <pt x="340" y="475" on="0"/>
        <pt x="351" y="210" on="0"/>
        <pt x="357" y="128" on="1"/>
        <pt x="363" y="31" on="0"/>
        <pt x="371" y="-29" on="1"/>
        <pt x="352" y="-26" on="0"/>
        <pt x="302" y="-23" on="0"/>
        <pt x="274" y="-23" on="1"/>
        <pt x="239" y="-23" on="0"/>
        <pt x="167" y="-26" on="0"/>
        <pt x="138" y="-28" on="1"/>
        <pt x="104" y="-31" on="0"/>
        <pt x="72" y="-33" on="1"/>
        <pt x="79" y="34" on="0"/>
        <pt x="90" y="170" on="0"/>
        <pt x="98" y="302" on="0"/>
        <pt x="104" y="424" on="0"/>
        <pt x="106" y="478" on="1"/>
        <pt x="110" y="604" on="0"/>
        <pt x="111" y="719" on="1"/>
        <pt x="110" y="839" on="0"/>
        <pt x="106" y="965" on="1"/>
        <pt x="104" y="1019" on="0"/>
        <pt x="98" y="1138" on="0"/>
        <pt x="90" y="1262" on="0"/>
        <pt x="79" y="1387" on="0"/>
        <pt x="72" y="1446" on="1"/>
        <pt x="197" y="1441" on="0"/>
        <pt x="394" y="1436" on="0"/>
        <pt x="471" y="1436" on="1"/>
        <pt x="547" y="1436" on="0"/>
        <pt x="657" y="1439" on="0"/>
        <pt x="692" y="1441" on="1"/>
        <pt x="733" y="1443" on="0"/>
        <pt x="760" y="1446" on="1"/>
        <pt x="760" y="1447" on="0"/>
        <pt x="760" y="1409" on="0"/>
        <pt x="762" y="1347" on="0"/>
        <pt x="767" y="1269" on="0"/>
      </contour>
    </TTGlyph>
    <TTGlyph name="G" xMin="47" yMin="-66" xMax="915" yMax="1470">
      <contour>
        <pt x="915" y="324" on="1"/>
        <pt x="915" y="250" on="0"/>
        <pt x="870" y="110" on="0"/>
        <pt x="777" y="0" on="0"/>
        <pt x="636" y="-66" on="0"/>
        <pt x="539" y="-66" on="1"/>
        <pt x="441" y="-66" on="0"/>
        <pt x="263" y="33" on="0"/>
        <pt x="128" y="231" on="0"/>
        <pt x="47" y="528" on="0"/>
        <pt x="47" y="727" on="1"/>
        <pt x="47" y="926" on="0"/>
        <pt x="132" y="1208" on="0"/>
        <pt x="272" y="1387" on="0"/>
        <pt x="451" y="1470" on="0"/>
        <pt x="545" y="1470" on="1"/>
        <pt x="639" y="1470" on="0"/>
        <pt x="770" y="1415" on="0"/>
        <pt x="852" y="1331" on="0"/>
        <pt x="889" y="1230" on="0"/>
        <pt x="889" y="1184" on="1"/>
        <pt x="889" y="1138" on="0"/>
        <pt x="862" y="1069" on="0"/>
        <pt x="818" y="1024" on="0"/>
        <pt x="763" y="1001" on="0"/>
        <pt x="735" y="1001" on="1"/>
        <pt x="708" y="1001" on="0"/>
        <pt x="655" y="1015" on="0"/>
        <pt x="615" y="1050" on="0"/>
        <pt x="590" y="1107" on="0"/>
        <pt x="590" y="1149" on="1"/>
        <pt x="591" y="1170" on="0"/>
        <pt x="595" y="1190" on="1"/>
        <pt x="599" y="1207" on="0"/>
        <pt x="616" y="1248" on="0"/>
        <pt x="633" y="1266" on="1"/>
        <pt x="618" y="1283" on="0"/>
        <pt x="582" y="1301" on="0"/>
        <pt x="565" y="1306" on="1"/>
        <pt x="546" y="1311" on="0"/>
        <pt x="526" y="1313" on="1"/>
        <pt x="500" y="1313" on="0"/>
        <pt x="423" y="1243" on="0"/>
        <pt x="351" y="1096" on="0"/>
        <pt x="299" y="869" on="0"/>
        <pt x="299" y="713" on="1"/>
        <pt x="299" y="556" on="0"/>
        <pt x="351" y="319" on="0"/>
        <pt x="429" y="159" on="0"/>
        <pt x="518" y="78" on="0"/>
        <pt x="555" y="78" on="1"/>
        <pt x="629" y="78" on="0"/>
        <pt x="702" y="212" on="0"/>
        <pt x="702" y="352" on="1"/>
        <pt x="702" y="384" on="0"/>
        <pt x="699" y="419" on="1"/>
        <pt x="697" y="448" on="0"/>
        <pt x="687" y="522" on="0"/>
        <pt x="678" y="559" on="1"/>
        <pt x="643" y="554" on="0"/>
        <pt x="539" y="538" on="0"/>
        <pt x="471" y="524" on="1"/>
        <pt x="482" y="569" on="0"/>
        <pt x="489" y="664" on="0"/>
        <pt x="489" y="705" on="1"/>
        <pt x="489" y="725" on="0"/>
        <pt x="488" y="759" on="0"/>
        <pt x="487" y="771" on="1"/>
        <pt x="486" y="785" on="0"/>
        <pt x="485" y="797" on="1"/>
        <pt x="515" y="791" on="0"/>
        <pt x="555" y="787" on="1"/>
        <pt x="589" y="783" on="0"/>
        <pt x="688" y="778" on="0"/>
        <pt x="752" y="778" on="1"/>
        <pt x="786" y="778" on="0"/>
        <pt x="861" y="779" on="0"/>
        <pt x="903" y="782" on="1"/>
        <pt x="897" y="740" on="0"/>
        <pt x="897" y="696" on="1"/>
        <pt x="897" y="658" on="0"/>
        <pt x="903" y="574" on="0"/>
        <pt x="909" y="482" on="0"/>
        <pt x="915" y="381" on="0"/>
      </contour>
    </TTGlyph>
    <TTGlyph name="Gbreve" xMin="47" yMin="-66" xMax="915" yMax="1931">
      <component glyphName="G" x="0" y="0" flags="0x204"/>
      <component glyphName="breve" x="301" y="53" flags="0x4"/>
    </TTGlyph>
    <TTGlyph name="Gcircumflex" xMin="47" yMin="-66" xMax="915" yMax="1923">
      <component glyphName="G" x="0" y="0" flags="0x204"/>
      <component glyphName="circumflex" x="231" y="35" flags="0x4"/>
    </TTGlyph>
    <TTGlyph name="Gcommaaccent" xMin="47" yMin="-439" xMax="915" yMax="1470">
      <component glyphName="G" x="0" y="0" flags="0x204"/>
      <component glyphName="uni0326" x="330" y="-56" flags="0x4"/>
    </TTGlyph>
    <TTGlyph name="Gdotaccent" xMin="47" yMin="-66" xMax="915" yMax="1747">
      <component glyphName="G" x="0" y="0" flags="0x204"/>
      <component glyphName="dotaccent" x="406" y="59" flags="0x4"/>
    </TTGlyph>
    <TTGlyph name="H" xMin="68" yMin="-45" xMax="868" yMax="1450">
      <contour>
        <pt x="346" y="-35" on="1"/>
        <pt x="259" y="-35" on="0"/>
        <pt x="152" y="-38" on="0"/>
        <pt x="121" y="-40" on="1"/>
        <pt x="85" y="-43" on="0"/>
        <pt x="68" y="-45" on="1"/>
        <pt x="76" y="11" on="0"/>
        <pt x="88" y="138" on="0"/>
        <pt x="98" y="270" on="0"/>
        <pt x="104" y="400" on="0"/>
        <pt x="106" y="459" on="1"/>
        <pt x="110" y="598" on="0"/>
        <pt x="111" y="737" on="1"/>
        <pt x="110" y="876" on="0"/>
        <pt x="106" y="1006" on="1"/>
        <pt x="104" y="1061" on="0"/>
        <pt x="98" y="1180" on="0"/>
        <pt x="90" y="1294" on="0"/>
        <pt x="79" y="1398" on="0"/>
        <pt x="72" y="1440" on="1"/>
        <pt x="137" y="1440" on="1"/>
        <pt x="191" y="1440" on="0"/>
        <pt x="269" y="1443" on="0"/>
        <pt x="295" y="1445" on="1"/>
        <pt x="325" y="1447" on="0"/>
        <pt x="346" y="1450" on="1"/>
        <pt x="341" y="1350" on="0"/>
        <pt x="334" y="1148" on="0"/>
        <pt x="330" y="965" on="0"/>
        <pt x="328" y="813" on="0"/>
        <pt x="328" y="762" on="1"/>
        <pt x="360" y="760" on="0"/>
        <pt x="420" y="760" on="0"/>
        <pt x="449" y="760" on="1"/>
        <pt x="512" y="760" on="0"/>
        <pt x="609" y="765" on="0"/>
        <pt x="641" y="768" on="1"/>
        <pt x="641" y="774" on="0"/>
        <pt x="640" y="849" on="0"/>
        <pt x="638" y="963" on="0"/>
        <pt x="633" y="1105" on="0"/>
        <pt x="625" y="1251" on="0"/>
        <pt x="613" y="1388" on="0"/>
        <pt x="604" y="1440" on="1"/>
        <pt x="668" y="1440" on="1"/>
        <pt x="719" y="1440" on="0"/>
        <pt x="794" y="1443" on="0"/>
        <pt x="819" y="1445" on="1"/>
        <pt x="848" y="1447" on="0"/>
        <pt x="868" y="1450" on="1"/>
        <pt x="865" y="1385" on="0"/>
        <pt x="860" y="1252" on="0"/>
        <pt x="857" y="1123" on="0"/>
        <pt x="855" y="1002" on="0"/>
        <pt x="854" y="948" on="1"/>
        <pt x="852" y="822" on="0"/>
        <pt x="852" y="705" on="1"/>
        <pt x="852" y="589" on="0"/>
        <pt x="854" y="469" on="1"/>
        <pt x="855" y="418" on="0"/>
        <pt x="857" y="305" on="0"/>
        <pt x="860" y="188" on="0"/>
        <pt x="865" y="72" on="0"/>
        <pt x="868" y="18" on="1"/>
        <pt x="784" y="18" on="0"/>
        <pt x="680" y="15" on="0"/>
        <pt x="651" y="13" on="1"/>
        <pt x="617" y="10" on="0"/>
        <pt x="600" y="8" on="1"/>
        <pt x="609" y="69" on="0"/>
        <pt x="621" y="207" on="0"/>
        <pt x="630" y="349" on="0"/>
        <pt x="635" y="487" on="0"/>
        <pt x="637" y="547" on="1"/>
        <pt x="589" y="552" on="0"/>
        <pt x="501" y="555" on="0"/>
        <pt x="461" y="555" on="1"/>
        <pt x="419" y="555" on="0"/>
        <pt x="352" y="553" on="0"/>
        <pt x="328" y="551" on="1"/>
        <pt x="328" y="497" on="0"/>
        <pt x="330" y="355" on="0"/>
        <pt x="335" y="200" on="0"/>
        <pt x="341" y="39" on="0"/>
      </contour>
    </TTGlyph>
    <TTGlyph name="Hbar" xMin="4" yMin="-45" xMax="940" yMax="1450">
      <contour>
        <pt x="940" y="1067" on="1"/>
        <pt x="938" y="1062" on="0"/>
        <pt x="938" y="1007" on="0"/>
        <pt x="938" y="973" on="1"/>
        <pt x="938" y="936" on="0"/>
        <pt x="938" y="870" on="0"/>
        <pt x="940" y="856" on="1"/>
        <pt x="923" y="856" on="0"/>
        <pt x="878" y="858" on="0"/>
        <pt x="852" y="860" on="1"/>
        <pt x="852" y="705" on="1"/>
        <pt x="852" y="589" on="0"/>
        <pt x="854" y="469" on="1"/>
        <pt x="855" y="418" on="0"/>
        <pt x="857" y="305" on="0"/>
        <pt x="860" y="188" on="0"/>
        <pt x="865" y="72" on="0"/>
        <pt x="868" y="18" on="1"/>
        <pt x="784" y="18" on="0"/>
        <pt x="680" y="15" on="0"/>
        <pt x="651" y="13" on="1"/>
        <pt x="617" y="10" on="0"/>
        <pt x="600" y="8" on="1"/>
        <pt x="609" y="69" on="0"/>
        <pt x="621" y="207" on="0"/>
        <pt x="630" y="349" on="0"/>
        <pt x="635" y="487" on="0"/>
        <pt x="637" y="547" on="1"/>
        <pt x="589" y="552" on="0"/>
        <pt x="501" y="555" on="0"/>
        <pt x="461" y="555" on="1"/>
        <pt x="419" y="555" on="0"/>
        <pt x="352" y="553" on="0"/>
        <pt x="328" y="551" on="1"/>
        <pt x="328" y="497" on="0"/>
        <pt x="330" y="355" on="0"/>
        <pt x="335" y="200" on="0"/>
        <pt x="341" y="39" on="0"/>
        <pt x="346" y="-35" on="1"/>
        <pt x="259" y="-35" on="0"/>
        <pt x="152" y="-38" on="0"/>
        <pt x="121" y="-40" on="1"/>
        <pt x="85" y="-43" on="0"/>
        <pt x="68" y="-45" on="1"/>
        <pt x="76" y="11" on="0"/>
        <pt x="88" y="138" on="0"/>
        <pt x="98" y="270" on="0"/>
        <pt x="104" y="400" on="0"/>
        <pt x="106" y="459" on="1"/>
        <pt x="110" y="598" on="0"/>
        <pt x="111" y="737" on="1"/>
        <pt x="111" y="772" on="1"/>
        <pt x="111" y="789" on="0"/>
        <pt x="110" y="837" on="0"/>
        <pt x="109" y="866" on="1"/>
        <pt x="4" y="866" on="1"/>
        <pt x="6" y="891" on="0"/>
        <pt x="8" y="951" on="0"/>
        <pt x="8" y="983" on="1"/>
        <pt x="8" y="1003" on="0"/>
        <pt x="6" y="1045" on="0"/>
        <pt x="4" y="1067" on="1"/>
        <pt x="21" y="1064" on="0"/>
        <pt x="72" y="1059" on="0"/>
        <pt x="104" y="1057" on="1"/>
        <pt x="102" y="1108" on="0"/>
        <pt x="96" y="1212" on="0"/>
        <pt x="88" y="1312" on="0"/>
        <pt x="78" y="1403" on="0"/>
        <pt x="72" y="1440" on="1"/>
        <pt x="137" y="1440" on="1"/>
        <pt x="191" y="1440" on="0"/>
        <pt x="269" y="1443" on="0"/>
        <pt x="295" y="1445" on="1"/>
        <pt x="325" y="1447" on="0"/>
        <pt x="346" y="1450" on="1"/>
        <pt x="340" y="1347" on="0"/>
        <pt x="333" y="1143" on="0"/>
        <pt x="330" y="1049" on="1"/>
        <pt x="502" y="1049" on="1"/>
        <pt x="635" y="1049" on="1"/>
        <pt x="633" y="1100" on="0"/>
        <pt x="627" y="1206" on="0"/>
        <pt x="620" y="1308" on="0"/>
        <pt x="610" y="1402" on="0"/>
        <pt x="604" y="1440" on="1"/>
        <pt x="668" y="1440" on="1"/>
        <pt x="719" y="1440" on="0"/>
        <pt x="794" y="1443" on="0"/>
        <pt x="819" y="1445" on="1"/>
        <pt x="848" y="1447" on="0"/>
        <pt x="868" y="1450" on="1"/>
        <pt x="863" y="1350" on="0"/>
        <pt x="856" y="1148" on="0"/>
        <pt x="854" y="1057" on="1"/>
        <pt x="885" y="1059" on="0"/>
        <pt x="929" y="1064" on="0"/>
      </contour>
      <contour>
        <pt x="328" y="762" on="1"/>
        <pt x="360" y="760" on="0"/>
        <pt x="420" y="760" on="0"/>
        <pt x="449" y="760" on="1"/>
        <pt x="512" y="760" on="0"/>
        <pt x="609" y="765" on="0"/>
        <pt x="641" y="768" on="1"/>
        <pt x="641" y="773" on="0"/>
        <pt x="641" y="824" on="0"/>
        <pt x="639" y="864" on="1"/>
        <pt x="564" y="864" on="0"/>
        <pt x="405" y="866" on="0"/>
        <pt x="328" y="866" on="1"/>
      </contour>
    </TTGlyph>
    <TTGlyph name="Hcircumflex" xMin="68" yMin="-45" xMax="868" yMax="1900">
      <component glyphName="H" x="0" y="0" flags="0x204"/>
      <component glyphName="circumflex" x="223" y="12" flags="0x4"/>
    </TTGlyph>
    <TTGlyph name="I" xMin="80" yMin="-37" xMax="354" yMax="1448">
      <contour>
        <pt x="354" y="-10" on="1"/>
        <pt x="90" y="-37" on="1"/>
        <pt x="92" y="30" on="0"/>
        <pt x="95" y="175" on="0"/>
        <pt x="97" y="319" on="0"/>
        <pt x="99" y="458" on="0"/>
        <pt x="99" y="520" on="1"/>
        <pt x="100" y="666" on="0"/>
        <pt x="100" y="807" on="1"/>
        <pt x="99" y="933" on="0"/>
        <pt x="97" y="1051" on="1"/>
        <pt x="96" y="1101" on="0"/>
        <pt x="93" y="1207" on="0"/>
        <pt x="89" y="1309" on="0"/>
        <pt x="84" y="1400" on="0"/>
        <pt x="80" y="1436" on="1"/>
        <pt x="332" y="1448" on="1"/>
        <pt x="330" y="1386" on="0"/>
        <pt x="327" y="1255" on="0"/>
        <pt x="325" y="1126" on="0"/>
        <pt x="324" y="1006" on="0"/>
        <pt x="324" y="954" on="1"/>
        <pt x="324" y="693" on="0"/>
        <pt x="337" y="220" on="0"/>
      </contour>
    </TTGlyph>
    <TTGlyph name="IJ" xMin="80" yMin="-66" xMax="1243" yMax="1448">
      <component glyphName="I" x="0" y="0" flags="0x4"/>
      <component glyphName="J" x="428" y="0" flags="0x4"/>
    </TTGlyph>
    <TTGlyph name="Iacute" xMin="80" yMin="-37" xMax="522" yMax="1919">
      <component glyphName="I" x="0" y="0" flags="0x204"/>
      <component glyphName="acute" x="164" y="37" flags="0x4"/>
    </TTGlyph>
    <TTGlyph name="Ibreve" xMin="-5" yMin="-37" xMax="435" yMax="1909">
      <component glyphName="I" x="0" y="0" flags="0x204"/>
      <component glyphName="breve" x="-7" y="31" flags="0x4"/>
    </TTGlyph>
    <TTGlyph name="Icircumflex" xMin="-42" yMin="-37" xMax="462" yMax="1900">
      <component glyphName="I" x="0" y="0" flags="0x204"/>
      <component glyphName="circumflex" x="-42" y="12" flags="0x4"/>
    </TTGlyph>
    <TTGlyph name="Idieresis" xMin="-24" yMin="-37" xMax="459" yMax="1711">
      <component glyphName="I" x="0" y="0" flags="0x204"/>
      <component glyphName="dieresis" x="-24" y="23" flags="0x4"/>
    </TTGlyph>
    <TTGlyph name="Idotaccent" xMin="80" yMin="-37" xMax="354" yMax="1708">
      <component glyphName="I" x="0" y="0" flags="0x204"/>
      <component glyphName="dotaccent" x="100" y="20" flags="0x4"/>
    </TTGlyph>
    <TTGlyph name="Igrave" xMin="-114" yMin="-37" xMax="354" yMax="1917">
      <component glyphName="I" x="0" y="0" flags="0x204"/>
      <component glyphName="grave" x="-114" y="35" flags="0x4"/>
    </TTGlyph>
    <TTGlyph name="Imacron" xMin="-19" yMin="-37" xMax="450" yMax="1696">
      <component glyphName="I" x="0" y="0" flags="0x204"/>
      <component glyphName="macron" x="-19" y="-22" flags="0x4"/>
    </TTGlyph>
    <TTGlyph name="Iogonek" xMin="76" yMin="-354" xMax="397" yMax="1448">
      <contour>
        <pt x="397" y="-260" on="1"/>
        <pt x="349" y="-307" on="0"/>
        <pt x="264" y="-354" on="0"/>
        <pt x="211" y="-354" on="1"/>
        <pt x="181" y="-354" on="0"/>
        <pt x="131" y="-330" on="0"/>
        <pt x="96" y="-290" on="0"/>
        <pt x="76" y="-238" on="0"/>
        <pt x="76" y="-209" on="1"/>
        <pt x="76" y="-178" on="0"/>
        <pt x="105" y="-85" on="0"/>
        <pt x="150" y="-31" on="1"/>
        <pt x="90" y="-37" on="1"/>
        <pt x="92" y="30" on="0"/>
        <pt x="95" y="175" on="0"/>
        <pt x="97" y="319" on="0"/>
        <pt x="99" y="458" on="0"/>
        <pt x="99" y="520" on="1"/>
        <pt x="100" y="666" on="0"/>
        <pt x="100" y="807" on="1"/>
        <pt x="99" y="933" on="0"/>
        <pt x="97" y="1051" on="1"/>
        <pt x="96" y="1101" on="0"/>
        <pt x="93" y="1207" on="0"/>
        <pt x="89" y="1309" on="0"/>
        <pt x="84" y="1400" on="0"/>
        <pt x="80" y="1436" on="1"/>
        <pt x="332" y="1448" on="1"/>
        <pt x="330" y="1386" on="0"/>
        <pt x="327" y="1255" on="0"/>
        <pt x="325" y="1126" on="0"/>
        <pt x="324" y="1006" on="0"/>
        <pt x="324" y="954" on="1"/>
        <pt x="324" y="693" on="0"/>
        <pt x="337" y="220" on="0"/>
        <pt x="354" y="-10" on="1"/>
        <pt x="266" y="-18" on="1"/>
        <pt x="253" y="-34" on="0"/>
        <pt x="226" y="-73" on="0"/>
        <pt x="204" y="-115" on="0"/>
        <pt x="190" y="-160" on="0"/>
        <pt x="190" y="-182" on="1"/>
        <pt x="190" y="-199" on="0"/>
        <pt x="212" y="-217" on="0"/>
        <pt x="227" y="-217" on="1"/>
        <pt x="256" y="-217" on="0"/>
        <pt x="299" y="-177" on="0"/>
        <pt x="317" y="-156" on="1"/>
      </contour>
    </TTGlyph>
    <TTGlyph name="Itilde" xMin="-79" yMin="-37" xMax="511" yMax="1783">
      <component glyphName="I" x="0" y="0" flags="0x204"/>
      <component glyphName="tilde" x="-79" y="-11" flags="0x4"/>
    </TTGlyph>
    <TTGlyph name="J" xMin="10" yMin="-66" xMax="815" yMax="1436">
      <contour>
        <pt x="815" y="1436" on="1"/>
        <pt x="807" y="1327" on="0"/>
        <pt x="797" y="1163" on="0"/>
        <pt x="792" y="1036" on="0"/>
        <pt x="791" y="938" on="0"/>
        <pt x="793" y="850" on="0"/>
        <pt x="797" y="763" on="0"/>
        <pt x="800" y="661" on="0"/>
        <pt x="803" y="534" on="0"/>
        <pt x="803" y="449" on="1"/>
        <pt x="803" y="349" on="0"/>
        <pt x="763" y="163" on="0"/>
        <pt x="667" y="20" on="0"/>
        <pt x="505" y="-66" on="0"/>
        <pt x="383" y="-66" on="1"/>
        <pt x="311" y="-66" on="0"/>
        <pt x="200" y="-32" on="0"/>
        <pt x="117" y="26" on="0"/>
        <pt x="60" y="104" on="0"/>
        <pt x="25" y="191" on="0"/>
        <pt x="10" y="282" on="0"/>
        <pt x="10" y="324" on="1"/>
        <pt x="10" y="380" on="0"/>
        <pt x="47" y="454" on="0"/>
        <pt x="100" y="498" on="0"/>
        <pt x="157" y="516" on="0"/>
        <pt x="178" y="516" on="1"/>
        <pt x="200" y="516" on="0"/>
        <pt x="259" y="499" on="0"/>
        <pt x="313" y="458" on="0"/>
        <pt x="350" y="392" on="0"/>
        <pt x="350" y="344" on="1"/>
        <pt x="348" y="307" on="0"/>
        <pt x="334" y="275" on="1"/>
        <pt x="322" y="248" on="0"/>
        <pt x="271" y="195" on="0"/>
        <pt x="223" y="184" on="1"/>
        <pt x="241" y="155" on="0"/>
        <pt x="286" y="120" on="0"/>
        <pt x="333" y="102" on="0"/>
        <pt x="375" y="96" on="0"/>
        <pt x="389" y="96" on="1"/>
        <pt x="442" y="96" on="0"/>
        <pt x="506" y="139" on="0"/>
        <pt x="540" y="216" on="0"/>
        <pt x="551" y="319" on="0"/>
        <pt x="551" y="379" on="1"/>
        <pt x="551" y="515" on="0"/>
        <pt x="550" y="782" on="0"/>
        <pt x="544" y="1044" on="0"/>
        <pt x="530" y="1304" on="0"/>
        <pt x="516" y="1432" on="1"/>
        <pt x="527" y="1430" on="0"/>
        <pt x="544" y="1428" on="1"/>
        <pt x="571" y="1425" on="0"/>
        <pt x="627" y="1425" on="1"/>
        <pt x="662" y="1425" on="0"/>
        <pt x="756" y="1429" on="0"/>
      </contour>
    </TTGlyph>
    <TTGlyph name="Jcircumflex" xMin="10" yMin="-66" xMax="901" yMax="1890">
      <component glyphName="J" x="0" y="0" flags="0x204"/>
      <component glyphName="circumflex" x="397" y="2" flags="0x4"/>
    </TTGlyph>
    <TTGlyph name="K" xMin="72" yMin="-41" xMax="956" yMax="1466">
      <contour>
        <pt x="362" y="-35" on="1"/>
        <pt x="339" y="-35" on="0"/>
        <pt x="296" y="-33" on="0"/>
        <pt x="274" y="-33" on="1"/>
        <pt x="232" y="-33" on="0"/>
        <pt x="158" y="-35" on="0"/>
        <pt x="131" y="-37" on="1"/>
        <pt x="98" y="-39" on="0"/>
        <pt x="72" y="-41" on="1"/>
        <pt x="86" y="109" on="0"/>
        <pt x="102" y="393" on="0"/>
        <pt x="106" y="505" on="1"/>
        <pt x="110" y="635" on="0"/>
        <pt x="111" y="752" on="1"/>
        <pt x="111" y="866" on="0"/>
        <pt x="107" y="985" on="1"/>
        <pt x="105" y="1036" on="0"/>
        <pt x="100" y="1149" on="0"/>
        <pt x="93" y="1266" on="0"/>
        <pt x="82" y="1384" on="0"/>
        <pt x="76" y="1440" on="1"/>
        <pt x="118" y="1437" on="0"/>
        <pt x="190" y="1436" on="0"/>
        <pt x="221" y="1436" on="1"/>
        <pt x="253" y="1436" on="0"/>
        <pt x="305" y="1437" on="0"/>
        <pt x="323" y="1438" on="1"/>
        <pt x="344" y="1439" on="0"/>
        <pt x="360" y="1440" on="1"/>
        <pt x="351" y="1315" on="0"/>
        <pt x="341" y="1075" on="0"/>
        <pt x="339" y="979" on="1"/>
        <pt x="336" y="867" on="0"/>
        <pt x="336" y="766" on="1"/>
        <pt x="336" y="705" on="1"/>
        <pt x="398" y="781" on="0"/>
        <pt x="501" y="957" on="0"/>
        <pt x="575" y="1146" on="0"/>
        <pt x="616" y="1340" on="0"/>
        <pt x="616" y="1434" on="1"/>
        <pt x="616" y="1466" on="1"/>
        <pt x="956" y="1436" on="1"/>
        <pt x="868" y="1281" on="0"/>
        <pt x="738" y="1044" on="0"/>
        <pt x="645" y="872" on="0"/>
        <pt x="587" y="758" on="0"/>
        <pt x="571" y="725" on="1"/>
        <pt x="642" y="706" on="0"/>
        <pt x="729" y="639" on="0"/>
        <pt x="779" y="551" on="0"/>
        <pt x="800" y="446" on="0"/>
        <pt x="812" y="334" on="0"/>
        <pt x="823" y="220" on="0"/>
        <pt x="838" y="166" on="1"/>
        <pt x="846" y="135" on="0"/>
        <pt x="861" y="102" on="1"/>
        <pt x="874" y="73" on="0"/>
        <pt x="916" y="2" on="0"/>
        <pt x="948" y="-35" on="1"/>
        <pt x="666" y="-41" on="1"/>
        <pt x="643" y="-18" on="0"/>
        <pt x="614" y="58" on="0"/>
        <pt x="606" y="95" on="1"/>
        <pt x="596" y="138" on="0"/>
        <pt x="592" y="186" on="1"/>
        <pt x="587" y="241" on="0"/>
        <pt x="584" y="346" on="0"/>
        <pt x="575" y="440" on="0"/>
        <pt x="555" y="519" on="0"/>
        <pt x="511" y="576" on="0"/>
        <pt x="438" y="608" on="0"/>
        <pt x="381" y="608" on="1"/>
        <pt x="370" y="608" on="0"/>
        <pt x="348" y="606" on="0"/>
        <pt x="336" y="604" on="1"/>
        <pt x="339" y="496" on="0"/>
        <pt x="350" y="167" on="0"/>
      </contour>
    </TTGlyph>
    <TTGlyph name="Kcommaaccent" xMin="72" yMin="-383" xMax="956" yMax="1466">
      <component glyphName="K" x="0" y="0" flags="0x204"/>
      <component glyphName="uni0326" x="285" y="0" flags="0x4"/>
    </TTGlyph>
    <TTGlyph name="L" xMin="70" yMin="-74" xMax="762" yMax="1440">
      <contour>
        <pt x="762" y="-63" on="1"/>
        <pt x="690" y="-61" on="0"/>
        <pt x="562" y="-61" on="0"/>
        <pt x="506" y="-61" on="1"/>
        <pt x="392" y="-61" on="0"/>
        <pt x="229" y="-66" on="0"/>
        <pt x="175" y="-68" on="1"/>
        <pt x="113" y="-71" on="0"/>
        <pt x="70" y="-74" on="1"/>
        <pt x="77" y="-7" on="0"/>
        <pt x="88" y="131" on="0"/>
        <pt x="96" y="265" on="0"/>
        <pt x="102" y="391" on="0"/>
        <pt x="104" y="447" on="1"/>
        <pt x="108" y="577" on="0"/>
        <pt x="109" y="698" on="1"/>
        <pt x="108" y="818" on="0"/>
        <pt x="104" y="944" on="1"/>
        <pt x="102" y="998" on="0"/>
        <pt x="96" y="1117" on="0"/>
        <pt x="88" y="1241" on="0"/>
        <pt x="77" y="1366" on="0"/>
        <pt x="70" y="1425" on="1"/>
        <pt x="365" y="1440" on="1"/>
        <pt x="346" y="1214" on="0"/>
        <pt x="332" y="795" on="0"/>
        <pt x="332" y="618" on="1"/>
        <pt x="332" y="448" on="0"/>
        <pt x="339" y="206" on="0"/>
        <pt x="342" y="143" on="1"/>
        <pt x="346" y="143" on="1"/>
        <pt x="424" y="143" on="0"/>
        <pt x="573" y="167" on="0"/>
        <pt x="632" y="182" on="1"/>
        <pt x="701" y="199" on="0"/>
        <pt x="762" y="221" on="1"/>
        <pt x="761" y="210" on="0"/>
        <pt x="761" y="193" on="1"/>
        <pt x="760" y="179" on="0"/>
        <pt x="760" y="134" on="0"/>
        <pt x="760" y="102" on="1"/>
        <pt x="760" y="70" on="0"/>
        <pt x="760" y="-11" on="0"/>
      </contour>
    </TTGlyph>
    <TTGlyph name="Lacute" xMin="70" yMin="-74" xMax="762" yMax="1907">
      <component glyphName="L" x="0" y="0" flags="0x204"/>
      <component glyphName="acute" x="156" y="25" flags="0x4"/>
    </TTGlyph>
    <TTGlyph name="Lcaron" xMin="70" yMin="-74" xMax="762" yMax="1486">
      <component glyphName="L" x="0" y="0" flags="0x204"/>
      <component glyphName="uni0315" x="371" y="16" flags="0x4"/>
    </TTGlyph>
    <TTGlyph name="Lcommaaccent" xMin="70" yMin="-421" xMax="762" yMax="1440">
      <component glyphName="L" x="0" y="0" flags="0x204"/>
      <component glyphName="uni0326" x="205" y="-38" flags="0x4"/>
    </TTGlyph>
    <TTGlyph name="Ldot" xMin="70" yMin="-74" xMax="938" yMax="1440">
      <component glyphName="L" x="0" y="0" flags="0x4"/>
      <component glyphName="periodcentered" x="608" y="0" flags="0x4"/>
    </TTGlyph>
    <TTGlyph name="Lslash" xMin="-14" yMin="-74" xMax="776" yMax="1440">
      <contour>
        <pt x="483" y="879" on="1"/>
        <pt x="480" y="872" on="0"/>
        <pt x="479" y="813" on="0"/>
        <pt x="479" y="776" on="1"/>
        <pt x="479" y="741" on="0"/>
        <pt x="480" y="673" on="0"/>
        <pt x="483" y="659" on="1"/>
        <pt x="443" y="645" on="0"/>
        <pt x="375" y="625" on="0"/>
        <pt x="346" y="614" on="1"/>
        <pt x="346" y="446" on="0"/>
        <pt x="353" y="206" on="0"/>
        <pt x="356" y="143" on="1"/>
        <pt x="360" y="143" on="1"/>
        <pt x="438" y="143" on="0"/>
        <pt x="587" y="167" on="0"/>
        <pt x="646" y="182" on="1"/>
        <pt x="715" y="199" on="0"/>
        <pt x="776" y="221" on="1"/>
        <pt x="775" y="210" on="0"/>
        <pt x="775" y="193" on="1"/>
        <pt x="774" y="179" on="0"/>
        <pt x="774" y="134" on="0"/>
        <pt x="774" y="102" on="1"/>
        <pt x="774" y="70" on="0"/>
        <pt x="774" y="-11" on="0"/>
        <pt x="776" y="-63" on="1"/>
        <pt x="704" y="-61" on="0"/>
        <pt x="576" y="-61" on="0"/>
        <pt x="520" y="-61" on="1"/>
        <pt x="406" y="-61" on="0"/>
        <pt x="243" y="-66" on="0"/>
        <pt x="189" y="-68" on="1"/>
        <pt x="127" y="-71" on="0"/>
        <pt x="84" y="-74" on="1"/>
        <pt x="92" y="8" on="0"/>
        <pt x="105" y="176" on="0"/>
        <pt x="114" y="335" on="0"/>
        <pt x="119" y="479" on="0"/>
        <pt x="121" y="537" on="1"/>
        <pt x="-14" y="487" on="1"/>
        <pt x="-12" y="513" on="0"/>
        <pt x="-8" y="574" on="0"/>
        <pt x="-8" y="606" on="1"/>
        <pt x="-8" y="651" on="0"/>
        <pt x="-14" y="696" on="1"/>
        <pt x="18" y="704" on="0"/>
        <pt x="88" y="724" on="0"/>
        <pt x="123" y="735" on="1"/>
        <pt x="122" y="771" on="0"/>
        <pt x="119" y="920" on="0"/>
        <pt x="111" y="1111" on="0"/>
        <pt x="96" y="1324" on="0"/>
        <pt x="84" y="1425" on="1"/>
        <pt x="379" y="1440" on="1"/>
        <pt x="365" y="1275" on="0"/>
        <pt x="351" y="963" on="0"/>
        <pt x="348" y="819" on="1"/>
        <pt x="378" y="831" on="0"/>
        <pt x="427" y="853" on="0"/>
        <pt x="445" y="861" on="1"/>
        <pt x="466" y="871" on="0"/>
      </contour>
    </TTGlyph>
    <TTGlyph name="M" xMin="57" yMin="-45" xMax="1182" yMax="1446">
      <contour>
        <pt x="1182" y="-25" on="1"/>
        <pt x="907" y="-45" on="1"/>
        <pt x="916" y="87" on="0"/>
        <pt x="927" y="307" on="0"/>
        <pt x="929" y="388" on="1"/>
        <pt x="932" y="482" on="0"/>
        <pt x="932" y="559" on="1"/>
        <pt x="932" y="595" on="0"/>
        <pt x="931" y="640" on="1"/>
        <pt x="930" y="678" on="0"/>
        <pt x="927" y="784" on="0"/>
        <pt x="924" y="848" on="1"/>
        <pt x="898" y="727" on="0"/>
        <pt x="859" y="552" on="0"/>
        <pt x="847" y="495" on="1"/>
        <pt x="832" y="428" on="0"/>
        <pt x="823" y="383" on="1"/>
        <pt x="809" y="322" on="0"/>
        <pt x="798" y="261" on="1"/>
        <pt x="788" y="209" on="0"/>
        <pt x="770" y="91" on="0"/>
        <pt x="766" y="43" on="1"/>
        <pt x="510" y="45" on="1"/>
        <pt x="489" y="175" on="0"/>
        <pt x="446" y="414" on="0"/>
        <pt x="401" y="637" on="0"/>
        <pt x="354" y="848" on="0"/>
        <pt x="328" y="952" on="1"/>
        <pt x="323" y="852" on="0"/>
        <pt x="319" y="690" on="0"/>
        <pt x="319" y="631" on="1"/>
        <pt x="319" y="461" on="0"/>
        <pt x="337" y="157" on="0"/>
        <pt x="352" y="8" on="1"/>
        <pt x="57" y="0" on="1"/>
        <pt x="64" y="72" on="0"/>
        <pt x="74" y="239" on="0"/>
        <pt x="81" y="410" on="0"/>
        <pt x="85" y="575" on="0"/>
        <pt x="87" y="719" on="0"/>
        <pt x="88" y="831" on="0"/>
        <pt x="88" y="862" on="1"/>
        <pt x="88" y="918" on="0"/>
        <pt x="87" y="1062" on="0"/>
        <pt x="84" y="1213" on="0"/>
        <pt x="80" y="1358" on="0"/>
        <pt x="76" y="1415" on="1"/>
        <pt x="124" y="1413" on="0"/>
        <pt x="210" y="1411" on="0"/>
        <pt x="248" y="1411" on="1"/>
        <pt x="345" y="1411" on="0"/>
        <pt x="399" y="1414" on="1"/>
        <pt x="431" y="1415" on="0"/>
        <pt x="455" y="1417" on="1"/>
        <pt x="469" y="1290" on="0"/>
        <pt x="502" y="1049" on="0"/>
        <pt x="542" y="817" on="0"/>
        <pt x="589" y="590" on="0"/>
        <pt x="616" y="477" on="1"/>
        <pt x="652" y="604" on="0"/>
        <pt x="718" y="848" on="0"/>
        <pt x="772" y="1086" on="0"/>
        <pt x="812" y="1320" on="0"/>
        <pt x="823" y="1436" on="1"/>
        <pt x="860" y="1434" on="0"/>
        <pt x="924" y="1432" on="0"/>
        <pt x="952" y="1432" on="1"/>
        <pt x="1009" y="1432" on="0"/>
        <pt x="1088" y="1436" on="0"/>
        <pt x="1114" y="1439" on="1"/>
        <pt x="1144" y="1442" on="0"/>
        <pt x="1163" y="1446" on="1"/>
        <pt x="1155" y="1341" on="0"/>
        <pt x="1145" y="1135" on="0"/>
        <pt x="1140" y="949" on="0"/>
        <pt x="1139" y="794" on="0"/>
        <pt x="1139" y="741" on="1"/>
        <pt x="1139" y="719" on="0"/>
        <pt x="1140" y="627" on="0"/>
        <pt x="1144" y="502" on="0"/>
        <pt x="1150" y="354" on="0"/>
        <pt x="1159" y="198" on="0"/>
        <pt x="1173" y="44" on="0"/>
      </contour>
    </TTGlyph>
    <TTGlyph name="N" xMin="78" yMin="-2" xMax="950" yMax="1468">
      <contour>
        <pt x="950" y="1468" on="1"/>
        <pt x="945" y="1387" on="0"/>
        <pt x="938" y="1212" on="0"/>
        <pt x="933" y="1036" on="0"/>
        <pt x="930" y="866" on="0"/>
        <pt x="928" y="716" on="0"/>
        <pt x="928" y="592" on="0"/>
        <pt x="928" y="549" on="1"/>
        <pt x="928" y="493" on="0"/>
        <pt x="928" y="357" on="0"/>
        <pt x="930" y="213" on="0"/>
        <pt x="933" y="68" on="0"/>
        <pt x="936" y="4" on="1"/>
        <pt x="893" y="6" on="0"/>
        <pt x="822" y="6" on="0"/>
        <pt x="793" y="6" on="1"/>
        <pt x="741" y="6" on="0"/>
        <pt x="673" y="4" on="0"/>
        <pt x="653" y="2" on="1"/>
        <pt x="629" y="0" on="0"/>
        <pt x="616" y="-2" on="1"/>
        <pt x="613" y="19" on="0"/>
        <pt x="594" y="108" on="0"/>
        <pt x="565" y="230" on="0"/>
        <pt x="527" y="378" on="0"/>
        <pt x="484" y="538" on="0"/>
        <pt x="438" y="703" on="0"/>
        <pt x="393" y="860" on="0"/>
        <pt x="350" y="1001" on="0"/>
        <pt x="332" y="1057" on="1"/>
        <pt x="324" y="929" on="0"/>
        <pt x="316" y="712" on="0"/>
        <pt x="314" y="631" on="1"/>
        <pt x="311" y="537" on="0"/>
        <pt x="311" y="459" on="1"/>
        <pt x="311" y="392" on="0"/>
        <pt x="314" y="317" on="1"/>
        <pt x="316" y="253" on="0"/>
        <pt x="327" y="89" on="0"/>
        <pt x="338" y="4" on="1"/>
        <pt x="261" y="7" on="0"/>
        <pt x="162" y="8" on="0"/>
        <pt x="133" y="8" on="1"/>
        <pt x="84" y="8" on="1"/>
        <pt x="89" y="187" on="0"/>
        <pt x="95" y="437" on="0"/>
        <pt x="98" y="606" on="0"/>
        <pt x="99" y="708" on="0"/>
        <pt x="99" y="771" on="0"/>
        <pt x="98" y="809" on="0"/>
        <pt x="98" y="829" on="1"/>
        <pt x="98" y="879" on="0"/>
        <pt x="97" y="1017" on="0"/>
        <pt x="93" y="1176" on="0"/>
        <pt x="85" y="1348" on="0"/>
        <pt x="78" y="1432" on="1"/>
        <pt x="180" y="1432" on="0"/>
        <pt x="312" y="1436" on="0"/>
        <pt x="351" y="1438" on="1"/>
        <pt x="397" y="1441" on="0"/>
        <pt x="422" y="1444" on="1"/>
        <pt x="427" y="1412" on="0"/>
        <pt x="458" y="1276" on="0"/>
        <pt x="501" y="1097" on="0"/>
        <pt x="555" y="889" on="0"/>
        <pt x="612" y="678" on="0"/>
        <pt x="670" y="479" on="0"/>
        <pt x="696" y="399" on="1"/>
        <pt x="701" y="484" on="0"/>
        <pt x="706" y="661" on="0"/>
        <pt x="709" y="815" on="0"/>
        <pt x="709" y="930" on="0"/>
        <pt x="709" y="952" on="1"/>
        <pt x="708" y="1043" on="0"/>
        <pt x="705" y="1134" on="1"/>
        <pt x="704" y="1173" on="0"/>
        <pt x="700" y="1257" on="0"/>
        <pt x="695" y="1342" on="0"/>
        <pt x="688" y="1424" on="0"/>
        <pt x="684" y="1460" on="1"/>
      </contour>
    </TTGlyph>
    <TTGlyph name="Nacute" xMin="78" yMin="-2" xMax="950" yMax="1888">
      <component glyphName="N" x="0" y="0" flags="0x204"/>
      <component glyphName="acute" x="438" y="6" flags="0x4"/>
    </TTGlyph>
    <TTGlyph name="Ncaron" xMin="78" yMin="-2" xMax="950" yMax="1908">
      <component glyphName="N" x="0" y="0" flags="0x204"/>
      <component glyphName="caron" x="262" y="20" flags="0x4"/>
    </TTGlyph>
    <TTGlyph name="Ncommaaccent" xMin="78" yMin="-383" xMax="950" yMax="1468">
      <component glyphName="N" x="0" y="0" flags="0x204"/>
      <component glyphName="uni0326" x="326" y="0" flags="0x4"/>
    </TTGlyph>
    <TTGlyph name="Ntilde" xMin="78" yMin="-2" xMax="950" yMax="1827">
      <component glyphName="N" x="0" y="0" flags="0x204"/>
      <component glyphName="tilde" x="219" y="33" flags="0x4"/>
    </TTGlyph>
    <TTGlyph name="O" xMin="49" yMin="-53" xMax="983" yMax="1485">
      <contour>
        <pt x="983" y="717" on="1"/>
        <pt x="983" y="557" on="0"/>
        <pt x="923" y="277" on="0"/>
        <pt x="805" y="68" on="0"/>
        <pt x="630" y="-53" on="0"/>
        <pt x="516" y="-53" on="1"/>
        <pt x="400" y="-53" on="0"/>
        <pt x="225" y="68" on="0"/>
        <pt x="108" y="277" on="0"/>
        <pt x="49" y="557" on="0"/>
        <pt x="49" y="717" on="1"/>
        <pt x="49" y="876" on="0"/>
        <pt x="106" y="1156" on="0"/>
        <pt x="222" y="1364" on="0"/>
        <pt x="398" y="1485" on="0"/>
        <pt x="516" y="1485" on="1"/>
        <pt x="638" y="1485" on="0"/>
        <pt x="815" y="1364" on="0"/>
        <pt x="929" y="1156" on="0"/>
        <pt x="983" y="876" on="0"/>
      </contour>
      <contour>
        <pt x="721" y="717" on="1"/>
        <pt x="721" y="841" on="0"/>
        <pt x="701" y="1060" on="0"/>
        <pt x="654" y="1223" on="0"/>
        <pt x="575" y="1317" on="0"/>
        <pt x="516" y="1317" on="1"/>
        <pt x="459" y="1317" on="0"/>
        <pt x="381" y="1223" on="0"/>
        <pt x="333" y="1060" on="0"/>
        <pt x="311" y="841" on="0"/>
        <pt x="311" y="717" on="1"/>
        <pt x="311" y="592" on="0"/>
        <pt x="333" y="373" on="0"/>
        <pt x="382" y="210" on="0"/>
        <pt x="460" y="115" on="0"/>
        <pt x="516" y="115" on="1"/>
        <pt x="571" y="115" on="0"/>
        <pt x="649" y="210" on="0"/>
        <pt x="699" y="373" on="0"/>
        <pt x="721" y="592" on="0"/>
      </contour>
    </TTGlyph>
    <TTGlyph name="OE" xMin="49" yMin="-53" xMax="1442" yMax="1485">
      <contour>
        <pt x="1298" y="645" on="1"/>
        <pt x="1190" y="659" on="0"/>
        <pt x="1035" y="666" on="0"/>
        <pt x="991" y="666" on="1"/>
        <pt x="991" y="562" on="0"/>
        <pt x="993" y="399" on="0"/>
        <pt x="996" y="275" on="0"/>
        <pt x="999" y="187" on="0"/>
        <pt x="1001" y="158" on="1"/>
        <pt x="1103" y="160" on="0"/>
        <pt x="1264" y="176" on="0"/>
        <pt x="1374" y="193" on="0"/>
        <pt x="1432" y="207" on="0"/>
        <pt x="1432" y="209" on="1"/>
        <pt x="1431" y="204" on="0"/>
        <pt x="1431" y="198" on="1"/>
        <pt x="1430" y="193" on="0"/>
        <pt x="1430" y="177" on="0"/>
        <pt x="1430" y="166" on="1"/>
        <pt x="1430" y="138" on="0"/>
        <pt x="1434" y="44" on="0"/>
        <pt x="1442" y="-23" on="1"/>
        <pt x="1360" y="-21" on="0"/>
        <pt x="1221" y="-20" on="0"/>
        <pt x="1159" y="-20" on="1"/>
        <pt x="1038" y="-20" on="0"/>
        <pt x="875" y="-25" on="0"/>
        <pt x="824" y="-27" on="1"/>
        <pt x="764" y="-30" on="0"/>
        <pt x="729" y="-33" on="1"/>
        <pt x="733" y="18" on="1"/>
        <pt x="687" y="-16" on="0"/>
        <pt x="579" y="-53" on="0"/>
        <pt x="516" y="-53" on="1"/>
        <pt x="400" y="-53" on="0"/>
        <pt x="225" y="68" on="0"/>
        <pt x="108" y="277" on="0"/>
        <pt x="49" y="557" on="0"/>
        <pt x="49" y="717" on="1"/>
        <pt x="49" y="876" on="0"/>
        <pt x="106" y="1156" on="0"/>
        <pt x="222" y="1364" on="0"/>
        <pt x="398" y="1485" on="0"/>
        <pt x="516" y="1485" on="1"/>
        <pt x="579" y="1485" on="0"/>
        <pt x="686" y="1450" on="0"/>
        <pt x="731" y="1419" on="1"/>
        <pt x="731" y="1425" on="0"/>
        <pt x="729" y="1440" on="0"/>
        <pt x="729" y="1446" on="1"/>
        <pt x="854" y="1441" on="0"/>
        <pt x="1051" y="1436" on="0"/>
        <pt x="1128" y="1436" on="1"/>
        <pt x="1204" y="1436" on="0"/>
        <pt x="1314" y="1439" on="0"/>
        <pt x="1349" y="1441" on="1"/>
        <pt x="1390" y="1443" on="0"/>
        <pt x="1417" y="1446" on="1"/>
        <pt x="1417" y="1447" on="0"/>
        <pt x="1417" y="1409" on="0"/>
        <pt x="1419" y="1347" on="0"/>
        <pt x="1424" y="1269" on="0"/>
        <pt x="1430" y="1229" on="1"/>
        <pt x="1314" y="1240" on="0"/>
        <pt x="1139" y="1247" on="0"/>
        <pt x="1077" y="1247" on="1"/>
        <pt x="1051" y="1247" on="0"/>
        <pt x="1012" y="1247" on="0"/>
        <pt x="995" y="1245" on="1"/>
        <pt x="993" y="1134" on="0"/>
        <pt x="991" y="939" on="0"/>
        <pt x="991" y="852" on="1"/>
        <pt x="1061" y="854" on="0"/>
        <pt x="1173" y="861" on="0"/>
        <pt x="1211" y="866" on="1"/>
        <pt x="1256" y="871" on="0"/>
        <pt x="1290" y="877" on="1"/>
        <pt x="1289" y="870" on="0"/>
        <pt x="1289" y="861" on="1"/>
        <pt x="1288" y="853" on="0"/>
        <pt x="1288" y="831" on="0"/>
        <pt x="1288" y="817" on="1"/>
        <pt x="1288" y="785" on="0"/>
        <pt x="1292" y="696" on="0"/>
      </contour>
      <contour>
        <pt x="721" y="717" on="1"/>
        <pt x="721" y="841" on="0"/>
        <pt x="701" y="1060" on="0"/>
        <pt x="654" y="1223" on="0"/>
        <pt x="575" y="1317" on="0"/>
        <pt x="516" y="1317" on="1"/>
        <pt x="459" y="1317" on="0"/>
        <pt x="381" y="1223" on="0"/>
        <pt x="333" y="1060" on="0"/>
        <pt x="311" y="841" on="0"/>
        <pt x="311" y="717" on="1"/>
        <pt x="311" y="592" on="0"/>
        <pt x="333" y="373" on="0"/>
        <pt x="382" y="210" on="0"/>
        <pt x="460" y="115" on="0"/>
        <pt x="516" y="115" on="1"/>
        <pt x="571" y="115" on="0"/>
        <pt x="649" y="210" on="0"/>
        <pt x="699" y="373" on="0"/>
        <pt x="721" y="592" on="0"/>
      </contour>
    </TTGlyph>
    <TTGlyph name="Oacute" xMin="49" yMin="-53" xMax="983" yMax="1956">
      <component glyphName="O" x="0" y="0" flags="0x204"/>
      <component glyphName="acute" x="475" y="74" flags="0x4"/>
    </TTGlyph>
    <TTGlyph name="Obreve" xMin="49" yMin="-53" xMax="983" yMax="1948">
      <component glyphName="O" x="0" y="0" flags="0x204"/>
      <component glyphName="breve" x="293" y="70" flags="0x4"/>
    </TTGlyph>
    <TTGlyph name="Ocircumflex" xMin="49" yMin="-53" xMax="983" yMax="1925">
      <component glyphName="O" x="0" y="0" flags="0x204"/>
      <component glyphName="circumflex" x="264" y="37" flags="0x4"/>
    </TTGlyph>
    <TTGlyph name="Odieresis" xMin="49" yMin="-53" xMax="983" yMax="1743">
      <component glyphName="O" x="0" y="0" flags="0x204"/>
      <component glyphName="dieresis" x="274" y="55" flags="0x4"/>
    </TTGlyph>
    <TTGlyph name="Ograve" xMin="49" yMin="-53" xMax="983" yMax="1927">
      <component glyphName="O" x="0" y="0" flags="0x204"/>
      <component glyphName="grave" x="168" y="45" flags="0x4"/>
    </TTGlyph>
    <TTGlyph name="Ohungarumlaut" xMin="49" yMin="-53" xMax="989" yMax="1941">
      <component glyphName="O" x="0" y="0" flags="0x204"/>
      <component glyphName="hungarumlaut" x="330" y="59" flags="0x4"/>
    </TTGlyph>
    <TTGlyph name="Omacron" xMin="49" yMin="-53" xMax="983" yMax="1736">
      <component glyphName="O" x="0" y="0" flags="0x204"/>
      <component glyphName="macron" x="281" y="18" flags="0x4"/>
    </TTGlyph>
    <TTGlyph name="Omega" xMin="68" yMin="-29" xMax="922" yMax="1489">
      <contour>
        <pt x="922" y="197" on="1"/>
        <pt x="922" y="-29" on="1"/>
        <pt x="522" y="-29" on="1"/>
        <pt x="522" y="313" on="1"/>
        <pt x="546" y="332" on="0"/>
        <pt x="584" y="398" on="0"/>
        <pt x="612" y="481" on="0"/>
        <pt x="631" y="575" on="0"/>
        <pt x="637" y="621" on="1"/>
        <pt x="651" y="729" on="0"/>
        <pt x="653" y="854" on="1"/>
        <pt x="653" y="962" on="0"/>
        <pt x="631" y="1132" on="0"/>
        <pt x="589" y="1249" on="0"/>
        <pt x="528" y="1311" on="0"/>
        <pt x="489" y="1311" on="1"/>
        <pt x="451" y="1311" on="0"/>
        <pt x="387" y="1256" on="0"/>
        <pt x="342" y="1141" on="0"/>
        <pt x="317" y="965" on="0"/>
        <pt x="317" y="844" on="1"/>
        <pt x="324" y="734" on="0"/>
        <pt x="341" y="635" on="1"/>
        <pt x="348" y="593" on="0"/>
        <pt x="367" y="504" on="0"/>
        <pt x="392" y="423" on="0"/>
        <pt x="424" y="352" on="0"/>
        <pt x="444" y="328" on="1"/>
        <pt x="444" y="-29" on="1"/>
        <pt x="84" y="-29" on="1"/>
        <pt x="74" y="201" on="1"/>
        <pt x="119" y="191" on="0"/>
        <pt x="198" y="182" on="0"/>
        <pt x="240" y="182" on="1"/>
        <pt x="274" y="182" on="1"/>
        <pt x="274" y="254" on="1"/>
        <pt x="220" y="279" on="0"/>
        <pt x="148" y="384" on="0"/>
        <pt x="102" y="511" on="0"/>
        <pt x="79" y="646" on="0"/>
        <pt x="69" y="759" on="0"/>
        <pt x="68" y="835" on="0"/>
        <pt x="68" y="840" on="1"/>
        <pt x="68" y="978" on="0"/>
        <pt x="107" y="1182" on="0"/>
        <pt x="172" y="1326" on="0"/>
        <pt x="258" y="1418" on="0"/>
        <pt x="353" y="1470" on="0"/>
        <pt x="451" y="1489" on="0"/>
        <pt x="496" y="1489" on="1"/>
        <pt x="544" y="1489" on="0"/>
        <pt x="643" y="1475" on="0"/>
        <pt x="734" y="1428" on="0"/>
        <pt x="815" y="1339" on="0"/>
        <pt x="874" y="1191" on="0"/>
        <pt x="909" y="975" on="0"/>
        <pt x="909" y="823" on="1"/>
        <pt x="909" y="792" on="0"/>
        <pt x="905" y="699" on="0"/>
        <pt x="890" y="593" on="0"/>
        <pt x="863" y="482" on="0"/>
        <pt x="817" y="381" on="0"/>
        <pt x="749" y="299" on="0"/>
        <pt x="702" y="276" on="1"/>
        <pt x="702" y="174" on="1"/>
        <pt x="713" y="172" on="0"/>
        <pt x="732" y="174" on="0"/>
        <pt x="743" y="174" on="1"/>
        <pt x="787" y="174" on="0"/>
        <pt x="872" y="184" on="0"/>
      </contour>
    </TTGlyph>
    <TTGlyph name="Oslash" xMin="49" yMin="-96" xMax="983" yMax="1495">
      <contour>
        <pt x="946" y="1438" on="1"/>
        <pt x="931" y="1406" on="0"/>
        <pt x="889" y="1320" on="0"/>
        <pt x="866" y="1268" on="1"/>
        <pt x="926" y="1162" on="0"/>
        <pt x="983" y="881" on="0"/>
        <pt x="983" y="717" on="1"/>
        <pt x="983" y="557" on="0"/>
        <pt x="923" y="277" on="0"/>
        <pt x="805" y="68" on="0"/>
        <pt x="630" y="-53" on="0"/>
        <pt x="516" y="-53" on="1"/>
        <pt x="460" y="-53" on="0"/>
        <pt x="366" y="-25" on="0"/>
        <pt x="324" y="0" on="1"/>
        <pt x="289" y="-96" on="1"/>
        <pt x="251" y="-72" on="0"/>
        <pt x="217" y="-51" on="1"/>
        <pt x="188" y="-33" on="0"/>
        <pt x="128" y="1" on="0"/>
        <pt x="111" y="8" on="1"/>
        <pt x="128" y="39" on="0"/>
        <pt x="164" y="106" on="0"/>
        <pt x="182" y="143" on="1"/>
        <pt x="116" y="250" on="0"/>
        <pt x="49" y="545" on="0"/>
        <pt x="49" y="717" on="1"/>
        <pt x="49" y="876" on="0"/>
        <pt x="106" y="1156" on="0"/>
        <pt x="222" y="1364" on="0"/>
        <pt x="398" y="1485" on="0"/>
        <pt x="516" y="1485" on="1"/>
        <pt x="584" y="1485" on="0"/>
        <pt x="697" y="1446" on="0"/>
        <pt x="743" y="1411" on="1"/>
        <pt x="753" y="1434" on="0"/>
        <pt x="766" y="1476" on="0"/>
        <pt x="772" y="1495" on="1"/>
      </contour>
      <contour>
        <pt x="516" y="1317" on="1"/>
        <pt x="459" y="1317" on="0"/>
        <pt x="381" y="1223" on="0"/>
        <pt x="333" y="1060" on="0"/>
        <pt x="311" y="841" on="0"/>
        <pt x="311" y="717" on="1"/>
        <pt x="311" y="641" on="0"/>
        <pt x="318" y="501" on="0"/>
        <pt x="328" y="438" on="1"/>
        <pt x="373" y="534" on="0"/>
        <pt x="463" y="733" on="0"/>
        <pt x="548" y="927" on="0"/>
        <pt x="626" y="1111" on="0"/>
        <pt x="659" y="1192" on="1"/>
        <pt x="636" y="1251" on="0"/>
        <pt x="566" y="1317" on="0"/>
      </contour>
      <contour>
        <pt x="721" y="717" on="1"/>
        <pt x="721" y="773" on="0"/>
        <pt x="716" y="878" on="0"/>
        <pt x="713" y="928" on="1"/>
        <pt x="674" y="841" on="0"/>
        <pt x="594" y="656" on="0"/>
        <pt x="514" y="467" on="0"/>
        <pt x="435" y="279" on="0"/>
        <pt x="399" y="190" on="1"/>
        <pt x="446" y="115" on="0"/>
        <pt x="516" y="115" on="1"/>
        <pt x="571" y="115" on="0"/>
        <pt x="649" y="210" on="0"/>
        <pt x="699" y="373" on="0"/>
        <pt x="721" y="592" on="0"/>
      </contour>
    </TTGlyph>
    <TTGlyph name="Oslashacute" xMin="49" yMin="-96" xMax="983" yMax="1956">
      <component glyphName="Oslash" x="0" y="0" flags="0x204"/>
      <component glyphName="acute" x="481" y="74" flags="0x4"/>
    </TTGlyph>
    <TTGlyph name="Otilde" xMin="49" yMin="-53" xMax="983" yMax="1823">
      <component glyphName="O" x="0" y="0" flags="0x204"/>
      <component glyphName="tilde" x="221" y="29" flags="0x4"/>
    </TTGlyph>
    <TTGlyph name="P" xMin="74" yMin="-63" xMax="887" yMax="1440">
      <contour>
        <pt x="887" y="987" on="1"/>
        <pt x="886" y="856" on="0"/>
        <pt x="789" y="655" on="0"/>
        <pt x="634" y="519" on="0"/>
        <pt x="444" y="449" on="0"/>
        <pt x="350" y="449" on="1"/>
        <pt x="330" y="449" on="1"/>
        <pt x="330" y="407" on="0"/>
        <pt x="331" y="292" on="0"/>
        <pt x="335" y="157" on="0"/>
        <pt x="342" y="10" on="0"/>
        <pt x="348" y="-63" on="1"/>
        <pt x="289" y="-57" on="0"/>
        <pt x="191" y="-53" on="0"/>
        <pt x="154" y="-53" on="1"/>
        <pt x="134" y="-53" on="0"/>
        <pt x="104" y="-54" on="0"/>
        <pt x="94" y="-54" on="1"/>
        <pt x="82" y="-55" on="0"/>
        <pt x="74" y="-55" on="1"/>
        <pt x="79" y="23" on="0"/>
        <pt x="87" y="180" on="0"/>
        <pt x="93" y="331" on="0"/>
        <pt x="96" y="471" on="0"/>
        <pt x="98" y="533" on="1"/>
        <pt x="101" y="677" on="0"/>
        <pt x="102" y="809" on="1"/>
        <pt x="102" y="936" on="0"/>
        <pt x="100" y="1052" on="1"/>
        <pt x="99" y="1101" on="0"/>
        <pt x="97" y="1205" on="0"/>
        <pt x="94" y="1303" on="0"/>
        <pt x="91" y="1388" on="0"/>
        <pt x="88" y="1419" on="1"/>
        <pt x="165" y="1433" on="0"/>
        <pt x="312" y="1440" on="0"/>
        <pt x="360" y="1440" on="1"/>
        <pt x="397" y="1440" on="0"/>
        <pt x="505" y="1434" on="0"/>
        <pt x="622" y="1407" on="0"/>
        <pt x="738" y="1350" on="0"/>
        <pt x="830" y="1250" on="0"/>
        <pt x="887" y="1097" on="0"/>
      </contour>
      <contour>
        <pt x="629" y="979" on="1"/>
        <pt x="629" y="1055" on="0"/>
        <pt x="595" y="1164" on="0"/>
        <pt x="526" y="1234" on="0"/>
        <pt x="419" y="1270" on="0"/>
        <pt x="346" y="1274" on="1"/>
        <pt x="342" y="1186" on="0"/>
        <pt x="337" y="992" on="0"/>
        <pt x="333" y="809" on="0"/>
        <pt x="331" y="652" on="0"/>
        <pt x="330" y="602" on="1"/>
        <pt x="405" y="606" on="0"/>
        <pt x="517" y="664" on="0"/>
        <pt x="592" y="762" on="0"/>
        <pt x="629" y="897" on="0"/>
      </contour>
    </TTGlyph>
    <TTGlyph name="Q" xMin="49" yMin="-438" xMax="983" yMax="1485">
      <contour>
        <pt x="930" y="-223" on="1"/>
        <pt x="932" y="-233" on="0"/>
        <pt x="934" y="-251" on="0"/>
        <pt x="934" y="-260" on="1"/>
        <pt x="934" y="-299" on="0"/>
        <pt x="902" y="-365" on="0"/>
        <pt x="844" y="-412" on="0"/>
        <pt x="763" y="-438" on="0"/>
        <pt x="713" y="-438" on="1"/>
        <pt x="661" y="-438" on="0"/>
        <pt x="561" y="-402" on="0"/>
        <pt x="482" y="-335" on="0"/>
        <pt x="434" y="-239" on="0"/>
        <pt x="434" y="-180" on="1"/>
        <pt x="434" y="-163" on="0"/>
        <pt x="441" y="-91" on="0"/>
        <pt x="457" y="-49" on="1"/>
        <pt x="355" y="-34" on="0"/>
        <pt x="202" y="97" on="0"/>
        <pt x="100" y="302" on="0"/>
        <pt x="49" y="567" on="0"/>
        <pt x="49" y="717" on="1"/>
        <pt x="49" y="876" on="0"/>
        <pt x="106" y="1156" on="0"/>
        <pt x="222" y="1364" on="0"/>
        <pt x="398" y="1485" on="0"/>
        <pt x="516" y="1485" on="1"/>
        <pt x="638" y="1485" on="0"/>
        <pt x="815" y="1364" on="0"/>
        <pt x="929" y="1156" on="0"/>
        <pt x="983" y="876" on="0"/>
        <pt x="983" y="717" on="1"/>
        <pt x="983" y="586" on="0"/>
        <pt x="942" y="350" on="0"/>
        <pt x="863" y="156" on="0"/>
        <pt x="745" y="15" on="0"/>
        <pt x="668" y="-20" on="1"/>
        <pt x="636" y="-43" on="0"/>
        <pt x="590" y="-112" on="0"/>
        <pt x="590" y="-170" on="1"/>
        <pt x="590" y="-174" on="0"/>
        <pt x="591" y="-192" on="0"/>
        <pt x="597" y="-217" on="0"/>
        <pt x="608" y="-248" on="0"/>
        <pt x="618" y="-264" on="1"/>
        <pt x="621" y="-229" on="0"/>
        <pt x="649" y="-168" on="0"/>
        <pt x="693" y="-123" on="0"/>
        <pt x="751" y="-98" on="0"/>
        <pt x="786" y="-98" on="1"/>
        <pt x="836" y="-96" on="0"/>
        <pt x="914" y="-157" on="0"/>
      </contour>
      <contour>
        <pt x="721" y="717" on="1"/>
        <pt x="721" y="841" on="0"/>
        <pt x="701" y="1060" on="0"/>
        <pt x="654" y="1223" on="0"/>
        <pt x="575" y="1317" on="0"/>
        <pt x="516" y="1317" on="1"/>
        <pt x="459" y="1317" on="0"/>
        <pt x="381" y="1223" on="0"/>
        <pt x="333" y="1060" on="0"/>
        <pt x="311" y="841" on="0"/>
        <pt x="311" y="717" on="1"/>
        <pt x="311" y="592" on="0"/>
        <pt x="333" y="373" on="0"/>
        <pt x="382" y="210" on="0"/>
        <pt x="460" y="115" on="0"/>
        <pt x="516" y="115" on="1"/>
        <pt x="571" y="115" on="0"/>
        <pt x="649" y="210" on="0"/>
        <pt x="699" y="373" on="0"/>
        <pt x="721" y="592" on="0"/>
      </contour>
    </TTGlyph>
    <TTGlyph name="R" xMin="66" yMin="-27" xMax="973" yMax="1446">
      <contour>
        <pt x="682" y="-18" on="1"/>
        <pt x="661" y="11" on="0"/>
        <pt x="640" y="83" on="0"/>
        <pt x="630" y="148" on="0"/>
        <pt x="629" y="196" on="0"/>
        <pt x="629" y="201" on="1"/>
        <pt x="629" y="233" on="0"/>
        <pt x="624" y="322" on="0"/>
        <pt x="606" y="417" on="0"/>
        <pt x="573" y="510" on="0"/>
        <pt x="516" y="584" on="0"/>
        <pt x="433" y="629" on="0"/>
        <pt x="375" y="629" on="1"/>
        <pt x="367" y="629" on="0"/>
        <pt x="350" y="627" on="0"/>
        <pt x="342" y="627" on="1"/>
        <pt x="342" y="4" on="1"/>
        <pt x="66" y="-2" on="1"/>
        <pt x="72" y="33" on="0"/>
        <pt x="81" y="128" on="0"/>
        <pt x="87" y="235" on="0"/>
        <pt x="91" y="351" on="0"/>
        <pt x="93" y="463" on="0"/>
        <pt x="94" y="568" on="0"/>
        <pt x="94" y="610" on="1"/>
        <pt x="94" y="642" on="0"/>
        <pt x="93" y="766" on="0"/>
        <pt x="90" y="921" on="0"/>
        <pt x="87" y="1092" on="0"/>
        <pt x="83" y="1249" on="0"/>
        <pt x="78" y="1378" on="0"/>
        <pt x="76" y="1413" on="1"/>
        <pt x="131" y="1424" on="0"/>
        <pt x="257" y="1435" on="0"/>
        <pt x="311" y="1438" on="1"/>
        <pt x="374" y="1442" on="0"/>
        <pt x="436" y="1442" on="1"/>
        <pt x="536" y="1446" on="0"/>
        <pt x="712" y="1405" on="0"/>
        <pt x="845" y="1308" on="0"/>
        <pt x="924" y="1155" on="0"/>
        <pt x="926" y="1049" on="1"/>
        <pt x="910" y="974" on="0"/>
        <pt x="875" y="910" on="1"/>
        <pt x="860" y="883" on="0"/>
        <pt x="819" y="826" on="0"/>
        <pt x="764" y="776" on="0"/>
        <pt x="694" y="735" on="0"/>
        <pt x="651" y="723" on="1"/>
        <pt x="715" y="698" on="0"/>
        <pt x="795" y="631" on="0"/>
        <pt x="841" y="548" on="0"/>
        <pt x="862" y="453" on="0"/>
        <pt x="871" y="348" on="0"/>
        <pt x="877" y="237" on="0"/>
        <pt x="885" y="180" on="1"/>
        <pt x="893" y="137" on="0"/>
        <pt x="905" y="98" on="1"/>
        <pt x="916" y="64" on="0"/>
        <pt x="949" y="-5" on="0"/>
        <pt x="973" y="-27" on="1"/>
      </contour>
      <contour>
        <pt x="672" y="1036" on="1"/>
        <pt x="671" y="1100" on="0"/>
        <pt x="644" y="1151" on="1"/>
        <pt x="632" y="1172" on="0"/>
        <pt x="595" y="1214" on="0"/>
        <pt x="540" y="1246" on="0"/>
        <pt x="463" y="1266" on="0"/>
        <pt x="412" y="1266" on="1"/>
        <pt x="373" y="1266" on="0"/>
        <pt x="326" y="1255" on="1"/>
        <pt x="330" y="803" on="1"/>
        <pt x="348" y="800" on="0"/>
        <pt x="384" y="797" on="0"/>
        <pt x="399" y="797" on="1"/>
        <pt x="447" y="797" on="0"/>
        <pt x="521" y="817" on="0"/>
        <pt x="577" y="851" on="0"/>
        <pt x="617" y="893" on="0"/>
        <pt x="631" y="916" on="1"/>
        <pt x="663" y="969" on="0"/>
      </contour>
    </TTGlyph>
    <TTGlyph name="Racute" xMin="66" yMin="-27" xMax="973" yMax="1913">
      <component glyphName="R" x="0" y="0" flags="0x204"/>
      <component glyphName="acute" x="426" y="31" flags="0x4"/>
    </TTGlyph>
    <TTGlyph name="Rcaron" xMin="66" yMin="-27" xMax="973" yMax="1913">
      <component glyphName="R" x="0" y="0" flags="0x204"/>
      <component glyphName="caron" x="205" y="25" flags="0x4"/>
    </TTGlyph>
    <TTGlyph name="Rcommaaccent" xMin="66" yMin="-383" xMax="973" yMax="1446">
      <component glyphName="R" x="0" y="0" flags="0x204"/>
      <component glyphName="uni0326" x="297" y="0" flags="0x4"/>
    </TTGlyph>
    <TTGlyph name="S" xMin="47" yMin="-43" xMax="862" yMax="1501">
      <contour>
        <pt x="860" y="344" on="1"/>
        <pt x="850" y="231" on="0"/>
        <pt x="767" y="82" on="0"/>
        <pt x="647" y="-7" on="0"/>
        <pt x="502" y="-43" on="0"/>
        <pt x="430" y="-43" on="1"/>
        <pt x="355" y="-43" on="0"/>
        <pt x="216" y="-2" on="0"/>
        <pt x="110" y="80" on="0"/>
        <pt x="47" y="204" on="0"/>
        <pt x="47" y="287" on="1"/>
        <pt x="47" y="351" on="0"/>
        <pt x="86" y="437" on="0"/>
        <pt x="144" y="489" on="0"/>
        <pt x="210" y="510" on="0"/>
        <pt x="238" y="510" on="1"/>
        <pt x="267" y="510" on="0"/>
        <pt x="329" y="492" on="0"/>
        <pt x="381" y="450" on="0"/>
        <pt x="414" y="379" on="0"/>
        <pt x="414" y="326" on="1"/>
        <pt x="414" y="325" on="0"/>
        <pt x="411" y="290" on="0"/>
        <pt x="391" y="245" on="0"/>
        <pt x="350" y="202" on="0"/>
        <pt x="311" y="193" on="1"/>
        <pt x="339" y="158" on="0"/>
        <pt x="414" y="123" on="0"/>
        <pt x="440" y="123" on="1"/>
        <pt x="466" y="123" on="0"/>
        <pt x="533" y="141" on="0"/>
        <pt x="592" y="184" on="0"/>
        <pt x="633" y="255" on="0"/>
        <pt x="633" y="309" on="1"/>
        <pt x="633" y="372" on="0"/>
        <pt x="590" y="470" on="0"/>
        <pt x="523" y="545" on="0"/>
        <pt x="440" y="602" on="0"/>
        <pt x="401" y="625" on="1"/>
        <pt x="375" y="640" on="0"/>
        <pt x="303" y="681" on="0"/>
        <pt x="225" y="738" on="0"/>
        <pt x="149" y="811" on="0"/>
        <pt x="88" y="904" on="0"/>
        <pt x="51" y="1018" on="0"/>
        <pt x="51" y="1087" on="1"/>
        <pt x="51" y="1190" on="0"/>
        <pt x="123" y="1345" on="0"/>
        <pt x="238" y="1449" on="0"/>
        <pt x="384" y="1501" on="0"/>
        <pt x="459" y="1501" on="1"/>
        <pt x="534" y="1501" on="0"/>
        <pt x="670" y="1460" on="0"/>
        <pt x="773" y="1383" on="0"/>
        <pt x="834" y="1276" on="0"/>
        <pt x="834" y="1210" on="1"/>
        <pt x="834" y="1143" on="0"/>
        <pt x="790" y="1065" on="0"/>
        <pt x="729" y="1025" on="0"/>
        <pt x="666" y="1014" on="0"/>
        <pt x="647" y="1014" on="1"/>
        <pt x="623" y="1014" on="0"/>
        <pt x="571" y="1032" on="0"/>
        <pt x="528" y="1068" on="0"/>
        <pt x="500" y="1120" on="0"/>
        <pt x="500" y="1155" on="1"/>
        <pt x="501" y="1177" on="0"/>
        <pt x="505" y="1199" on="1"/>
        <pt x="509" y="1218" on="0"/>
        <pt x="525" y="1262" on="0"/>
        <pt x="541" y="1282" on="1"/>
        <pt x="525" y="1296" on="0"/>
        <pt x="495" y="1312" on="0"/>
        <pt x="482" y="1316" on="1"/>
        <pt x="467" y="1320" on="0"/>
        <pt x="453" y="1321" on="1"/>
        <pt x="425" y="1321" on="0"/>
        <pt x="368" y="1301" on="0"/>
        <pt x="321" y="1261" on="0"/>
        <pt x="291" y="1200" on="0"/>
        <pt x="291" y="1159" on="1"/>
        <pt x="291" y="1111" on="0"/>
        <pt x="321" y="1034" on="0"/>
        <pt x="385" y="962" on="0"/>
        <pt x="484" y="888" on="0"/>
        <pt x="553" y="844" on="1"/>
        <pt x="634" y="793" on="0"/>
        <pt x="751" y="691" on="0"/>
        <pt x="826" y="583" on="0"/>
        <pt x="862" y="464" on="0"/>
        <pt x="862" y="395" on="1"/>
        <pt x="862" y="383" on="0"/>
        <pt x="862" y="358" on="0"/>
      </contour>
    </TTGlyph>
    <TTGlyph name="Sacute" xMin="47" yMin="-43" xMax="862" yMax="1980">
      <component glyphName="S" x="0" y="0" flags="0x204"/>
      <component glyphName="acute" x="401" y="98" flags="0x4"/>
    </TTGlyph>
    <TTGlyph name="Scaron" xMin="47" yMin="-43" xMax="862" yMax="1972">
      <component glyphName="S" x="0" y="0" flags="0x204"/>
      <component glyphName="caron" x="203" y="84" flags="0x4"/>
    </TTGlyph>
    <TTGlyph name="Scedilla" xMin="47" yMin="-401" xMax="862" yMax="1501">
      <contour>
        <pt x="582" y="-254" on="1"/>
        <pt x="582" y="-290" on="0"/>
        <pt x="552" y="-345" on="0"/>
        <pt x="502" y="-382" on="0"/>
        <pt x="437" y="-401" on="0"/>
        <pt x="403" y="-401" on="1"/>
        <pt x="382" y="-401" on="0"/>
        <pt x="349" y="-395" on="0"/>
        <pt x="338" y="-391" on="1"/>
        <pt x="325" y="-387" on="0"/>
        <pt x="315" y="-381" on="1"/>
        <pt x="315" y="-270" on="1"/>
        <pt x="320" y="-275" on="0"/>
        <pt x="341" y="-283" on="0"/>
        <pt x="365" y="-288" on="0"/>
        <pt x="388" y="-291" on="0"/>
        <pt x="395" y="-291" on="1"/>
        <pt x="418" y="-291" on="0"/>
        <pt x="453" y="-274" on="0"/>
        <pt x="453" y="-246" on="1"/>
        <pt x="453" y="-233" on="0"/>
        <pt x="440" y="-215" on="0"/>
        <pt x="420" y="-204" on="0"/>
        <pt x="396" y="-199" on="0"/>
        <pt x="385" y="-199" on="1"/>
        <pt x="371" y="-199" on="0"/>
        <pt x="342" y="-202" on="0"/>
        <pt x="328" y="-207" on="1"/>
        <pt x="389" y="-41" on="1"/>
        <pt x="320" y="-36" on="0"/>
        <pt x="196" y="10" on="0"/>
        <pt x="102" y="91" on="0"/>
        <pt x="47" y="209" on="0"/>
        <pt x="47" y="287" on="1"/>
        <pt x="47" y="351" on="0"/>
        <pt x="86" y="437" on="0"/>
        <pt x="144" y="489" on="0"/>
        <pt x="210" y="510" on="0"/>
        <pt x="238" y="510" on="1"/>
        <pt x="267" y="510" on="0"/>
        <pt x="329" y="492" on="0"/>
        <pt x="381" y="450" on="0"/>
        <pt x="414" y="379" on="0"/>
        <pt x="414" y="326" on="1"/>
        <pt x="414" y="325" on="0"/>
        <pt x="411" y="290" on="0"/>
        <pt x="391" y="245" on="0"/>
        <pt x="350" y="202" on="0"/>
        <pt x="311" y="193" on="1"/>
        <pt x="339" y="158" on="0"/>
        <pt x="414" y="123" on="0"/>
        <pt x="440" y="123" on="1"/>
        <pt x="466" y="123" on="0"/>
        <pt x="533" y="141" on="0"/>
        <pt x="592" y="184" on="0"/>
        <pt x="633" y="255" on="0"/>
        <pt x="633" y="309" on="1"/>
        <pt x="633" y="372" on="0"/>
        <pt x="590" y="470" on="0"/>
        <pt x="523" y="545" on="0"/>
        <pt x="440" y="602" on="0"/>
        <pt x="401" y="625" on="1"/>
        <pt x="375" y="640" on="0"/>
        <pt x="303" y="681" on="0"/>
        <pt x="225" y="738" on="0"/>
        <pt x="149" y="811" on="0"/>
        <pt x="88" y="904" on="0"/>
        <pt x="51" y="1018" on="0"/>
        <pt x="51" y="1087" on="1"/>
        <pt x="51" y="1190" on="0"/>
        <pt x="123" y="1345" on="0"/>
        <pt x="238" y="1449" on="0"/>
        <pt x="384" y="1501" on="0"/>
        <pt x="459" y="1501" on="1"/>
        <pt x="534" y="1501" on="0"/>
        <pt x="670" y="1460" on="0"/>
        <pt x="773" y="1383" on="0"/>
        <pt x="834" y="1276" on="0"/>
        <pt x="834" y="1210" on="1"/>
        <pt x="834" y="1143" on="0"/>
        <pt x="790" y="1065" on="0"/>
        <pt x="729" y="1025" on="0"/>
        <pt x="666" y="1014" on="0"/>
        <pt x="647" y="1014" on="1"/>
        <pt x="623" y="1014" on="0"/>
        <pt x="571" y="1032" on="0"/>
        <pt x="528" y="1068" on="0"/>
        <pt x="500" y="1120" on="0"/>
        <pt x="500" y="1155" on="1"/>
        <pt x="501" y="1177" on="0"/>
        <pt x="505" y="1199" on="1"/>
        <pt x="509" y="1218" on="0"/>
        <pt x="525" y="1262" on="0"/>
        <pt x="541" y="1282" on="1"/>
        <pt x="525" y="1296" on="0"/>
        <pt x="495" y="1312" on="0"/>
        <pt x="482" y="1316" on="1"/>
        <pt x="467" y="1320" on="0"/>
        <pt x="453" y="1321" on="1"/>
        <pt x="425" y="1321" on="0"/>
        <pt x="368" y="1301" on="0"/>
        <pt x="321" y="1261" on="0"/>
        <pt x="291" y="1200" on="0"/>
        <pt x="291" y="1159" on="1"/>
        <pt x="291" y="1111" on="0"/>
        <pt x="321" y="1034" on="0"/>
        <pt x="385" y="962" on="0"/>
        <pt x="484" y="888" on="0"/>
        <pt x="553" y="844" on="1"/>
        <pt x="634" y="793" on="0"/>
        <pt x="751" y="691" on="0"/>
        <pt x="826" y="583" on="0"/>
        <pt x="862" y="464" on="0"/>
        <pt x="862" y="395" on="1"/>
        <pt x="862" y="383" on="0"/>
        <pt x="862" y="358" on="0"/>
        <pt x="860" y="344" on="1"/>
        <pt x="851" y="239" on="0"/>
        <pt x="777" y="95" on="0"/>
        <pt x="669" y="5" on="0"/>
        <pt x="536" y="-37" on="0"/>
        <pt x="469" y="-41" on="1"/>
        <pt x="451" y="-123" on="1"/>
        <pt x="509" y="-123" on="0"/>
        <pt x="582" y="-194" on="0"/>
      </contour>
    </TTGlyph>
    <TTGlyph name="Scircumflex" xMin="47" yMin="-43" xMax="862" yMax="1941">
      <component glyphName="S" x="0" y="0" flags="0x204"/>
      <component glyphName="circumflex" x="197" y="53" flags="0x4"/>
    </TTGlyph>
    <TTGlyph name="T" xMin="14" yMin="-41" xMax="762" yMax="1440">
      <contour>
        <pt x="532" y="-16" on="1"/>
        <pt x="504" y="-16" on="1"/>
        <pt x="442" y="-16" on="0"/>
        <pt x="331" y="-29" on="0"/>
        <pt x="268" y="-41" on="1"/>
        <pt x="281" y="179" on="0"/>
        <pt x="295" y="566" on="0"/>
        <pt x="295" y="748" on="1"/>
        <pt x="295" y="981" on="0"/>
        <pt x="283" y="1208" on="1"/>
        <pt x="31" y="1190" on="1"/>
        <pt x="30" y="1224" on="0"/>
        <pt x="28" y="1281" on="0"/>
        <pt x="24" y="1334" on="0"/>
        <pt x="18" y="1389" on="0"/>
        <pt x="14" y="1423" on="1"/>
        <pt x="135" y="1423" on="1"/>
        <pt x="215" y="1423" on="0"/>
        <pt x="368" y="1425" on="0"/>
        <pt x="521" y="1429" on="0"/>
        <pt x="678" y="1435" on="0"/>
        <pt x="762" y="1440" on="1"/>
        <pt x="757" y="1389" on="0"/>
        <pt x="754" y="1318" on="0"/>
        <pt x="754" y="1280" on="1"/>
        <pt x="754" y="1227" on="1"/>
        <pt x="508" y="1221" on="1"/>
        <pt x="505" y="1125" on="0"/>
        <pt x="504" y="940" on="0"/>
        <pt x="504" y="846" on="1"/>
        <pt x="504" y="628" on="0"/>
        <pt x="518" y="200" on="0"/>
      </contour>
    </TTGlyph>
    <TTGlyph name="Tbar" xMin="14" yMin="-41" xMax="762" yMax="1440">
      <contour>
        <pt x="674" y="834" on="1"/>
        <pt x="672" y="829" on="0"/>
        <pt x="672" y="772" on="0"/>
        <pt x="672" y="737" on="1"/>
        <pt x="672" y="700" on="0"/>
        <pt x="672" y="635" on="0"/>
        <pt x="674" y="621" on="1"/>
        <pt x="639" y="623" on="0"/>
        <pt x="554" y="627" on="0"/>
        <pt x="506" y="629" on="1"/>
        <pt x="509" y="465" on="0"/>
        <pt x="521" y="146" on="0"/>
        <pt x="532" y="-16" on="1"/>
        <pt x="504" y="-16" on="1"/>
        <pt x="442" y="-16" on="0"/>
        <pt x="331" y="-29" on="0"/>
        <pt x="268" y="-41" on="1"/>
        <pt x="278" y="145" on="0"/>
        <pt x="292" y="475" on="0"/>
        <pt x="295" y="631" on="1"/>
        <pt x="238" y="631" on="1"/>
        <pt x="125" y="631" on="1"/>
        <pt x="127" y="657" on="0"/>
        <pt x="129" y="717" on="0"/>
        <pt x="129" y="748" on="1"/>
        <pt x="129" y="768" on="0"/>
        <pt x="128" y="811" on="0"/>
        <pt x="125" y="834" on="1"/>
        <pt x="157" y="827" on="0"/>
        <pt x="245" y="820" on="0"/>
        <pt x="295" y="817" on="1"/>
        <pt x="292" y="1014" on="0"/>
        <pt x="283" y="1208" on="1"/>
        <pt x="31" y="1190" on="1"/>
        <pt x="30" y="1224" on="0"/>
        <pt x="28" y="1281" on="0"/>
        <pt x="24" y="1334" on="0"/>
        <pt x="18" y="1389" on="0"/>
        <pt x="14" y="1423" on="1"/>
        <pt x="135" y="1423" on="1"/>
        <pt x="215" y="1423" on="0"/>
        <pt x="368" y="1425" on="0"/>
        <pt x="521" y="1429" on="0"/>
        <pt x="678" y="1435" on="0"/>
        <pt x="762" y="1440" on="1"/>
        <pt x="757" y="1389" on="0"/>
        <pt x="754" y="1318" on="0"/>
        <pt x="754" y="1280" on="1"/>
        <pt x="754" y="1227" on="1"/>
        <pt x="508" y="1221" on="1"/>
        <pt x="505" y="1125" on="0"/>
        <pt x="504" y="940" on="0"/>
        <pt x="504" y="846" on="1"/>
        <pt x="504" y="815" on="1"/>
        <pt x="561" y="817" on="0"/>
        <pt x="652" y="826" on="0"/>
      </contour>
    </TTGlyph>
    <TTGlyph name="Tcaron" xMin="14" yMin="-41" xMax="762" yMax="1890">
      <component glyphName="T" x="0" y="0" flags="0x204"/>
      <component glyphName="caron" x="135" y="2" flags="0x4"/>
    </TTGlyph>
    <TTGlyph name="Tcommaaccent" xMin="14" yMin="-383" xMax="762" yMax="1440">
      <component glyphName="T" x="0" y="0" flags="0x204"/>
      <component glyphName="uni0326" x="201" y="0" flags="0x4"/>
    </TTGlyph>
    <TTGlyph name="Thorn" xMin="74" yMin="-63" xMax="887" yMax="1520">
      <contour>
        <pt x="887" y="782" on="1"/>
        <pt x="886" y="651" on="0"/>
        <pt x="789" y="450" on="0"/>
        <pt x="634" y="314" on="0"/>
        <pt x="444" y="244" on="0"/>
        <pt x="350" y="244" on="1"/>
        <pt x="330" y="244" on="1"/>
        <pt x="332" y="194" on="0"/>
        <pt x="339" y="43" on="0"/>
        <pt x="348" y="-63" on="1"/>
        <pt x="289" y="-57" on="0"/>
        <pt x="191" y="-53" on="0"/>
        <pt x="154" y="-53" on="1"/>
        <pt x="134" y="-53" on="0"/>
        <pt x="104" y="-54" on="0"/>
        <pt x="94" y="-54" on="1"/>
        <pt x="82" y="-55" on="0"/>
        <pt x="74" y="-55" on="1"/>
        <pt x="79" y="23" on="0"/>
        <pt x="87" y="180" on="0"/>
        <pt x="93" y="331" on="0"/>
        <pt x="96" y="471" on="0"/>
        <pt x="98" y="533" on="1"/>
        <pt x="101" y="677" on="0"/>
        <pt x="102" y="809" on="1"/>
        <pt x="102" y="957" on="0"/>
        <pt x="100" y="1090" on="1"/>
        <pt x="99" y="1147" on="0"/>
        <pt x="97" y="1264" on="0"/>
        <pt x="94" y="1372" on="0"/>
        <pt x="91" y="1464" on="0"/>
        <pt x="88" y="1495" on="1"/>
        <pt x="360" y="1520" on="1"/>
        <pt x="360" y="1235" on="1"/>
        <pt x="397" y="1235" on="0"/>
        <pt x="505" y="1229" on="0"/>
        <pt x="622" y="1203" on="0"/>
        <pt x="738" y="1147" on="0"/>
        <pt x="830" y="1046" on="0"/>
        <pt x="887" y="893" on="0"/>
      </contour>
      <contour>
        <pt x="629" y="774" on="1"/>
        <pt x="629" y="850" on="0"/>
        <pt x="595" y="959" on="0"/>
        <pt x="526" y="1029" on="0"/>
        <pt x="419" y="1065" on="0"/>
        <pt x="346" y="1069" on="1"/>
        <pt x="342" y="982" on="0"/>
        <pt x="337" y="787" on="0"/>
        <pt x="333" y="604" on="0"/>
        <pt x="331" y="447" on="0"/>
        <pt x="330" y="397" on="1"/>
        <pt x="405" y="402" on="0"/>
        <pt x="517" y="459" on="0"/>
        <pt x="592" y="557" on="0"/>
        <pt x="629" y="692" on="0"/>
      </contour>
    </TTGlyph>
    <TTGlyph name="U" xMin="70" yMin="-74" xMax="870" yMax="1436">
      <contour>
        <pt x="870" y="657" on="1"/>
        <pt x="870" y="572" on="0"/>
        <pt x="859" y="398" on="0"/>
        <pt x="828" y="236" on="0"/>
        <pt x="771" y="93" on="0"/>
        <pt x="681" y="-13" on="0"/>
        <pt x="553" y="-74" on="0"/>
        <pt x="465" y="-74" on="1"/>
        <pt x="381" y="-74" on="0"/>
        <pt x="257" y="-21" on="0"/>
        <pt x="169" y="70" on="0"/>
        <pt x="114" y="195" on="0"/>
        <pt x="82" y="338" on="0"/>
        <pt x="70" y="494" on="0"/>
        <pt x="70" y="571" on="1"/>
        <pt x="70" y="591" on="0"/>
        <pt x="71" y="621" on="0"/>
        <pt x="73" y="656" on="0"/>
        <pt x="76" y="705" on="0"/>
        <pt x="80" y="782" on="0"/>
        <pt x="85" y="895" on="0"/>
        <pt x="92" y="1059" on="0"/>
        <pt x="99" y="1282" on="0"/>
        <pt x="104" y="1430" on="1"/>
        <pt x="403" y="1419" on="1"/>
        <pt x="388" y="1265" on="0"/>
        <pt x="362" y="1044" on="0"/>
        <pt x="342" y="876" on="0"/>
        <pt x="326" y="748" on="0"/>
        <pt x="316" y="628" on="0"/>
        <pt x="311" y="502" on="0"/>
        <pt x="311" y="420" on="1"/>
        <pt x="311" y="267" on="0"/>
        <pt x="377" y="109" on="0"/>
        <pt x="455" y="109" on="1"/>
        <pt x="540" y="109" on="0"/>
        <pt x="631" y="312" on="0"/>
        <pt x="631" y="530" on="1"/>
        <pt x="631" y="768" on="0"/>
        <pt x="597" y="1211" on="0"/>
        <pt x="569" y="1427" on="1"/>
        <pt x="852" y="1436" on="1"/>
        <pt x="850" y="1397" on="0"/>
        <pt x="850" y="1322" on="0"/>
        <pt x="850" y="1284" on="1"/>
        <pt x="850" y="1179" on="0"/>
        <pt x="856" y="982" on="0"/>
        <pt x="864" y="817" on="0"/>
        <pt x="870" y="691" on="0"/>
      </contour>
    </TTGlyph>
    <TTGlyph name="Uacute" xMin="70" yMin="-74" xMax="870" yMax="1915">
      <component glyphName="U" x="0" y="0" flags="0x204"/>
      <component glyphName="acute" x="430" y="33" flags="0x4"/>
    </TTGlyph>
    <TTGlyph name="Ubreve" xMin="70" yMin="-74" xMax="870" yMax="1892">
      <component glyphName="U" x="0" y="0" flags="0x204"/>
      <component glyphName="breve" x="258" y="14" flags="0x4"/>
    </TTGlyph>
    <TTGlyph name="Ucircumflex" xMin="70" yMin="-74" xMax="870" yMax="1890">
      <component glyphName="U" x="0" y="0" flags="0x204"/>
      <component glyphName="circumflex" x="217" y="2" flags="0x4"/>
    </TTGlyph>
    <TTGlyph name="Udieresis" xMin="70" yMin="-74" xMax="870" yMax="1713">
      <component glyphName="U" x="0" y="0" flags="0x204"/>
      <component glyphName="dieresis" x="227" y="25" flags="0x4"/>
    </TTGlyph>
    <TTGlyph name="Ugrave" xMin="70" yMin="-74" xMax="870" yMax="1909">
      <component glyphName="U" x="0" y="0" flags="0x204"/>
      <component glyphName="grave" x="166" y="27" flags="0x4"/>
    </TTGlyph>
    <TTGlyph name="Uhungarumlaut" xMin="70" yMin="-74" xMax="907" yMax="1892">
      <component glyphName="U" x="0" y="0" flags="0x204"/>
      <component glyphName="hungarumlaut" x="248" y="10" flags="0x4"/>
    </TTGlyph>
    <TTGlyph name="Umacron" xMin="70" yMin="-74" xMax="870" yMax="1682">
      <component glyphName="U" x="0" y="0" flags="0x204"/>
      <component glyphName="macron" x="238" y="-36" flags="0x4"/>
    </TTGlyph>
    <TTGlyph name="Uogonek" xMin="70" yMin="-383" xMax="870" yMax="1436">
      <contour>
        <pt x="643" y="-289" on="1"/>
        <pt x="595" y="-335" on="0"/>
        <pt x="509" y="-383" on="0"/>
        <pt x="457" y="-383" on="1"/>
        <pt x="427" y="-383" on="0"/>
        <pt x="377" y="-359" on="0"/>
        <pt x="342" y="-318" on="0"/>
        <pt x="322" y="-266" on="0"/>
        <pt x="322" y="-238" on="1"/>
        <pt x="322" y="-207" on="0"/>
        <pt x="349" y="-120" on="0"/>
        <pt x="389" y="-68" on="1"/>
        <pt x="321" y="-56" on="0"/>
        <pt x="222" y="9" on="0"/>
        <pt x="151" y="104" on="0"/>
        <pt x="106" y="223" on="0"/>
        <pt x="80" y="357" on="0"/>
        <pt x="70" y="500" on="0"/>
        <pt x="70" y="571" on="1"/>
        <pt x="70" y="591" on="0"/>
        <pt x="71" y="621" on="0"/>
        <pt x="73" y="656" on="0"/>
        <pt x="76" y="705" on="0"/>
        <pt x="80" y="782" on="0"/>
        <pt x="85" y="895" on="0"/>
        <pt x="92" y="1059" on="0"/>
        <pt x="99" y="1282" on="0"/>
        <pt x="104" y="1430" on="1"/>
        <pt x="403" y="1419" on="1"/>
        <pt x="388" y="1265" on="0"/>
        <pt x="362" y="1044" on="0"/>
        <pt x="342" y="876" on="0"/>
        <pt x="326" y="748" on="0"/>
        <pt x="316" y="628" on="0"/>
        <pt x="311" y="502" on="0"/>
        <pt x="311" y="420" on="1"/>
        <pt x="311" y="267" on="0"/>
        <pt x="377" y="109" on="0"/>
        <pt x="455" y="109" on="1"/>
        <pt x="540" y="109" on="0"/>
        <pt x="631" y="312" on="0"/>
        <pt x="631" y="530" on="1"/>
        <pt x="631" y="768" on="0"/>
        <pt x="597" y="1211" on="0"/>
        <pt x="569" y="1427" on="1"/>
        <pt x="852" y="1436" on="1"/>
        <pt x="850" y="1397" on="0"/>
        <pt x="850" y="1322" on="0"/>
        <pt x="850" y="1284" on="1"/>
        <pt x="850" y="1179" on="0"/>
        <pt x="856" y="982" on="0"/>
        <pt x="864" y="817" on="0"/>
        <pt x="870" y="691" on="0"/>
        <pt x="870" y="657" on="1"/>
        <pt x="870" y="575" on="0"/>
        <pt x="859" y="406" on="0"/>
        <pt x="830" y="247" on="0"/>
        <pt x="778" y="107" on="0"/>
        <pt x="694" y="0" on="0"/>
        <pt x="575" y="-67" on="0"/>
        <pt x="494" y="-72" on="1"/>
        <pt x="471" y="-103" on="0"/>
        <pt x="436" y="-174" on="0"/>
        <pt x="436" y="-211" on="1"/>
        <pt x="436" y="-228" on="0"/>
        <pt x="458" y="-246" on="0"/>
        <pt x="473" y="-246" on="1"/>
        <pt x="502" y="-246" on="0"/>
        <pt x="545" y="-206" on="0"/>
        <pt x="563" y="-184" on="1"/>
      </contour>
    </TTGlyph>
    <TTGlyph name="Uring" xMin="70" yMin="-74" xMax="870" yMax="1882">
      <component glyphName="U" x="0" y="0" flags="0x204"/>
      <component glyphName="ring" x="303" y="31" flags="0x4"/>
    </TTGlyph>
    <TTGlyph name="Utilde" xMin="70" yMin="-74" xMax="870" yMax="1775">
      <component glyphName="U" x="0" y="0" flags="0x204"/>
      <component glyphName="tilde" x="176" y="-19" flags="0x4"/>
    </TTGlyph>
    <TTGlyph name="V" xMin="14" yMin="-45" xMax="858" yMax="1438">
      <contour>
        <pt x="858" y="1436" on="1"/>
        <pt x="806" y="1248" on="0"/>
        <pt x="730" y="876" on="0"/>
        <pt x="676" y="506" on="0"/>
        <pt x="638" y="138" on="0"/>
        <pt x="623" y="-45" on="1"/>
        <pt x="246" y="-20" on="1"/>
        <pt x="223" y="164" on="0"/>
        <pt x="177" y="529" on="0"/>
        <pt x="122" y="892" on="0"/>
        <pt x="56" y="1251" on="0"/>
        <pt x="14" y="1430" on="1"/>
        <pt x="34" y="1430" on="0"/>
        <pt x="74" y="1427" on="0"/>
        <pt x="92" y="1427" on="1"/>
        <pt x="148" y="1427" on="0"/>
        <pt x="250" y="1433" on="0"/>
        <pt x="309" y="1436" on="1"/>
        <pt x="316" y="1292" on="0"/>
        <pt x="340" y="983" on="0"/>
        <pt x="372" y="668" on="0"/>
        <pt x="412" y="354" on="0"/>
        <pt x="436" y="207" on="1"/>
        <pt x="461" y="354" on="0"/>
        <pt x="504" y="668" on="0"/>
        <pt x="536" y="984" on="0"/>
        <pt x="557" y="1294" on="0"/>
        <pt x="561" y="1438" on="1"/>
        <pt x="603" y="1433" on="0"/>
        <pt x="681" y="1430" on="0"/>
        <pt x="719" y="1430" on="1"/>
        <pt x="784" y="1430" on="0"/>
      </contour>
    </TTGlyph>
    <TTGlyph name="W" xMin="80" yMin="-70" xMax="1255" yMax="1440">
      <contour>
        <pt x="1223" y="1423" on="1"/>
        <pt x="1232" y="1304" on="0"/>
        <pt x="1239" y="1173" on="1"/>
        <pt x="1242" y="1117" on="0"/>
        <pt x="1248" y="989" on="0"/>
        <pt x="1252" y="850" on="0"/>
        <pt x="1255" y="705" on="0"/>
        <pt x="1255" y="633" on="1"/>
        <pt x="1255" y="492" on="0"/>
        <pt x="1219" y="238" on="0"/>
        <pt x="1137" y="44" on="0"/>
        <pt x="1003" y="-70" on="0"/>
        <pt x="905" y="-70" on="1"/>
        <pt x="903" y="-70" on="0"/>
        <pt x="872" y="-68" on="0"/>
        <pt x="824" y="-56" on="0"/>
        <pt x="765" y="-30" on="0"/>
        <pt x="705" y="18" on="0"/>
        <pt x="651" y="93" on="0"/>
        <pt x="633" y="147" on="1"/>
        <pt x="612" y="96" on="0"/>
        <pt x="554" y="28" on="0"/>
        <pt x="492" y="-17" on="0"/>
        <pt x="429" y="-41" on="0"/>
        <pt x="379" y="-51" on="0"/>
        <pt x="345" y="-53" on="0"/>
        <pt x="342" y="-53" on="1"/>
        <pt x="282" y="-53" on="0"/>
        <pt x="197" y="2" on="0"/>
        <pt x="138" y="99" on="0"/>
        <pt x="104" y="230" on="0"/>
        <pt x="85" y="383" on="0"/>
        <pt x="80" y="551" on="0"/>
        <pt x="80" y="635" on="1"/>
        <pt x="80" y="711" on="0"/>
        <pt x="82" y="862" on="0"/>
        <pt x="85" y="1004" on="0"/>
        <pt x="90" y="1135" on="0"/>
        <pt x="92" y="1191" on="1"/>
        <pt x="97" y="1323" on="0"/>
        <pt x="104" y="1440" on="1"/>
        <pt x="397" y="1432" on="1"/>
        <pt x="378" y="1316" on="0"/>
        <pt x="363" y="1188" on="1"/>
        <pt x="357" y="1133" on="0"/>
        <pt x="345" y="1007" on="0"/>
        <pt x="336" y="870" on="0"/>
        <pt x="330" y="725" on="0"/>
        <pt x="330" y="653" on="1"/>
        <pt x="330" y="598" on="0"/>
        <pt x="331" y="486" on="0"/>
        <pt x="336" y="381" on="0"/>
        <pt x="346" y="290" on="0"/>
        <pt x="365" y="221" on="0"/>
        <pt x="394" y="182" on="0"/>
        <pt x="416" y="182" on="1"/>
        <pt x="437" y="182" on="0"/>
        <pt x="474" y="234" on="0"/>
        <pt x="503" y="319" on="0"/>
        <pt x="526" y="426" on="0"/>
        <pt x="541" y="535" on="0"/>
        <pt x="549" y="637" on="0"/>
        <pt x="549" y="674" on="1"/>
        <pt x="549" y="686" on="0"/>
        <pt x="550" y="705" on="1"/>
        <pt x="550" y="722" on="0"/>
        <pt x="551" y="775" on="0"/>
        <pt x="551" y="813" on="1"/>
        <pt x="551" y="889" on="0"/>
        <pt x="547" y="1148" on="0"/>
        <pt x="543" y="1343" on="1"/>
        <pt x="797" y="1333" on="1"/>
        <pt x="788" y="1172" on="0"/>
        <pt x="776" y="946" on="0"/>
        <pt x="768" y="795" on="0"/>
        <pt x="765" y="704" on="0"/>
        <pt x="764" y="651" on="0"/>
        <pt x="764" y="624" on="0"/>
        <pt x="764" y="612" on="1"/>
        <pt x="764" y="569" on="0"/>
        <pt x="771" y="470" on="0"/>
        <pt x="786" y="372" on="0"/>
        <pt x="809" y="281" on="0"/>
        <pt x="838" y="212" on="0"/>
        <pt x="875" y="170" on="0"/>
        <pt x="897" y="170" on="1"/>
        <pt x="931" y="170" on="0"/>
        <pt x="972" y="246" on="0"/>
        <pt x="993" y="377" on="0"/>
        <pt x="999" y="550" on="0"/>
        <pt x="999" y="647" on="1"/>
        <pt x="999" y="798" on="0"/>
        <pt x="986" y="1054" on="0"/>
        <pt x="966" y="1253" on="0"/>
        <pt x="945" y="1394" on="0"/>
        <pt x="938" y="1430" on="1"/>
      </contour>
    </TTGlyph>
    <TTGlyph name="Wacute" xMin="80" yMin="-70" xMax="1255" yMax="1817">
      <component glyphName="W" x="0" y="0" flags="0x204"/>
      <component glyphName="acute" x="625" y="-65" flags="0x4"/>
    </TTGlyph>
    <TTGlyph name="Wcircumflex" xMin="80" yMin="-70" xMax="1255" yMax="1866">
      <component glyphName="W" x="0" y="0" flags="0x204"/>
      <component glyphName="circumflex" x="414" y="-22" flags="0x4"/>
    </TTGlyph>
    <TTGlyph name="Wdieresis" xMin="80" yMin="-70" xMax="1255" yMax="1675">
      <component glyphName="W" x="0" y="0" flags="0x204"/>
      <component glyphName="dieresis" x="424" y="-13" flags="0x4"/>
    </TTGlyph>
    <TTGlyph name="Wgrave" xMin="80" yMin="-70" xMax="1255" yMax="1854">
      <component glyphName="W" x="0" y="0" flags="0x204"/>
      <component glyphName="grave" x="344" y="-28" flags="0x4"/>
    </TTGlyph>
    <TTGlyph name="X" xMin="-6" yMin="-55" xMax="854" yMax="1438">
      <contour>
        <pt x="854" y="-23" on="1"/>
        <pt x="780" y="-23" on="0"/>
        <pt x="652" y="-32" on="0"/>
        <pt x="578" y="-41" on="1"/>
        <pt x="543" y="68" on="0"/>
        <pt x="470" y="284" on="0"/>
        <pt x="430" y="395" on="1"/>
        <pt x="390" y="280" on="0"/>
        <pt x="315" y="54" on="0"/>
        <pt x="276" y="-55" on="1"/>
        <pt x="-4" y="-41" on="1"/>
        <pt x="42" y="48" on="0"/>
        <pt x="128" y="224" on="0"/>
        <pt x="207" y="402" on="0"/>
        <pt x="282" y="585" on="0"/>
        <pt x="317" y="682" on="1"/>
        <pt x="246" y="858" on="0"/>
        <pt x="85" y="1225" on="0"/>
        <pt x="-6" y="1427" on="1"/>
        <pt x="33" y="1428" on="0"/>
        <pt x="103" y="1431" on="0"/>
        <pt x="170" y="1434" on="0"/>
        <pt x="237" y="1436" on="0"/>
        <pt x="272" y="1438" on="1"/>
        <pt x="306" y="1314" on="0"/>
        <pt x="382" y="1086" on="0"/>
        <pt x="420" y="977" on="1"/>
        <pt x="454" y="1083" on="0"/>
        <pt x="521" y="1311" on="0"/>
        <pt x="555" y="1438" on="1"/>
        <pt x="643" y="1432" on="0"/>
        <pt x="723" y="1432" on="1"/>
        <pt x="754" y="1432" on="0"/>
        <pt x="814" y="1432" on="0"/>
        <pt x="848" y="1434" on="1"/>
        <pt x="751" y="1247" on="0"/>
        <pt x="599" y="876" on="0"/>
        <pt x="532" y="690" on="1"/>
        <pt x="613" y="494" on="0"/>
        <pt x="777" y="143" on="0"/>
      </contour>
    </TTGlyph>
    <TTGlyph name="Y" xMin="-12" yMin="-53" xMax="868" yMax="1456">
      <contour>
        <pt x="868" y="1425" on="1"/>
        <pt x="824" y="1309" on="0"/>
        <pt x="746" y="1077" on="0"/>
        <pt x="675" y="843" on="0"/>
        <pt x="607" y="607" on="0"/>
        <pt x="573" y="489" on="1"/>
        <pt x="580" y="355" on="0"/>
        <pt x="596" y="92" on="0"/>
        <pt x="610" y="-41" on="1"/>
        <pt x="305" y="-53" on="1"/>
        <pt x="318" y="103" on="0"/>
        <pt x="331" y="409" on="0"/>
        <pt x="334" y="565" on="1"/>
        <pt x="256" y="788" on="0"/>
        <pt x="84" y="1219" on="0"/>
        <pt x="-12" y="1434" on="1"/>
        <pt x="62" y="1436" on="0"/>
        <pt x="228" y="1445" on="0"/>
        <pt x="299" y="1456" on="1"/>
        <pt x="317" y="1364" on="0"/>
        <pt x="350" y="1180" on="0"/>
        <pt x="385" y="995" on="0"/>
        <pt x="425" y="813" on="0"/>
        <pt x="451" y="725" on="1"/>
        <pt x="494" y="905" on="0"/>
        <pt x="562" y="1269" on="0"/>
        <pt x="588" y="1446" on="1"/>
        <pt x="726" y="1428" on="0"/>
      </contour>
    </TTGlyph>
    <TTGlyph name="Yacute" xMin="-12" yMin="-53" xMax="868" yMax="1919">
      <component glyphName="Y" x="0" y="0" flags="0x204"/>
      <component glyphName="acute" x="391" y="37" flags="0x4"/>
    </TTGlyph>
    <TTGlyph name="Ycircumflex" xMin="-12" yMin="-53" xMax="868" yMax="1904">
      <component glyphName="Y" x="0" y="0" flags="0x204"/>
      <component glyphName="circumflex" x="197" y="16" flags="0x4"/>
    </TTGlyph>
    <TTGlyph name="Ydieresis" xMin="-12" yMin="-53" xMax="868" yMax="1743">
      <component glyphName="Y" x="0" y="0" flags="0x204"/>
      <component glyphName="dieresis" x="209" y="55" flags="0x4"/>
    </TTGlyph>
    <TTGlyph name="Ygrave" xMin="-12" yMin="-53" xMax="868" yMax="1884">
      <component glyphName="Y" x="0" y="0" flags="0x204"/>
      <component glyphName="grave" x="141" y="2" flags="0x4"/>
    </TTGlyph>
    <TTGlyph name="Z" xMin="33" yMin="-43" xMax="733" yMax="1432">
      <contour>
        <pt x="729" y="1204" on="1"/>
        <pt x="677" y="1084" on="0"/>
        <pt x="569" y="827" on="0"/>
        <pt x="463" y="566" on="0"/>
        <pt x="362" y="305" on="0"/>
        <pt x="317" y="180" on="1"/>
        <pt x="421" y="182" on="0"/>
        <pt x="633" y="186" on="0"/>
        <pt x="733" y="203" on="1"/>
        <pt x="731" y="-43" on="1"/>
        <pt x="53" y="-43" on="1"/>
        <pt x="33" y="170" on="1"/>
        <pt x="167" y="433" on="0"/>
        <pt x="401" y="953" on="0"/>
        <pt x="500" y="1221" on="1"/>
        <pt x="387" y="1219" on="0"/>
        <pt x="167" y="1195" on="0"/>
        <pt x="55" y="1174" on="1"/>
        <pt x="51" y="1432" on="1"/>
        <pt x="729" y="1432" on="1"/>
      </contour>
    </TTGlyph>
    <TTGlyph name="Zacute" xMin="33" yMin="-43" xMax="733" yMax="1902">
      <component glyphName="Z" x="0" y="0" flags="0x204"/>
      <component glyphName="acute" x="338" y="20" flags="0x4"/>
    </TTGlyph>
    <TTGlyph name="Zcaron" xMin="33" yMin="-43" xMax="733" yMax="1913">
      <component glyphName="Z" x="0" y="0" flags="0x204"/>
      <component glyphName="caron" x="133" y="25" flags="0x4"/>
    </TTGlyph>
    <TTGlyph name="Zdotaccent" xMin="33" yMin="-43" xMax="733" yMax="1713">
      <component glyphName="Z" x="0" y="0" flags="0x204"/>
      <component glyphName="dotaccent" x="283" y="25" flags="0x4"/>
    </TTGlyph>
    <TTGlyph name="a" xMin="43" yMin="-53" xMax="774" yMax="1163">
      <contour>
        <pt x="543" y="-41" on="1"/>
        <pt x="537" y="-10" on="0"/>
        <pt x="527" y="54" on="0"/>
        <pt x="524" y="88" on="1"/>
        <pt x="478" y="20" on="0"/>
        <pt x="350" y="-53" on="0"/>
        <pt x="274" y="-53" on="1"/>
        <pt x="235" y="-53" on="0"/>
        <pt x="153" y="-28" on="0"/>
        <pt x="86" y="34" on="0"/>
        <pt x="43" y="141" on="0"/>
        <pt x="43" y="223" on="1"/>
        <pt x="43" y="291" on="0"/>
        <pt x="83" y="392" on="0"/>
        <pt x="147" y="468" on="0"/>
        <pt x="227" y="524" on="0"/>
        <pt x="306" y="568" on="0"/>
        <pt x="378" y="606" on="0"/>
        <pt x="401" y="625" on="1"/>
        <pt x="445" y="660" on="0"/>
        <pt x="510" y="739" on="0"/>
        <pt x="530" y="782" on="1"/>
        <pt x="526" y="851" on="0"/>
        <pt x="505" y="940" on="0"/>
        <pt x="471" y="993" on="0"/>
        <pt x="422" y="1014" on="0"/>
        <pt x="391" y="1014" on="1"/>
        <pt x="345" y="1014" on="0"/>
        <pt x="282" y="974" on="0"/>
        <pt x="262" y="946" on="1"/>
        <pt x="287" y="930" on="0"/>
        <pt x="314" y="894" on="0"/>
        <pt x="321" y="877" on="1"/>
        <pt x="329" y="858" on="0"/>
        <pt x="330" y="838" on="1"/>
        <pt x="330" y="770" on="0"/>
        <pt x="253" y="698" on="0"/>
        <pt x="193" y="698" on="1"/>
        <pt x="162" y="698" on="0"/>
        <pt x="110" y="727" on="0"/>
        <pt x="71" y="779" on="0"/>
        <pt x="49" y="851" on="0"/>
        <pt x="49" y="893" on="1"/>
        <pt x="49" y="935" on="0"/>
        <pt x="87" y="1029" on="0"/>
        <pt x="171" y="1110" on="0"/>
        <pt x="303" y="1163" on="0"/>
        <pt x="397" y="1163" on="1"/>
        <pt x="491" y="1163" on="0"/>
        <pt x="625" y="1090" on="0"/>
        <pt x="711" y="969" on="0"/>
        <pt x="750" y="811" on="0"/>
        <pt x="750" y="727" on="1"/>
        <pt x="750" y="664" on="0"/>
        <pt x="748" y="516" on="0"/>
        <pt x="748" y="438" on="1"/>
        <pt x="748" y="373" on="0"/>
        <pt x="750" y="243" on="0"/>
        <pt x="756" y="122" on="0"/>
        <pt x="766" y="15" on="0"/>
        <pt x="774" y="-27" on="1"/>
      </contour>
      <contour>
        <pt x="528" y="545" on="1"/>
        <pt x="493" y="503" on="0"/>
        <pt x="453" y="473" on="1"/>
        <pt x="423" y="452" on="0"/>
        <pt x="354" y="400" on="0"/>
        <pt x="295" y="342" on="0"/>
        <pt x="256" y="279" on="0"/>
        <pt x="256" y="246" on="1"/>
        <pt x="256" y="201" on="0"/>
        <pt x="300" y="137" on="0"/>
        <pt x="340" y="137" on="1"/>
        <pt x="377" y="137" on="0"/>
        <pt x="435" y="177" on="0"/>
        <pt x="480" y="236" on="0"/>
        <pt x="511" y="304" on="0"/>
        <pt x="520" y="332" on="1"/>
      </contour>
    </TTGlyph>
    <TTGlyph name="aacute" xMin="43" yMin="-53" xMax="774" yMax="1639">
      <component glyphName="a" x="0" y="0" flags="0x204"/>
      <component glyphName="acute" x="338" y="-243" flags="0x4"/>
    </TTGlyph>
    <TTGlyph name="abreve" xMin="43" yMin="-53" xMax="774" yMax="1621">
      <component glyphName="a" x="0" y="0" flags="0x204"/>
      <component glyphName="breve" x="190" y="-257" flags="0x4"/>
    </TTGlyph>
    <TTGlyph name="acircumflex" xMin="43" yMin="-53" xMax="774" yMax="1625">
      <component glyphName="a" x="0" y="0" flags="0x204"/>
      <component glyphName="circumflex" x="156" y="-263" flags="0x4"/>
    </TTGlyph>
    <TTGlyph name="acute" xMin="0" yMin="1473" xMax="358" yMax="1882">
      <contour>
        <pt x="197" y="1882" on="1"/>
        <pt x="222" y="1864" on="0"/>
        <pt x="279" y="1821" on="0"/>
        <pt x="303" y="1802" on="1"/>
        <pt x="331" y="1780" on="0"/>
        <pt x="358" y="1757" on="1"/>
        <pt x="94" y="1473" on="1"/>
        <pt x="0" y="1542" on="1"/>
      </contour>
    </TTGlyph>
    <TTGlyph name="adieresis" xMin="43" yMin="-53" xMax="774" yMax="1441">
      <component glyphName="a" x="0" y="0" flags="0x204"/>
      <component glyphName="dieresis" x="166" y="-247" flags="0x4"/>
    </TTGlyph>
    <TTGlyph name="ae" xMin="43" yMin="-68" xMax="1270" yMax="1176">
      <contour>
        <pt x="1270" y="215" on="1"/>
        <pt x="1270" y="156" on="0"/>
        <pt x="1216" y="52" on="0"/>
        <pt x="1123" y="-24" on="0"/>
        <pt x="1000" y="-68" on="0"/>
        <pt x="930" y="-68" on="1"/>
        <pt x="881" y="-68" on="0"/>
        <pt x="781" y="-40" on="0"/>
        <pt x="689" y="25" on="0"/>
        <pt x="611" y="131" on="0"/>
        <pt x="584" y="209" on="1"/>
        <pt x="542" y="84" on="0"/>
        <pt x="380" y="-53" on="0"/>
        <pt x="274" y="-53" on="1"/>
        <pt x="235" y="-53" on="0"/>
        <pt x="153" y="-28" on="0"/>
        <pt x="86" y="34" on="0"/>
        <pt x="43" y="141" on="0"/>
        <pt x="43" y="223" on="1"/>
        <pt x="43" y="291" on="0"/>
        <pt x="83" y="392" on="0"/>
        <pt x="147" y="468" on="0"/>
        <pt x="227" y="524" on="0"/>
        <pt x="306" y="568" on="0"/>
        <pt x="378" y="606" on="0"/>
        <pt x="401" y="625" on="1"/>
        <pt x="445" y="660" on="0"/>
        <pt x="510" y="739" on="0"/>
        <pt x="530" y="782" on="1"/>
        <pt x="526" y="851" on="0"/>
        <pt x="505" y="940" on="0"/>
        <pt x="471" y="993" on="0"/>
        <pt x="422" y="1014" on="0"/>
        <pt x="391" y="1014" on="1"/>
        <pt x="345" y="1014" on="0"/>
        <pt x="282" y="974" on="0"/>
        <pt x="262" y="946" on="1"/>
        <pt x="287" y="930" on="0"/>
        <pt x="314" y="894" on="0"/>
        <pt x="321" y="877" on="1"/>
        <pt x="329" y="858" on="0"/>
        <pt x="330" y="838" on="1"/>
        <pt x="330" y="770" on="0"/>
        <pt x="253" y="698" on="0"/>
        <pt x="193" y="698" on="1"/>
        <pt x="162" y="698" on="0"/>
        <pt x="110" y="727" on="0"/>
        <pt x="71" y="779" on="0"/>
        <pt x="49" y="851" on="0"/>
        <pt x="49" y="893" on="1"/>
        <pt x="49" y="935" on="0"/>
        <pt x="87" y="1029" on="0"/>
        <pt x="171" y="1110" on="0"/>
        <pt x="303" y="1163" on="0"/>
        <pt x="397" y="1163" on="1"/>
        <pt x="485" y="1163" on="0"/>
        <pt x="612" y="1099" on="0"/>
        <pt x="655" y="1047" on="1"/>
        <pt x="712" y="1117" on="0"/>
        <pt x="852" y="1176" on="0"/>
        <pt x="922" y="1176" on="1"/>
        <pt x="989" y="1176" on="0"/>
        <pt x="1109" y="1133" on="0"/>
        <pt x="1199" y="1049" on="0"/>
        <pt x="1251" y="926" on="0"/>
        <pt x="1251" y="846" on="1"/>
        <pt x="1251" y="774" on="0"/>
        <pt x="1192" y="627" on="0"/>
        <pt x="1077" y="496" on="0"/>
        <pt x="906" y="389" on="0"/>
        <pt x="795" y="358" on="1"/>
        <pt x="801" y="296" on="0"/>
        <pt x="823" y="194" on="0"/>
        <pt x="858" y="122" on="0"/>
        <pt x="905" y="82" on="0"/>
        <pt x="936" y="82" on="1"/>
        <pt x="956" y="83" on="0"/>
        <pt x="974" y="89" on="1"/>
        <pt x="990" y="94" on="0"/>
        <pt x="1023" y="116" on="0"/>
        <pt x="1034" y="137" on="1"/>
        <pt x="1008" y="149" on="0"/>
        <pt x="981" y="187" on="0"/>
        <pt x="974" y="204" on="1"/>
        <pt x="966" y="224" on="0"/>
        <pt x="965" y="246" on="1"/>
        <pt x="965" y="294" on="0"/>
        <pt x="1003" y="354" on="0"/>
        <pt x="1054" y="388" on="0"/>
        <pt x="1108" y="401" on="0"/>
        <pt x="1124" y="401" on="1"/>
        <pt x="1141" y="401" on="0"/>
        <pt x="1191" y="387" on="0"/>
        <pt x="1237" y="347" on="0"/>
        <pt x="1270" y="274" on="0"/>
      </contour>
      <contour>
        <pt x="1018" y="782" on="1"/>
        <pt x="1020" y="798" on="0"/>
        <pt x="1022" y="828" on="0"/>
        <pt x="1022" y="844" on="1"/>
        <pt x="1022" y="880" on="0"/>
        <pt x="1009" y="945" on="0"/>
        <pt x="984" y="993" on="0"/>
        <pt x="948" y="1022" on="0"/>
        <pt x="924" y="1022" on="1"/>
        <pt x="883" y="1022" on="0"/>
        <pt x="830" y="947" on="0"/>
        <pt x="798" y="823" on="0"/>
        <pt x="786" y="661" on="0"/>
        <pt x="786" y="573" on="1"/>
        <pt x="786" y="500" on="1"/>
        <pt x="859" y="534" on="0"/>
        <pt x="949" y="630" on="0"/>
        <pt x="975" y="675" on="1"/>
        <pt x="1005" y="727" on="0"/>
      </contour>
      <contour>
        <pt x="528" y="545" on="1"/>
        <pt x="510" y="525" on="0"/>
        <pt x="473" y="487" on="0"/>
        <pt x="453" y="473" on="1"/>
        <pt x="423" y="452" on="0"/>
        <pt x="354" y="400" on="0"/>
        <pt x="295" y="342" on="0"/>
        <pt x="256" y="279" on="0"/>
        <pt x="256" y="246" on="1"/>
        <pt x="256" y="201" on="0"/>
        <pt x="300" y="137" on="0"/>
        <pt x="340" y="137" on="1"/>
        <pt x="377" y="137" on="0"/>
        <pt x="435" y="176" on="0"/>
        <pt x="480" y="235" on="0"/>
        <pt x="511" y="302" on="0"/>
        <pt x="520" y="330" on="1"/>
        <pt x="520" y="382" on="0"/>
        <pt x="525" y="491" on="0"/>
      </contour>
    </TTGlyph>
    <TTGlyph name="aeacute" xMin="43" yMin="-68" xMax="1270" yMax="1594">
      <component glyphName="ae" x="0" y="0" flags="0x204"/>
      <component glyphName="acute" x="590" y="-288" flags="0x4"/>
    </TTGlyph>
    <TTGlyph name="agrave" xMin="43" yMin="-53" xMax="774" yMax="1650">
      <component glyphName="a" x="0" y="0" flags="0x204"/>
      <component glyphName="grave" x="70" y="-232" flags="0x4"/>
    </TTGlyph>
    <TTGlyph name="amacron" xMin="43" yMin="-53" xMax="774" yMax="1408">
      <component glyphName="a" x="0" y="0" flags="0x204"/>
      <component glyphName="macron" x="178" y="-310" flags="0x4"/>
    </TTGlyph>
    <TTGlyph name="ampersand" xMin="16" yMin="-109" xMax="979" yMax="1505">
      <contour>
        <pt x="690" y="-63" on="1"/>
        <pt x="666" y="-31" on="1"/>
        <pt x="606" y="-71" on="0"/>
        <pt x="467" y="-109" on="0"/>
        <pt x="399" y="-109" on="1"/>
        <pt x="306" y="-109" on="0"/>
        <pt x="163" y="-46" on="0"/>
        <pt x="66" y="62" on="0"/>
        <pt x="16" y="207" on="0"/>
        <pt x="16" y="289" on="1"/>
        <pt x="16" y="373" on="0"/>
        <pt x="56" y="505" on="0"/>
        <pt x="122" y="620" on="0"/>
        <pt x="205" y="727" on="0"/>
        <pt x="248" y="784" on="1"/>
        <pt x="228" y="860" on="0"/>
        <pt x="207" y="1007" on="0"/>
        <pt x="207" y="1081" on="1"/>
        <pt x="207" y="1170" on="0"/>
        <pt x="237" y="1302" on="0"/>
        <pt x="288" y="1397" on="0"/>
        <pt x="352" y="1457" on="0"/>
        <pt x="420" y="1492" on="0"/>
        <pt x="485" y="1505" on="0"/>
        <pt x="512" y="1505" on="1"/>
        <pt x="546" y="1505" on="0"/>
        <pt x="618" y="1483" on="0"/>
        <pt x="676" y="1431" on="0"/>
        <pt x="713" y="1346" on="0"/>
        <pt x="713" y="1282" on="1"/>
        <pt x="713" y="1210" on="0"/>
        <pt x="666" y="1074" on="0"/>
        <pt x="595" y="947" on="0"/>
        <pt x="510" y="830" on="0"/>
        <pt x="473" y="778" on="1"/>
        <pt x="479" y="757" on="0"/>
        <pt x="487" y="737" on="1"/>
        <pt x="506" y="688" on="0"/>
        <pt x="533" y="629" on="1"/>
        <pt x="556" y="578" on="0"/>
        <pt x="627" y="441" on="0"/>
        <pt x="678" y="362" on="1"/>
        <pt x="690" y="423" on="0"/>
        <pt x="690" y="506" on="1"/>
        <pt x="690" y="563" on="0"/>
        <pt x="684" y="631" on="1"/>
        <pt x="911" y="682" on="1"/>
        <pt x="916" y="653" on="0"/>
        <pt x="920" y="595" on="0"/>
        <pt x="920" y="567" on="1"/>
        <pt x="920" y="495" on="0"/>
        <pt x="898" y="365" on="0"/>
        <pt x="868" y="258" on="0"/>
        <pt x="836" y="177" on="0"/>
        <pt x="825" y="154" on="1"/>
        <pt x="860" y="110" on="0"/>
        <pt x="936" y="23" on="0"/>
        <pt x="979" y="-20" on="1"/>
      </contour>
      <contour>
        <pt x="322" y="565" on="1"/>
        <pt x="287" y="500" on="0"/>
        <pt x="254" y="369" on="0"/>
        <pt x="254" y="309" on="1"/>
        <pt x="254" y="262" on="0"/>
        <pt x="274" y="184" on="0"/>
        <pt x="315" y="127" on="0"/>
        <pt x="378" y="96" on="0"/>
        <pt x="422" y="96" on="1"/>
        <pt x="447" y="96" on="0"/>
        <pt x="518" y="110" on="0"/>
        <pt x="553" y="133" on="1"/>
        <pt x="487" y="235" on="0"/>
        <pt x="368" y="453" on="0"/>
      </contour>
      <contour>
        <pt x="524" y="1264" on="1"/>
        <pt x="524" y="1296" on="0"/>
        <pt x="504" y="1341" on="0"/>
        <pt x="481" y="1341" on="1"/>
        <pt x="469" y="1341" on="0"/>
        <pt x="444" y="1314" on="0"/>
        <pt x="423" y="1262" on="0"/>
        <pt x="410" y="1182" on="0"/>
        <pt x="410" y="1130" on="1"/>
        <pt x="410" y="1100" on="0"/>
        <pt x="415" y="1034" on="0"/>
        <pt x="420" y="995" on="1"/>
        <pt x="454" y="1043" on="0"/>
        <pt x="496" y="1118" on="0"/>
        <pt x="517" y="1180" on="0"/>
        <pt x="524" y="1235" on="0"/>
      </contour>
    </TTGlyph>
    <TTGlyph name="aogonek" xMin="43" yMin="-354" xMax="836" yMax="1163">
      <contour>
        <pt x="836" y="-260" on="1"/>
        <pt x="788" y="-307" on="0"/>
        <pt x="702" y="-354" on="0"/>
        <pt x="649" y="-354" on="1"/>
        <pt x="619" y="-354" on="0"/>
        <pt x="569" y="-330" on="0"/>
        <pt x="534" y="-290" on="0"/>
        <pt x="514" y="-238" on="0"/>
        <pt x="514" y="-209" on="1"/>
        <pt x="514" y="-178" on="0"/>
        <pt x="541" y="-92" on="0"/>
        <pt x="582" y="-39" on="1"/>
        <pt x="543" y="-41" on="1"/>
        <pt x="537" y="-10" on="0"/>
        <pt x="527" y="54" on="0"/>
        <pt x="524" y="88" on="1"/>
        <pt x="478" y="20" on="0"/>
        <pt x="350" y="-53" on="0"/>
        <pt x="274" y="-53" on="1"/>
        <pt x="235" y="-53" on="0"/>
        <pt x="153" y="-28" on="0"/>
        <pt x="86" y="34" on="0"/>
        <pt x="43" y="141" on="0"/>
        <pt x="43" y="223" on="1"/>
        <pt x="43" y="291" on="0"/>
        <pt x="83" y="392" on="0"/>
        <pt x="147" y="468" on="0"/>
        <pt x="227" y="524" on="0"/>
        <pt x="306" y="568" on="0"/>
        <pt x="378" y="606" on="0"/>
        <pt x="401" y="625" on="1"/>
        <pt x="445" y="660" on="0"/>
        <pt x="510" y="739" on="0"/>
        <pt x="530" y="782" on="1"/>
        <pt x="526" y="851" on="0"/>
        <pt x="505" y="940" on="0"/>
        <pt x="471" y="993" on="0"/>
        <pt x="422" y="1014" on="0"/>
        <pt x="391" y="1014" on="1"/>
        <pt x="345" y="1014" on="0"/>
        <pt x="282" y="974" on="0"/>
        <pt x="262" y="946" on="1"/>
        <pt x="287" y="930" on="0"/>
        <pt x="314" y="894" on="0"/>
        <pt x="321" y="877" on="1"/>
        <pt x="329" y="858" on="0"/>
        <pt x="330" y="838" on="1"/>
        <pt x="330" y="770" on="0"/>
        <pt x="253" y="698" on="0"/>
        <pt x="193" y="698" on="1"/>
        <pt x="162" y="698" on="0"/>
        <pt x="110" y="727" on="0"/>
        <pt x="71" y="779" on="0"/>
        <pt x="49" y="851" on="0"/>
        <pt x="49" y="893" on="1"/>
        <pt x="49" y="935" on="0"/>
        <pt x="87" y="1029" on="0"/>
        <pt x="171" y="1110" on="0"/>
        <pt x="303" y="1163" on="0"/>
        <pt x="397" y="1163" on="1"/>
        <pt x="491" y="1163" on="0"/>
        <pt x="625" y="1090" on="0"/>
        <pt x="711" y="969" on="0"/>
        <pt x="750" y="811" on="0"/>
        <pt x="750" y="727" on="1"/>
        <pt x="750" y="664" on="0"/>
        <pt x="748" y="516" on="0"/>
        <pt x="748" y="438" on="1"/>
        <pt x="748" y="373" on="0"/>
        <pt x="750" y="243" on="0"/>
        <pt x="756" y="122" on="0"/>
        <pt x="766" y="15" on="0"/>
        <pt x="774" y="-27" on="1"/>
        <pt x="694" y="-31" on="1"/>
        <pt x="670" y="-63" on="0"/>
        <pt x="629" y="-142" on="0"/>
        <pt x="629" y="-182" on="1"/>
        <pt x="629" y="-199" on="0"/>
        <pt x="650" y="-217" on="0"/>
        <pt x="666" y="-217" on="1"/>
        <pt x="695" y="-217" on="0"/>
        <pt x="737" y="-177" on="0"/>
        <pt x="756" y="-156" on="1"/>
      </contour>
      <contour>
        <pt x="528" y="545" on="1"/>
        <pt x="493" y="503" on="0"/>
        <pt x="453" y="473" on="1"/>
        <pt x="423" y="452" on="0"/>
        <pt x="354" y="400" on="0"/>
        <pt x="295" y="342" on="0"/>
        <pt x="256" y="279" on="0"/>
        <pt x="256" y="246" on="1"/>
        <pt x="256" y="201" on="0"/>
        <pt x="300" y="137" on="0"/>
        <pt x="340" y="137" on="1"/>
        <pt x="377" y="137" on="0"/>
        <pt x="435" y="177" on="0"/>
        <pt x="480" y="236" on="0"/>
        <pt x="511" y="304" on="0"/>
        <pt x="520" y="332" on="1"/>
      </contour>
    </TTGlyph>
    <TTGlyph name="approxequal" xMin="57" yMin="264" xMax="1012" yMax="1171">
      <contour>
        <pt x="1012" y="979" on="1"/>
        <pt x="1012" y="978" on="0"/>
        <pt x="993" y="941" on="0"/>
        <pt x="957" y="886" on="0"/>
        <pt x="904" y="822" on="0"/>
        <pt x="837" y="767" on="0"/>
        <pt x="754" y="731" on="0"/>
        <pt x="707" y="731" on="1"/>
        <pt x="661" y="731" on="0"/>
        <pt x="588" y="777" on="0"/>
        <pt x="520" y="833" on="0"/>
        <pt x="451" y="879" on="0"/>
        <pt x="408" y="879" on="1"/>
        <pt x="351" y="879" on="0"/>
        <pt x="255" y="801" on="0"/>
        <pt x="215" y="729" on="1"/>
        <pt x="57" y="883" on="1"/>
        <pt x="82" y="939" on="0"/>
        <pt x="133" y="1033" on="0"/>
        <pt x="198" y="1102" on="0"/>
        <pt x="281" y="1141" on="0"/>
        <pt x="340" y="1141" on="1"/>
        <pt x="403" y="1141" on="0"/>
        <pt x="503" y="1098" on="0"/>
        <pt x="586" y="1047" on="0"/>
        <pt x="656" y="1004" on="0"/>
        <pt x="690" y="1004" on="1"/>
        <pt x="734" y="1004" on="0"/>
        <pt x="803" y="1055" on="0"/>
        <pt x="827" y="1087" on="1"/>
        <pt x="855" y="1124" on="0"/>
        <pt x="877" y="1171" on="1"/>
      </contour>
      <contour>
        <pt x="1012" y="514" on="1"/>
        <pt x="1012" y="513" on="0"/>
        <pt x="993" y="476" on="0"/>
        <pt x="957" y="421" on="0"/>
        <pt x="904" y="357" on="0"/>
        <pt x="837" y="302" on="0"/>
        <pt x="754" y="266" on="0"/>
        <pt x="707" y="266" on="1"/>
        <pt x="661" y="266" on="0"/>
        <pt x="588" y="312" on="0"/>
        <pt x="520" y="368" on="0"/>
        <pt x="451" y="414" on="0"/>
        <pt x="408" y="414" on="1"/>
        <pt x="351" y="414" on="0"/>
        <pt x="255" y="336" on="0"/>
        <pt x="215" y="264" on="1"/>
        <pt x="57" y="418" on="1"/>
        <pt x="82" y="474" on="0"/>
        <pt x="133" y="568" on="0"/>
        <pt x="198" y="637" on="0"/>
        <pt x="281" y="676" on="0"/>
        <pt x="340" y="676" on="1"/>
        <pt x="403" y="676" on="0"/>
        <pt x="503" y="633" on="0"/>
        <pt x="586" y="582" on="0"/>
        <pt x="656" y="539" on="0"/>
        <pt x="690" y="539" on="1"/>
        <pt x="712" y="539" on="0"/>
        <pt x="751" y="553" on="0"/>
        <pt x="785" y="577" on="0"/>
        <pt x="815" y="607" on="0"/>
        <pt x="827" y="623" on="1"/>
        <pt x="855" y="660" on="0"/>
        <pt x="877" y="707" on="1"/>
      </contour>
    </TTGlyph>
    <TTGlyph name="aring" xMin="43" yMin="-53" xMax="774" yMax="1612">
      <component glyphName="a" x="0" y="0" flags="0x204"/>
      <component glyphName="ring" x="201" y="-239" flags="0x4"/>
    </TTGlyph>
    <TTGlyph name="asciicircum" xMin="0" yMin="711" xMax="684" yMax="1440">
      <contour>
        <pt x="684" y="797" on="1"/>
        <pt x="428" y="719" on="1"/>
        <pt x="413" y="805" on="0"/>
        <pt x="378" y="980" on="0"/>
        <pt x="348" y="1125" on="0"/>
        <pt x="328" y="1224" on="0"/>
        <pt x="328" y="1233" on="1"/>
        <pt x="308" y="1122" on="0"/>
        <pt x="291" y="1023" on="1"/>
        <pt x="283" y="981" on="0"/>
        <pt x="268" y="892" on="0"/>
        <pt x="255" y="809" on="0"/>
        <pt x="244" y="736" on="0"/>
        <pt x="240" y="711" on="1"/>
        <pt x="208" y="726" on="0"/>
        <pt x="150" y="747" on="0"/>
        <pt x="93" y="766" on="0"/>
        <pt x="33" y="783" on="0"/>
        <pt x="0" y="793" on="1"/>
        <pt x="18" y="840" on="0"/>
        <pt x="55" y="946" on="0"/>
        <pt x="91" y="1055" on="0"/>
        <pt x="126" y="1162" on="0"/>
        <pt x="141" y="1211" on="1"/>
        <pt x="177" y="1325" on="0"/>
        <pt x="211" y="1440" on="1"/>
        <pt x="239" y="1437" on="0"/>
        <pt x="296" y="1436" on="0"/>
        <pt x="322" y="1436" on="1"/>
        <pt x="348" y="1436" on="0"/>
        <pt x="396" y="1437" on="0"/>
        <pt x="413" y="1438" on="1"/>
        <pt x="433" y="1439" on="0"/>
        <pt x="451" y="1440" on="1"/>
        <pt x="496" y="1303" on="0"/>
        <pt x="539" y="1179" on="1"/>
        <pt x="557" y="1126" on="0"/>
        <pt x="597" y="1016" on="0"/>
        <pt x="635" y="914" on="0"/>
        <pt x="670" y="827" on="0"/>
      </contour>
    </TTGlyph>
    <TTGlyph name="asciitilde" xMin="45" yMin="508" xMax="999" yMax="950">
      <contour>
        <pt x="999" y="758" on="1"/>
        <pt x="999" y="757" on="0"/>
        <pt x="980" y="720" on="0"/>
        <pt x="944" y="665" on="0"/>
        <pt x="892" y="601" on="0"/>
        <pt x="824" y="546" on="0"/>
        <pt x="742" y="510" on="0"/>
        <pt x="694" y="510" on="1"/>
        <pt x="648" y="510" on="0"/>
        <pt x="575" y="556" on="0"/>
        <pt x="508" y="611" on="0"/>
        <pt x="438" y="657" on="0"/>
        <pt x="395" y="657" on="1"/>
        <pt x="338" y="657" on="0"/>
        <pt x="243" y="580" on="0"/>
        <pt x="203" y="508" on="1"/>
        <pt x="45" y="662" on="1"/>
        <pt x="70" y="718" on="0"/>
        <pt x="121" y="812" on="0"/>
        <pt x="186" y="881" on="0"/>
        <pt x="269" y="920" on="0"/>
        <pt x="328" y="920" on="1"/>
        <pt x="391" y="920" on="0"/>
        <pt x="491" y="877" on="0"/>
        <pt x="574" y="825" on="0"/>
        <pt x="644" y="782" on="0"/>
        <pt x="678" y="782" on="1"/>
        <pt x="700" y="782" on="0"/>
        <pt x="739" y="796" on="0"/>
        <pt x="773" y="820" on="0"/>
        <pt x="803" y="850" on="0"/>
        <pt x="815" y="866" on="1"/>
        <pt x="843" y="903" on="0"/>
        <pt x="864" y="950" on="1"/>
      </contour>
    </TTGlyph>
    <TTGlyph name="asterisk" xMin="43" yMin="791" xMax="696" yMax="1450">
      <contour>
        <pt x="252" y="1444" on="1"/>
        <pt x="260" y="1444" on="1"/>
        <pt x="267" y="1444" on="0"/>
        <pt x="293" y="1444" on="0"/>
        <pt x="326" y="1445" on="0"/>
        <pt x="364" y="1446" on="0"/>
        <pt x="382" y="1447" on="1"/>
        <pt x="425" y="1448" on="0"/>
        <pt x="475" y="1450" on="1"/>
        <pt x="457" y="1268" on="1"/>
        <pt x="483" y="1286" on="0"/>
        <pt x="537" y="1323" on="0"/>
        <pt x="582" y="1353" on="0"/>
        <pt x="613" y="1372" on="0"/>
        <pt x="616" y="1372" on="1"/>
        <pt x="615" y="1373" on="0"/>
        <pt x="621" y="1354" on="0"/>
        <pt x="632" y="1323" on="0"/>
        <pt x="646" y="1283" on="0"/>
        <pt x="654" y="1262" on="1"/>
        <pt x="672" y="1213" on="0"/>
        <pt x="696" y="1149" on="1"/>
        <pt x="512" y="1102" on="1"/>
        <pt x="674" y="993" on="1"/>
        <pt x="537" y="797" on="1"/>
        <pt x="373" y="1038" on="1"/>
        <pt x="258" y="791" on="1"/>
        <pt x="92" y="967" on="1"/>
        <pt x="244" y="1092" on="1"/>
        <pt x="43" y="1133" on="1"/>
        <pt x="67" y="1191" on="0"/>
        <pt x="85" y="1239" on="1"/>
        <pt x="93" y="1259" on="0"/>
        <pt x="108" y="1298" on="0"/>
        <pt x="121" y="1330" on="0"/>
        <pt x="129" y="1350" on="0"/>
        <pt x="129" y="1352" on="1"/>
        <pt x="131" y="1350" on="0"/>
        <pt x="160" y="1330" on="0"/>
        <pt x="203" y="1303" on="0"/>
        <pt x="254" y="1270" on="0"/>
        <pt x="279" y="1255" on="1"/>
        <pt x="274" y="1287" on="0"/>
        <pt x="264" y="1355" on="0"/>
        <pt x="257" y="1410" on="0"/>
        <pt x="252" y="1445" on="0"/>
      </contour>
    </TTGlyph>
    <TTGlyph name="at" xMin="55" yMin="-84" xMax="1243" yMax="1165">
      <contour>
        <pt x="1243" y="623" on="1"/>
        <pt x="1243" y="529" on="0"/>
        <pt x="1214" y="391" on="0"/>
        <pt x="1165" y="294" on="0"/>
        <pt x="1101" y="233" on="0"/>
        <pt x="1033" y="198" on="0"/>
        <pt x="964" y="186" on="0"/>
        <pt x="934" y="186" on="1"/>
        <pt x="863" y="186" on="0"/>
        <pt x="779" y="247" on="0"/>
        <pt x="756" y="301" on="1"/>
        <pt x="734" y="269" on="0"/>
        <pt x="676" y="234" on="0"/>
        <pt x="650" y="226" on="1"/>
        <pt x="619" y="216" on="0"/>
        <pt x="588" y="215" on="1"/>
        <pt x="541" y="215" on="0"/>
        <pt x="466" y="249" on="0"/>
        <pt x="413" y="325" on="0"/>
        <pt x="385" y="445" on="0"/>
        <pt x="385" y="532" on="1"/>
        <pt x="385" y="622" on="0"/>
        <pt x="426" y="737" on="0"/>
        <pt x="495" y="802" on="0"/>
        <pt x="583" y="827" on="0"/>
        <pt x="631" y="827" on="1"/>
        <pt x="645" y="826" on="0"/>
        <pt x="661" y="822" on="1"/>
        <pt x="675" y="818" on="0"/>
        <pt x="709" y="800" on="0"/>
        <pt x="727" y="784" on="1"/>
        <pt x="727" y="804" on="0"/>
        <pt x="727" y="843" on="0"/>
        <pt x="729" y="860" on="1"/>
        <pt x="907" y="846" on="1"/>
        <pt x="900" y="780" on="0"/>
        <pt x="895" y="718" on="1"/>
        <pt x="890" y="664" on="0"/>
        <pt x="883" y="547" on="0"/>
        <pt x="883" y="504" on="1"/>
        <pt x="883" y="467" on="0"/>
        <pt x="885" y="391" on="0"/>
        <pt x="896" y="329" on="0"/>
        <pt x="921" y="289" on="0"/>
        <pt x="944" y="289" on="1"/>
        <pt x="967" y="289" on="0"/>
        <pt x="1008" y="332" on="0"/>
        <pt x="1039" y="415" on="0"/>
        <pt x="1057" y="537" on="0"/>
        <pt x="1057" y="616" on="1"/>
        <pt x="1057" y="698" on="0"/>
        <pt x="1023" y="853" on="0"/>
        <pt x="936" y="974" on="0"/>
        <pt x="787" y="1047" on="0"/>
        <pt x="672" y="1047" on="1"/>
        <pt x="458" y="1047" on="0"/>
        <pt x="252" y="784" on="0"/>
        <pt x="252" y="528" on="1"/>
        <pt x="252" y="301" on="0"/>
        <pt x="418" y="64" on="0"/>
        <pt x="596" y="47" on="1"/>
        <pt x="596" y="-84" on="1"/>
        <pt x="471" y="-84" on="0"/>
        <pt x="294" y="-26" on="0"/>
        <pt x="173" y="73" on="0"/>
        <pt x="103" y="202" on="0"/>
        <pt x="66" y="345" on="0"/>
        <pt x="55" y="491" on="0"/>
        <pt x="55" y="557" on="1"/>
        <pt x="55" y="673" on="0"/>
        <pt x="109" y="853" on="0"/>
        <pt x="202" y="988" on="0"/>
        <pt x="326" y="1081" on="0"/>
        <pt x="466" y="1139" on="0"/>
        <pt x="615" y="1165" on="0"/>
        <pt x="686" y="1165" on="1"/>
        <pt x="737" y="1165" on="0"/>
        <pt x="859" y="1150" on="0"/>
        <pt x="983" y="1108" on="0"/>
        <pt x="1099" y="1032" on="0"/>
        <pt x="1189" y="912" on="0"/>
        <pt x="1243" y="740" on="0"/>
      </contour>
      <contour>
        <pt x="725" y="637" on="1"/>
        <pt x="714" y="668" on="0"/>
        <pt x="685" y="702" on="0"/>
        <pt x="672" y="710" on="1"/>
        <pt x="657" y="720" on="0"/>
        <pt x="641" y="721" on="1"/>
        <pt x="623" y="721" on="0"/>
        <pt x="595" y="693" on="0"/>
        <pt x="576" y="642" on="0"/>
        <pt x="565" y="573" on="0"/>
        <pt x="565" y="532" on="1"/>
        <pt x="565" y="492" on="0"/>
        <pt x="573" y="422" on="0"/>
        <pt x="591" y="370" on="0"/>
        <pt x="620" y="340" on="0"/>
        <pt x="641" y="340" on="1"/>
        <pt x="653" y="341" on="0"/>
        <pt x="667" y="352" on="1"/>
        <pt x="679" y="361" on="0"/>
        <pt x="710" y="399" on="0"/>
        <pt x="727" y="434" on="1"/>
        <pt x="726" y="443" on="0"/>
        <pt x="725" y="466" on="0"/>
        <pt x="725" y="509" on="0"/>
        <pt x="725" y="580" on="0"/>
      </contour>
    </TTGlyph>
    <TTGlyph name="atilde" xMin="43" yMin="-53" xMax="774" yMax="1523">
      <component glyphName="a" x="0" y="0" flags="0x204"/>
      <component glyphName="tilde" x="113" y="-271" flags="0x4"/>
    </TTGlyph>
    <TTGlyph name="b" xMin="59" yMin="-68" xMax="838" yMax="1505">
      <contour>
        <pt x="350" y="1505" on="1"/>
        <pt x="338" y="1374" on="0"/>
        <pt x="320" y="1117" on="0"/>
        <pt x="313" y="987" on="1"/>
        <pt x="347" y="1048" on="0"/>
        <pt x="425" y="1115" on="0"/>
        <pt x="459" y="1131" on="1"/>
        <pt x="499" y="1149" on="0"/>
        <pt x="537" y="1153" on="1"/>
        <pt x="609" y="1153" on="0"/>
        <pt x="721" y="1093" on="0"/>
        <pt x="798" y="948" on="0"/>
        <pt x="838" y="707" on="0"/>
        <pt x="838" y="526" on="1"/>
        <pt x="838" y="359" on="0"/>
        <pt x="775" y="132" on="0"/>
        <pt x="676" y="-7" on="0"/>
        <pt x="555" y="-68" on="0"/>
        <pt x="496" y="-68" on="1"/>
        <pt x="490" y="-68" on="0"/>
        <pt x="449" y="-63" on="0"/>
        <pt x="391" y="-38" on="0"/>
        <pt x="325" y="12" on="0"/>
        <pt x="295" y="57" on="1"/>
        <pt x="295" y="-53" on="1"/>
        <pt x="70" y="-49" on="1"/>
        <pt x="79" y="97" on="0"/>
        <pt x="86" y="387" on="0"/>
        <pt x="86" y="532" on="1"/>
        <pt x="86" y="776" on="0"/>
        <pt x="70" y="1257" on="0"/>
        <pt x="59" y="1501" on="1"/>
      </contour>
      <contour>
        <pt x="422" y="117" on="1"/>
        <pt x="427" y="115" on="0"/>
        <pt x="438" y="115" on="0"/>
        <pt x="444" y="115" on="1"/>
        <pt x="471" y="115" on="0"/>
        <pt x="530" y="152" on="0"/>
        <pt x="578" y="246" on="0"/>
        <pt x="610" y="407" on="0"/>
        <pt x="610" y="532" on="1"/>
        <pt x="610" y="644" on="0"/>
        <pt x="589" y="793" on="0"/>
        <pt x="553" y="883" on="0"/>
        <pt x="505" y="920" on="0"/>
        <pt x="479" y="920" on="1"/>
        <pt x="452" y="920" on="0"/>
        <pt x="407" y="891" on="0"/>
        <pt x="371" y="844" on="0"/>
        <pt x="342" y="784" on="0"/>
        <pt x="320" y="725" on="0"/>
        <pt x="305" y="670" on="0"/>
        <pt x="301" y="651" on="1"/>
        <pt x="295" y="454" on="0"/>
        <pt x="295" y="260" on="1"/>
        <pt x="318" y="212" on="0"/>
        <pt x="364" y="156" on="0"/>
        <pt x="382" y="141" on="1"/>
        <pt x="403" y="123" on="0"/>
      </contour>
    </TTGlyph>
    <TTGlyph name="backslash" xMin="29" yMin="-14" xMax="864" yMax="1458">
      <contour>
        <pt x="309" y="1458" on="1"/>
        <pt x="332" y="1368" on="0"/>
        <pt x="401" y="1141" on="0"/>
        <pt x="487" y="887" on="0"/>
        <pt x="587" y="619" on="0"/>
        <pt x="695" y="357" on="0"/>
        <pt x="808" y="111" on="0"/>
        <pt x="864" y="8" on="1"/>
        <pt x="840" y="8" on="1"/>
        <pt x="797" y="8" on="0"/>
        <pt x="706" y="1" on="0"/>
        <pt x="668" y="-3" on="1"/>
        <pt x="623" y="-8" on="0"/>
        <pt x="580" y="-14" on="1"/>
        <pt x="544" y="108" on="0"/>
        <pt x="451" y="383" on="0"/>
        <pt x="350" y="663" on="0"/>
        <pt x="244" y="937" on="0"/>
        <pt x="145" y="1178" on="0"/>
        <pt x="60" y="1374" on="0"/>
        <pt x="29" y="1438" on="1"/>
      </contour>
    </TTGlyph>
    <TTGlyph name="bar" xMin="84" yMin="-137" xMax="395" yMax="1651">
      <contour>
        <pt x="389" y="1651" on="1"/>
        <pt x="364" y="1458" on="0"/>
        <pt x="348" y="1072" on="0"/>
        <pt x="348" y="877" on="1"/>
        <pt x="348" y="623" on="0"/>
        <pt x="369" y="124" on="0"/>
        <pt x="395" y="-127" on="1"/>
        <pt x="317" y="-127" on="1"/>
        <pt x="256" y="-127" on="0"/>
        <pt x="149" y="-131" on="0"/>
        <pt x="84" y="-137" on="1"/>
        <pt x="87" y="-129" on="0"/>
        <pt x="93" y="-53" on="0"/>
        <pt x="98" y="65" on="0"/>
        <pt x="103" y="212" on="0"/>
        <pt x="108" y="368" on="0"/>
        <pt x="111" y="523" on="0"/>
        <pt x="114" y="655" on="0"/>
        <pt x="115" y="755" on="0"/>
        <pt x="115" y="778" on="1"/>
        <pt x="115" y="998" on="0"/>
        <pt x="106" y="1433" on="0"/>
        <pt x="84" y="1651" on="1"/>
        <pt x="121" y="1648" on="0"/>
        <pt x="184" y="1647" on="0"/>
        <pt x="215" y="1647" on="1"/>
        <pt x="258" y="1647" on="0"/>
        <pt x="341" y="1649" on="0"/>
      </contour>
    </TTGlyph>
    <TTGlyph name="braceleft" xMin="33" yMin="-289" xMax="586" yMax="1651">
      <contour>
        <pt x="586" y="1411" on="1"/>
        <pt x="561" y="1423" on="0"/>
        <pt x="502" y="1430" on="0"/>
        <pt x="471" y="1430" on="1"/>
        <pt x="444" y="1430" on="0"/>
        <pt x="397" y="1407" on="0"/>
        <pt x="362" y="1368" on="0"/>
        <pt x="342" y="1316" on="0"/>
        <pt x="342" y="1288" on="1"/>
        <pt x="342" y="1256" on="0"/>
        <pt x="368" y="1158" on="0"/>
        <pt x="398" y="1053" on="0"/>
        <pt x="424" y="954" on="0"/>
        <pt x="424" y="920" on="1"/>
        <pt x="424" y="877" on="0"/>
        <pt x="397" y="801" on="0"/>
        <pt x="348" y="742" on="0"/>
        <pt x="279" y="701" on="0"/>
        <pt x="238" y="692" on="1"/>
        <pt x="280" y="682" on="0"/>
        <pt x="346" y="633" on="0"/>
        <pt x="392" y="565" on="0"/>
        <pt x="416" y="485" on="0"/>
        <pt x="416" y="444" on="1"/>
        <pt x="416" y="414" on="0"/>
        <pt x="395" y="321" on="0"/>
        <pt x="369" y="220" on="0"/>
        <pt x="348" y="126" on="0"/>
        <pt x="348" y="96" on="1"/>
        <pt x="348" y="33" on="0"/>
        <pt x="424" y="-37" on="0"/>
        <pt x="500" y="-37" on="1"/>
        <pt x="512" y="-37" on="0"/>
        <pt x="535" y="-36" on="0"/>
        <pt x="545" y="-35" on="1"/>
        <pt x="556" y="-34" on="0"/>
        <pt x="567" y="-33" on="1"/>
        <pt x="524" y="-289" on="1"/>
        <pt x="449" y="-277" on="0"/>
        <pt x="307" y="-227" on="0"/>
        <pt x="196" y="-140" on="0"/>
        <pt x="129" y="-11" on="0"/>
        <pt x="129" y="78" on="1"/>
        <pt x="129" y="118" on="0"/>
        <pt x="153" y="195" on="0"/>
        <pt x="181" y="272" on="0"/>
        <pt x="205" y="350" on="0"/>
        <pt x="205" y="391" on="1"/>
        <pt x="205" y="425" on="0"/>
        <pt x="183" y="485" on="0"/>
        <pt x="142" y="530" on="0"/>
        <pt x="84" y="555" on="0"/>
        <pt x="49" y="555" on="1"/>
        <pt x="33" y="555" on="1"/>
        <pt x="33" y="795" on="1"/>
        <pt x="70" y="795" on="0"/>
        <pt x="127" y="822" on="0"/>
        <pt x="167" y="869" on="0"/>
        <pt x="188" y="931" on="0"/>
        <pt x="188" y="967" on="1"/>
        <pt x="188" y="1001" on="0"/>
        <pt x="170" y="1070" on="0"/>
        <pt x="149" y="1143" on="0"/>
        <pt x="131" y="1226" on="0"/>
        <pt x="131" y="1274" on="1"/>
        <pt x="131" y="1361" on="0"/>
        <pt x="176" y="1500" on="0"/>
        <pt x="265" y="1598" on="0"/>
        <pt x="399" y="1651" on="0"/>
        <pt x="489" y="1651" on="1"/>
        <pt x="506" y="1651" on="0"/>
        <pt x="542" y="1649" on="0"/>
        <pt x="559" y="1647" on="1"/>
      </contour>
    </TTGlyph>
    <TTGlyph name="braceright" xMin="20" yMin="-289" xMax="573" yMax="1651">
      <contour>
        <pt x="47" y="1647" on="1"/>
        <pt x="64" y="1649" on="0"/>
        <pt x="100" y="1651" on="0"/>
        <pt x="117" y="1651" on="1"/>
        <pt x="207" y="1651" on="0"/>
        <pt x="341" y="1598" on="0"/>
        <pt x="430" y="1500" on="0"/>
        <pt x="475" y="1361" on="0"/>
        <pt x="475" y="1274" on="1"/>
        <pt x="475" y="1226" on="0"/>
        <pt x="457" y="1143" on="0"/>
        <pt x="436" y="1070" on="0"/>
        <pt x="418" y="1001" on="0"/>
        <pt x="418" y="967" on="1"/>
        <pt x="418" y="931" on="0"/>
        <pt x="439" y="869" on="0"/>
        <pt x="479" y="822" on="0"/>
        <pt x="536" y="795" on="0"/>
        <pt x="573" y="795" on="1"/>
        <pt x="573" y="555" on="1"/>
        <pt x="557" y="555" on="1"/>
        <pt x="521" y="555" on="0"/>
        <pt x="463" y="530" on="0"/>
        <pt x="423" y="485" on="0"/>
        <pt x="401" y="425" on="0"/>
        <pt x="401" y="391" on="1"/>
        <pt x="401" y="350" on="0"/>
        <pt x="425" y="272" on="0"/>
        <pt x="453" y="195" on="0"/>
        <pt x="477" y="118" on="0"/>
        <pt x="477" y="78" on="1"/>
        <pt x="477" y="-11" on="0"/>
        <pt x="410" y="-140" on="0"/>
        <pt x="300" y="-227" on="0"/>
        <pt x="157" y="-277" on="0"/>
        <pt x="82" y="-289" on="1"/>
        <pt x="39" y="-33" on="1"/>
        <pt x="49" y="-34" on="0"/>
        <pt x="60" y="-35" on="1"/>
        <pt x="70" y="-36" on="0"/>
        <pt x="94" y="-37" on="0"/>
        <pt x="106" y="-37" on="1"/>
        <pt x="182" y="-37" on="0"/>
        <pt x="258" y="33" on="0"/>
        <pt x="258" y="96" on="1"/>
        <pt x="258" y="126" on="0"/>
        <pt x="237" y="220" on="0"/>
        <pt x="211" y="321" on="0"/>
        <pt x="190" y="414" on="0"/>
        <pt x="190" y="444" on="1"/>
        <pt x="190" y="485" on="0"/>
        <pt x="214" y="565" on="0"/>
        <pt x="260" y="633" on="0"/>
        <pt x="327" y="682" on="0"/>
        <pt x="369" y="692" on="1"/>
        <pt x="327" y="701" on="0"/>
        <pt x="259" y="742" on="0"/>
        <pt x="209" y="801" on="0"/>
        <pt x="182" y="877" on="0"/>
        <pt x="182" y="920" on="1"/>
        <pt x="182" y="954" on="0"/>
        <pt x="208" y="1053" on="0"/>
        <pt x="238" y="1158" on="0"/>
        <pt x="264" y="1256" on="0"/>
        <pt x="264" y="1288" on="1"/>
        <pt x="264" y="1316" on="0"/>
        <pt x="244" y="1368" on="0"/>
        <pt x="209" y="1407" on="0"/>
        <pt x="162" y="1430" on="0"/>
        <pt x="135" y="1430" on="1"/>
        <pt x="104" y="1430" on="0"/>
        <pt x="45" y="1423" on="0"/>
        <pt x="20" y="1411" on="1"/>
      </contour>
    </TTGlyph>
    <TTGlyph name="bracketleft" xMin="86" yMin="-160" xMax="559" yMax="1618">
      <contour>
        <pt x="559" y="-160" on="1"/>
        <pt x="426" y="-160" on="0"/>
        <pt x="197" y="-157" on="0"/>
        <pt x="86" y="-152" on="1"/>
        <pt x="101" y="85" on="0"/>
        <pt x="113" y="552" on="0"/>
        <pt x="113" y="788" on="1"/>
        <pt x="113" y="897" on="0"/>
        <pt x="111" y="1097" on="0"/>
        <pt x="105" y="1293" on="0"/>
        <pt x="95" y="1493" on="0"/>
        <pt x="86" y="1602" on="1"/>
        <pt x="113" y="1603" on="0"/>
        <pt x="183" y="1606" on="0"/>
        <pt x="259" y="1608" on="0"/>
        <pt x="339" y="1611" on="0"/>
        <pt x="376" y="1612" on="1"/>
        <pt x="463" y="1615" on="0"/>
        <pt x="555" y="1618" on="1"/>
        <pt x="559" y="1391" on="1"/>
        <pt x="519" y="1393" on="0"/>
        <pt x="432" y="1395" on="0"/>
        <pt x="369" y="1395" on="1"/>
        <pt x="361" y="1245" on="0"/>
        <pt x="354" y="950" on="0"/>
        <pt x="354" y="801" on="1"/>
        <pt x="354" y="714" on="0"/>
        <pt x="356" y="521" on="0"/>
        <pt x="361" y="324" on="0"/>
        <pt x="367" y="132" on="0"/>
        <pt x="371" y="45" on="1"/>
        <pt x="559" y="49" on="1"/>
      </contour>
    </TTGlyph>
    <TTGlyph name="bracketright" xMin="35" yMin="-160" xMax="508" yMax="1618">
      <contour>
        <pt x="35" y="49" on="1"/>
        <pt x="223" y="45" on="1"/>
        <pt x="227" y="132" on="0"/>
        <pt x="233" y="324" on="0"/>
        <pt x="237" y="521" on="0"/>
        <pt x="240" y="714" on="0"/>
        <pt x="240" y="801" on="1"/>
        <pt x="240" y="950" on="0"/>
        <pt x="233" y="1245" on="0"/>
        <pt x="225" y="1395" on="1"/>
        <pt x="162" y="1395" on="0"/>
        <pt x="75" y="1393" on="0"/>
        <pt x="35" y="1391" on="1"/>
        <pt x="39" y="1618" on="1"/>
        <pt x="131" y="1615" on="0"/>
        <pt x="218" y="1612" on="1"/>
        <pt x="255" y="1611" on="0"/>
        <pt x="334" y="1608" on="0"/>
        <pt x="411" y="1606" on="0"/>
        <pt x="480" y="1603" on="0"/>
        <pt x="508" y="1602" on="1"/>
        <pt x="499" y="1493" on="0"/>
        <pt x="489" y="1293" on="0"/>
        <pt x="483" y="1097" on="0"/>
        <pt x="481" y="897" on="0"/>
        <pt x="481" y="788" on="1"/>
        <pt x="481" y="552" on="0"/>
        <pt x="492" y="85" on="0"/>
        <pt x="508" y="-152" on="1"/>
        <pt x="396" y="-157" on="0"/>
        <pt x="168" y="-160" on="0"/>
        <pt x="35" y="-160" on="1"/>
      </contour>
    </TTGlyph>
    <TTGlyph name="breve" xMin="2" yMin="1473" xMax="442" yMax="1878">
      <contour>
        <pt x="442" y="1847" on="1"/>
        <pt x="442" y="1810" on="1"/>
        <pt x="442" y="1754" on="0"/>
        <pt x="419" y="1635" on="0"/>
        <pt x="367" y="1536" on="0"/>
        <pt x="279" y="1473" on="0"/>
        <pt x="215" y="1473" on="1"/>
        <pt x="159" y="1473" on="0"/>
        <pt x="79" y="1522" on="0"/>
        <pt x="27" y="1606" on="0"/>
        <pt x="2" y="1718" on="0"/>
        <pt x="2" y="1780" on="1"/>
        <pt x="2" y="1798" on="0"/>
        <pt x="3" y="1838" on="0"/>
        <pt x="6" y="1858" on="1"/>
        <pt x="162" y="1878" on="1"/>
        <pt x="160" y="1861" on="0"/>
        <pt x="160" y="1825" on="0"/>
        <pt x="160" y="1806" on="1"/>
        <pt x="160" y="1777" on="0"/>
        <pt x="165" y="1721" on="0"/>
        <pt x="179" y="1676" on="0"/>
        <pt x="204" y="1649" on="0"/>
        <pt x="225" y="1649" on="1"/>
        <pt x="245" y="1649" on="0"/>
        <pt x="273" y="1684" on="0"/>
        <pt x="291" y="1740" on="0"/>
        <pt x="299" y="1810" on="0"/>
        <pt x="299" y="1845" on="1"/>
        <pt x="299" y="1872" on="1"/>
        <pt x="320" y="1865" on="0"/>
        <pt x="370" y="1856" on="0"/>
        <pt x="392" y="1853" on="1"/>
        <pt x="418" y="1849" on="0"/>
      </contour>
    </TTGlyph>
    <TTGlyph name="brokenbar" xMin="84" yMin="-137" xMax="383" yMax="1651">
      <contour>
        <pt x="309" y="-127" on="1"/>
        <pt x="280" y="-127" on="0"/>
        <pt x="232" y="-128" on="0"/>
        <pt x="183" y="-130" on="0"/>
        <pt x="130" y="-134" on="0"/>
        <pt x="98" y="-137" on="1"/>
        <pt x="104" y="-3" on="0"/>
        <pt x="108" y="132" on="1"/>
        <pt x="110" y="189" on="0"/>
        <pt x="114" y="315" on="0"/>
        <pt x="117" y="442" on="0"/>
        <pt x="119" y="564" on="0"/>
        <pt x="119" y="618" on="1"/>
        <pt x="119" y="686" on="1"/>
        <pt x="358" y="686" on="1"/>
        <pt x="360" y="635" on="0"/>
        <pt x="364" y="511" on="0"/>
        <pt x="369" y="377" on="0"/>
        <pt x="373" y="240" on="0"/>
        <pt x="375" y="177" on="1"/>
        <pt x="379" y="28" on="0"/>
        <pt x="383" y="-127" on="1"/>
      </contour>
      <contour>
        <pt x="375" y="1651" on="1"/>
        <pt x="371" y="1586" on="0"/>
        <pt x="363" y="1406" on="0"/>
        <pt x="356" y="1205" on="0"/>
        <pt x="352" y="997" on="0"/>
        <pt x="352" y="903" on="1"/>
        <pt x="113" y="903" on="1"/>
        <pt x="111" y="950" on="0"/>
        <pt x="107" y="1064" on="0"/>
        <pt x="102" y="1187" on="0"/>
        <pt x="97" y="1312" on="0"/>
        <pt x="95" y="1371" on="1"/>
        <pt x="90" y="1508" on="0"/>
        <pt x="84" y="1651" on="1"/>
        <pt x="121" y="1648" on="0"/>
        <pt x="182" y="1647" on="0"/>
        <pt x="211" y="1647" on="1"/>
        <pt x="249" y="1647" on="0"/>
        <pt x="327" y="1649" on="0"/>
      </contour>
    </TTGlyph>
    <TTGlyph name="bullet" xMin="104" yMin="541" xMax="492" yMax="928">
      <contour>
        <pt x="492" y="733" on="1"/>
        <pt x="492" y="694" on="0"/>
        <pt x="462" y="624" on="0"/>
        <pt x="410" y="572" on="0"/>
        <pt x="340" y="541" on="0"/>
        <pt x="301" y="541" on="1"/>
        <pt x="260" y="541" on="0"/>
        <pt x="189" y="572" on="0"/>
        <pt x="135" y="624" on="0"/>
        <pt x="104" y="694" on="0"/>
        <pt x="104" y="733" on="1"/>
        <pt x="104" y="774" on="0"/>
        <pt x="135" y="845" on="0"/>
        <pt x="189" y="898" on="0"/>
        <pt x="260" y="928" on="0"/>
        <pt x="301" y="928" on="1"/>
        <pt x="340" y="928" on="0"/>
        <pt x="410" y="898" on="0"/>
        <pt x="462" y="845" on="0"/>
        <pt x="492" y="774" on="0"/>
      </contour>
    </TTGlyph>
    <TTGlyph name="c" xMin="45" yMin="-68" xMax="803" yMax="1178">
      <contour>
        <pt x="803" y="850" on="1"/>
        <pt x="803" y="781" on="0"/>
        <pt x="766" y="700" on="0"/>
        <pt x="715" y="659" on="0"/>
        <pt x="662" y="647" on="0"/>
        <pt x="645" y="647" on="1"/>
        <pt x="628" y="647" on="0"/>
        <pt x="580" y="658" on="0"/>
        <pt x="535" y="691" on="0"/>
        <pt x="504" y="752" on="0"/>
        <pt x="504" y="801" on="1"/>
        <pt x="505" y="828" on="0"/>
        <pt x="514" y="854" on="1"/>
        <pt x="522" y="876" on="0"/>
        <pt x="554" y="922" on="0"/>
        <pt x="584" y="938" on="1"/>
        <pt x="567" y="976" on="0"/>
        <pt x="526" y="1016" on="0"/>
        <pt x="507" y="1026" on="1"/>
        <pt x="485" y="1037" on="0"/>
        <pt x="463" y="1040" on="1"/>
        <pt x="426" y="1040" on="0"/>
        <pt x="366" y="972" on="0"/>
        <pt x="324" y="849" on="0"/>
        <pt x="301" y="677" on="0"/>
        <pt x="301" y="573" on="1"/>
        <pt x="301" y="470" on="0"/>
        <pt x="316" y="291" on="0"/>
        <pt x="350" y="158" on="0"/>
        <pt x="408" y="82" on="0"/>
        <pt x="451" y="82" on="1"/>
        <pt x="474" y="83" on="0"/>
        <pt x="497" y="93" on="1"/>
        <pt x="517" y="101" on="0"/>
        <pt x="562" y="138" on="0"/>
        <pt x="580" y="172" on="1"/>
        <pt x="545" y="189" on="0"/>
        <pt x="508" y="238" on="0"/>
        <pt x="500" y="261" on="1"/>
        <pt x="490" y="288" on="0"/>
        <pt x="489" y="317" on="1"/>
        <pt x="489" y="365" on="0"/>
        <pt x="527" y="425" on="0"/>
        <pt x="579" y="460" on="0"/>
        <pt x="633" y="473" on="0"/>
        <pt x="649" y="473" on="1"/>
        <pt x="666" y="473" on="0"/>
        <pt x="716" y="459" on="0"/>
        <pt x="762" y="419" on="0"/>
        <pt x="795" y="346" on="0"/>
        <pt x="795" y="287" on="1"/>
        <pt x="795" y="228" on="0"/>
        <pt x="738" y="102" on="0"/>
        <pt x="641" y="-2" on="0"/>
        <pt x="514" y="-68" on="0"/>
        <pt x="444" y="-68" on="1"/>
        <pt x="397" y="-68" on="0"/>
        <pt x="301" y="-42" on="0"/>
        <pt x="213" y="18" on="0"/>
        <pt x="135" y="116" on="0"/>
        <pt x="78" y="258" on="0"/>
        <pt x="45" y="449" on="0"/>
        <pt x="45" y="573" on="1"/>
        <pt x="45" y="697" on="0"/>
        <pt x="81" y="884" on="0"/>
        <pt x="144" y="1018" on="0"/>
        <pt x="226" y="1106" on="0"/>
        <pt x="319" y="1158" on="0"/>
        <pt x="417" y="1178" on="0"/>
        <pt x="463" y="1178" on="1"/>
        <pt x="531" y="1178" on="0"/>
        <pt x="655" y="1127" on="0"/>
        <pt x="748" y="1038" on="0"/>
        <pt x="803" y="918" on="0"/>
      </contour>
    </TTGlyph>
    <TTGlyph name="cacute" xMin="45" yMin="-68" xMax="803" yMax="1647">
      <component glyphName="c" x="0" y="0" flags="0x204"/>
      <component glyphName="acute" x="410" y="-235" flags="0x4"/>
    </TTGlyph>
    <TTGlyph name="caron" xMin="0" yMin="1491" xMax="504" yMax="1888">
      <contour>
        <pt x="504" y="1825" on="1"/>
        <pt x="494" y="1809" on="0"/>
        <pt x="470" y="1763" on="0"/>
        <pt x="445" y="1710" on="0"/>
        <pt x="418" y="1653" on="0"/>
        <pt x="405" y="1626" on="1"/>
        <pt x="375" y="1562" on="0"/>
        <pt x="344" y="1491" on="1"/>
        <pt x="334" y="1492" on="0"/>
        <pt x="321" y="1493" on="1"/>
        <pt x="310" y="1494" on="0"/>
        <pt x="279" y="1495" on="0"/>
        <pt x="262" y="1495" on="1"/>
        <pt x="244" y="1495" on="0"/>
        <pt x="204" y="1493" on="0"/>
        <pt x="182" y="1491" on="1"/>
        <pt x="149" y="1550" on="0"/>
        <pt x="116" y="1609" on="1"/>
        <pt x="88" y="1660" on="0"/>
        <pt x="26" y="1776" on="0"/>
        <pt x="0" y="1827" on="1"/>
        <pt x="26" y="1834" on="0"/>
        <pt x="72" y="1848" on="0"/>
        <pt x="116" y="1861" on="0"/>
        <pt x="160" y="1877" on="0"/>
        <pt x="184" y="1888" on="1"/>
        <pt x="191" y="1862" on="0"/>
        <pt x="213" y="1781" on="0"/>
        <pt x="224" y="1742" on="1"/>
        <pt x="236" y="1696" on="0"/>
        <pt x="250" y="1647" on="1"/>
        <pt x="250" y="1654" on="0"/>
        <pt x="268" y="1702" on="0"/>
        <pt x="293" y="1767" on="0"/>
        <pt x="319" y="1844" on="0"/>
        <pt x="328" y="1882" on="1"/>
        <pt x="351" y="1876" on="0"/>
        <pt x="390" y="1862" on="0"/>
        <pt x="431" y="1848" on="0"/>
        <pt x="475" y="1832" on="0"/>
      </contour>
    </TTGlyph>
    <TTGlyph name="ccaron" xMin="45" yMin="-68" xMax="803" yMax="1629">
      <component glyphName="c" x="0" y="0" flags="0x204"/>
      <component glyphName="caron" x="166" y="-259" flags="0x4"/>
    </TTGlyph>
    <TTGlyph name="ccedilla" xMin="45" yMin="-401" xMax="803" yMax="1178">
      <contour>
        <pt x="569" y="-254" on="1"/>
        <pt x="569" y="-290" on="0"/>
        <pt x="539" y="-345" on="0"/>
        <pt x="489" y="-382" on="0"/>
        <pt x="425" y="-401" on="0"/>
        <pt x="391" y="-401" on="1"/>
        <pt x="370" y="-401" on="0"/>
        <pt x="337" y="-395" on="0"/>
        <pt x="326" y="-391" on="1"/>
        <pt x="313" y="-387" on="0"/>
        <pt x="303" y="-381" on="1"/>
        <pt x="303" y="-270" on="1"/>
        <pt x="307" y="-275" on="0"/>
        <pt x="329" y="-283" on="0"/>
        <pt x="353" y="-288" on="0"/>
        <pt x="376" y="-291" on="0"/>
        <pt x="383" y="-291" on="1"/>
        <pt x="406" y="-291" on="0"/>
        <pt x="440" y="-274" on="0"/>
        <pt x="440" y="-246" on="1"/>
        <pt x="440" y="-233" on="0"/>
        <pt x="427" y="-215" on="0"/>
        <pt x="407" y="-204" on="0"/>
        <pt x="383" y="-199" on="0"/>
        <pt x="373" y="-199" on="1"/>
        <pt x="359" y="-199" on="0"/>
        <pt x="329" y="-202" on="0"/>
        <pt x="315" y="-207" on="1"/>
        <pt x="371" y="-59" on="1"/>
        <pt x="309" y="-46" on="0"/>
        <pt x="191" y="33" on="0"/>
        <pt x="100" y="183" on="0"/>
        <pt x="45" y="411" on="0"/>
        <pt x="45" y="573" on="1"/>
        <pt x="45" y="697" on="0"/>
        <pt x="81" y="884" on="0"/>
        <pt x="144" y="1018" on="0"/>
        <pt x="226" y="1106" on="0"/>
        <pt x="319" y="1158" on="0"/>
        <pt x="417" y="1178" on="0"/>
        <pt x="463" y="1178" on="1"/>
        <pt x="531" y="1178" on="0"/>
        <pt x="655" y="1127" on="0"/>
        <pt x="748" y="1038" on="0"/>
        <pt x="803" y="918" on="0"/>
        <pt x="803" y="850" on="1"/>
        <pt x="803" y="781" on="0"/>
        <pt x="766" y="700" on="0"/>
        <pt x="715" y="659" on="0"/>
        <pt x="662" y="647" on="0"/>
        <pt x="645" y="647" on="1"/>
        <pt x="628" y="647" on="0"/>
        <pt x="580" y="658" on="0"/>
        <pt x="535" y="691" on="0"/>
        <pt x="504" y="752" on="0"/>
        <pt x="504" y="801" on="1"/>
        <pt x="505" y="828" on="0"/>
        <pt x="514" y="854" on="1"/>
        <pt x="522" y="876" on="0"/>
        <pt x="554" y="922" on="0"/>
        <pt x="584" y="938" on="1"/>
        <pt x="567" y="976" on="0"/>
        <pt x="526" y="1016" on="0"/>
        <pt x="507" y="1026" on="1"/>
        <pt x="485" y="1037" on="0"/>
        <pt x="463" y="1040" on="1"/>
        <pt x="426" y="1040" on="0"/>
        <pt x="366" y="972" on="0"/>
        <pt x="324" y="849" on="0"/>
        <pt x="301" y="677" on="0"/>
        <pt x="301" y="573" on="1"/>
        <pt x="301" y="470" on="0"/>
        <pt x="316" y="291" on="0"/>
        <pt x="350" y="158" on="0"/>
        <pt x="408" y="82" on="0"/>
        <pt x="451" y="82" on="1"/>
        <pt x="474" y="83" on="0"/>
        <pt x="497" y="93" on="1"/>
        <pt x="517" y="101" on="0"/>
        <pt x="562" y="138" on="0"/>
        <pt x="580" y="172" on="1"/>
        <pt x="545" y="189" on="0"/>
        <pt x="508" y="238" on="0"/>
        <pt x="500" y="261" on="1"/>
        <pt x="490" y="288" on="0"/>
        <pt x="489" y="317" on="1"/>
        <pt x="489" y="365" on="0"/>
        <pt x="527" y="425" on="0"/>
        <pt x="579" y="460" on="0"/>
        <pt x="633" y="473" on="0"/>
        <pt x="649" y="473" on="1"/>
        <pt x="666" y="473" on="0"/>
        <pt x="716" y="459" on="0"/>
        <pt x="762" y="419" on="0"/>
        <pt x="795" y="346" on="0"/>
        <pt x="795" y="287" on="1"/>
        <pt x="795" y="228" on="0"/>
        <pt x="739" y="105" on="0"/>
        <pt x="645" y="2" on="0"/>
        <pt x="520" y="-65" on="0"/>
        <pt x="451" y="-68" on="1"/>
        <pt x="438" y="-123" on="1"/>
        <pt x="497" y="-123" on="0"/>
        <pt x="569" y="-194" on="0"/>
      </contour>
    </TTGlyph>
    <TTGlyph name="ccircumflex" xMin="45" yMin="-68" xMax="803" yMax="1625">
      <component glyphName="c" x="0" y="0" flags="0x204"/>
      <component glyphName="circumflex" x="176" y="-263" flags="0x4"/>
    </TTGlyph>
    <TTGlyph name="cdotaccent" xMin="45" yMin="-68" xMax="803" yMax="1449">
      <component glyphName="c" x="0" y="0" flags="0x204"/>
      <component glyphName="dotaccent" x="322" y="-239" flags="0x4"/>
    </TTGlyph>
    <TTGlyph name="cedilla" xMin="0" yMin="-401" xMax="266" yMax="20">
      <contour>
        <pt x="266" y="-254" on="1"/>
        <pt x="266" y="-290" on="0"/>
        <pt x="236" y="-345" on="0"/>
        <pt x="186" y="-382" on="0"/>
        <pt x="122" y="-401" on="0"/>
        <pt x="88" y="-401" on="1"/>
        <pt x="67" y="-401" on="0"/>
        <pt x="34" y="-395" on="0"/>
        <pt x="23" y="-391" on="1"/>
        <pt x="10" y="-387" on="0"/>
        <pt x="0" y="-381" on="1"/>
        <pt x="0" y="-270" on="1"/>
        <pt x="4" y="-275" on="0"/>
        <pt x="25" y="-283" on="0"/>
        <pt x="49" y="-288" on="0"/>
        <pt x="73" y="-291" on="0"/>
        <pt x="80" y="-291" on="1"/>
        <pt x="103" y="-291" on="0"/>
        <pt x="137" y="-274" on="0"/>
        <pt x="137" y="-246" on="1"/>
        <pt x="137" y="-233" on="0"/>
        <pt x="124" y="-215" on="0"/>
        <pt x="104" y="-204" on="0"/>
        <pt x="80" y="-199" on="0"/>
        <pt x="70" y="-199" on="1"/>
        <pt x="56" y="-199" on="0"/>
        <pt x="26" y="-202" on="0"/>
        <pt x="12" y="-207" on="1"/>
        <pt x="98" y="20" on="1"/>
        <pt x="170" y="20" on="1"/>
        <pt x="135" y="-123" on="1"/>
        <pt x="194" y="-123" on="0"/>
        <pt x="266" y="-194" on="0"/>
      </contour>
    </TTGlyph>
</ttFont>
